{"glyphs":{"0":{"ha":681,"x_min":42,"x_max":639,"o":"m 221 406 q 340 29 221 29 q 460 406 460 29 q 340 783 460 783 q 221 406 221 783 m 123 108 q 82 169 123 108 q 42 406 42 231 q 123 703 42 581 q 340 826 204 826 q 558 703 476 826 q 639 406 639 581 q 558 108 639 231 q 340 -14 476 -14 q 123 108 204 -14 z "},"1":{"ha":681,"x_min":149,"x_max":618,"o":"m 469 813 l 469 85 q 515 42 469 56 q 618 29 561 29 l 618 0 l 149 0 l 149 29 q 251 42 206 29 q 297 85 297 56 l 297 604 q 172 517 226 558 l 163 540 l 410 813 l 469 813 z "},"2":{"ha":681,"x_min":56,"x_max":625,"o":"m 56 0 q 94 74 56 24 q 187 184 132 124 q 296 310 242 244 q 388 448 350 376 q 426 575 426 519 q 394 690 426 636 q 314 743 363 743 q 207 722 254 743 q 139 676 160 701 q 102 631 118 651 q 81 610 86 610 q 69 624 69 610 q 87 669 69 639 q 137 736 104 700 q 227 799 169 772 q 353 826 285 826 q 542 766 481 826 q 603 618 603 706 q 550 487 603 565 q 435 344 497 408 q 319 220 372 279 q 267 142 267 161 l 518 142 q 551 155 535 142 q 574 178 567 168 q 597 214 581 189 l 625 214 l 589 0 l 56 0 z "},"3":{"ha":681,"x_min":67,"x_max":614,"o":"m 294 400 q 276 406 285 400 q 268 418 268 411 q 278 428 268 424 q 408 601 408 467 q 376 704 408 665 q 282 743 344 743 q 204 726 238 743 q 157 689 171 710 q 132 651 143 668 q 115 635 121 635 q 104 649 104 635 q 117 690 104 664 q 153 749 129 717 q 223 803 178 781 q 324 826 268 826 q 576 619 576 826 q 450 454 576 526 q 565 376 517 436 q 614 250 614 317 q 551 59 614 132 q 328 -14 489 -14 q 219 0 271 -14 q 136 33 168 14 q 85 72 104 53 q 67 100 67 90 q 77 158 67 142 q 117 175 88 175 q 160 152 140 175 q 194 102 181 129 q 236 52 207 75 q 306 29 265 29 q 408 76 367 29 q 450 222 450 122 q 420 351 450 301 q 335 400 390 400 l 294 400 z "},"4":{"ha":681,"x_min":61,"x_max":621,"o":"m 508 813 l 508 285 l 621 285 l 621 243 l 508 243 l 508 57 q 596 29 521 29 l 596 0 l 247 0 l 247 29 q 335 57 322 29 l 335 243 l 61 243 l 444 813 l 508 813 m 335 285 l 335 574 l 139 285 l 335 285 z "},"5":{"ha":681,"x_min":67,"x_max":614,"o":"m 199 535 q 399 507 313 535 q 528 436 485 479 q 593 350 572 393 q 614 267 614 307 q 344 -14 614 -14 q 190 10 258 -14 q 94 60 122 35 q 67 100 67 85 q 77 158 67 142 q 117 175 88 175 q 151 152 133 175 q 183 102 168 129 q 236 52 199 75 q 325 29 274 29 q 450 239 450 29 q 440 324 450 289 q 401 393 431 358 q 307 445 372 428 q 142 463 242 463 l 188 813 l 575 813 l 542 693 l 219 693 l 199 535 z "},"6":{"ha":681,"x_min":53,"x_max":628,"o":"m 240 492 q 343 514 288 514 q 628 261 628 514 q 551 60 628 135 q 349 -14 474 -14 q 133 78 214 -14 q 53 311 53 171 q 97 528 53 428 q 206 692 140 629 q 339 793 271 756 q 465 838 407 831 l 483 790 q 240 492 285 740 m 233 447 q 226 311 226 394 q 257 97 226 163 q 349 31 288 31 q 454 272 454 31 q 453 326 454 307 q 447 376 453 344 q 431 424 442 407 q 399 453 421 440 q 346 467 376 467 q 233 447 272 467 z "},"7":{"ha":681,"x_min":81,"x_max":600,"o":"m 242 22 q 297 242 242 93 q 409 521 353 390 q 465 681 465 651 l 190 681 q 147 654 172 681 q 108 592 122 628 l 81 592 l 133 813 l 600 813 q 540 643 600 792 q 421 310 481 494 q 361 22 361 126 q 344 -2 361 10 q 300 -14 328 -14 q 257 -2 272 -14 q 242 22 242 10 z "},"8":{"ha":681,"x_min":56,"x_max":614,"o":"m 397 474 q 488 664 488 536 q 446 750 488 719 q 356 781 404 781 q 217 668 217 781 q 230 621 217 644 q 275 569 243 597 q 328 524 307 540 q 397 474 349 508 m 451 433 q 614 200 614 310 q 534 53 614 119 q 340 -14 454 -14 q 135 44 214 -14 q 56 192 56 103 q 226 417 56 324 q 71 644 71 536 q 142 769 71 719 q 329 819 213 819 q 600 653 600 819 q 451 433 600 522 m 279 376 q 169 181 169 317 q 216 78 169 117 q 314 39 263 39 q 425 67 382 39 q 468 176 468 96 q 301 360 468 240 q 279 376 286 371 z "},"9":{"ha":681,"x_min":53,"x_max":628,"o":"m 440 321 q 338 299 393 299 q 53 551 53 299 q 130 752 53 678 q 332 826 207 826 q 547 734 467 826 q 628 501 628 642 q 584 284 628 385 q 475 120 540 183 q 342 19 410 57 q 215 -25 274 -18 l 197 22 q 440 321 396 72 m 447 365 q 454 501 454 417 q 424 716 454 650 q 332 782 393 782 q 226 540 226 782 q 227 487 226 506 q 233 437 228 468 q 249 389 239 406 q 282 359 260 372 q 335 346 304 346 q 447 365 408 346 z "}," ":{"ha":333,"x_min":0,"x_max":0,"o":""},"!":{"ha":326,"x_min":68,"x_max":260,"o":"m 68 72 q 97 137 68 113 q 163 161 125 161 q 228 138 196 161 q 260 76 260 115 q 231 11 260 36 q 164 -14 201 -14 q 99 10 131 -14 q 68 72 68 33 m 218 425 q 163 286 199 286 q 107 425 126 286 q 71 781 71 678 q 99 851 71 828 q 163 875 128 875 q 226 851 197 875 q 254 781 254 828 q 239 597 254 731 q 218 425 224 463 z "},"\"":{"ha":493,"x_min":42,"x_max":451,"o":"m 420 657 q 405 588 420 657 q 368 519 389 519 q 316 657 347 519 q 285 861 285 794 q 310 908 285 892 q 368 924 336 924 q 426 908 400 924 q 451 861 451 892 q 420 657 451 794 m 177 657 q 161 588 177 657 q 125 519 146 519 q 73 657 104 519 q 42 861 42 794 q 67 908 42 892 q 125 924 93 924 q 183 908 157 924 q 208 861 208 892 q 177 657 208 794 z "},"#":{"ha":694,"x_min":42,"x_max":653,"o":"m 632 319 l 632 272 l 479 272 l 442 0 l 358 0 l 396 272 l 250 272 l 213 0 l 129 0 l 167 272 l 42 272 l 42 319 l 174 319 l 199 494 l 63 494 l 63 542 l 206 542 l 243 813 l 326 813 l 289 542 l 435 542 l 472 813 l 556 813 l 518 542 l 653 542 l 653 494 l 511 494 l 486 319 l 632 319 m 257 319 l 403 319 l 428 494 l 282 494 l 257 319 z "},"$":{"ha":615,"x_min":64,"x_max":574,"o":"m 64 78 l 64 219 l 94 219 q 163 97 106 146 q 282 36 221 47 l 282 332 l 239 361 q 65 611 65 481 q 132 758 65 692 q 282 826 199 824 l 282 875 l 338 875 l 338 822 q 415 799 378 815 q 471 769 453 782 l 489 756 l 500 603 l 469 603 q 424 696 464 647 q 338 767 383 744 l 338 501 l 378 475 q 522 353 469 415 q 574 206 574 292 q 502 52 574 110 q 338 -12 431 -6 l 338 -58 l 282 -58 l 282 -12 q 158 15 213 -8 q 83 58 103 38 l 64 78 m 282 538 l 282 779 q 202 737 229 776 q 175 656 175 697 q 282 538 175 608 m 338 296 l 338 36 q 416 80 386 44 q 446 167 446 115 q 338 296 446 221 z "},"%":{"ha":750,"x_min":40,"x_max":710,"o":"m 638 785 l 169 28 l 114 28 l 582 785 l 638 785 m 172 733 q 164 714 172 733 q 157 647 157 696 q 172 562 157 599 q 210 525 186 525 q 248 562 233 525 q 263 647 263 599 q 248 733 263 696 q 210 769 233 769 q 172 733 186 769 m 94 528 q 67 554 94 528 q 40 647 40 579 q 94 766 40 715 q 210 817 149 817 q 325 766 271 817 q 379 647 379 715 q 325 528 379 579 q 210 478 271 478 q 94 528 149 478 m 502 251 q 495 232 502 251 q 488 165 488 214 q 502 80 488 117 q 540 43 517 43 q 578 80 564 43 q 593 165 593 117 q 578 251 593 214 q 540 288 564 288 q 502 251 517 288 m 425 47 q 398 72 425 47 q 371 165 371 97 q 425 284 371 233 q 540 335 479 335 q 656 284 601 335 q 710 165 710 233 q 656 47 710 97 q 540 -4 601 -4 q 425 47 479 -4 z "},"&":{"ha":843,"x_min":26,"x_max":806,"o":"m 401 778 q 352 740 376 778 q 328 647 328 703 q 361 496 328 589 q 468 651 468 571 q 451 740 468 703 q 401 778 433 778 m 806 479 l 806 450 q 718 422 726 450 q 574 121 654 224 q 669 61 629 61 q 742 71 722 61 q 785 113 763 81 l 801 99 q 750 16 782 46 q 658 -14 718 -14 q 500 47 582 -14 q 318 -14 418 -14 q 26 176 26 -14 q 82 307 26 253 q 242 422 138 361 q 181 658 181 568 q 196 735 181 703 q 232 785 211 768 q 282 811 253 801 q 331 824 311 821 q 374 826 351 826 q 484 778 442 826 q 526 668 526 731 q 489 542 526 594 q 383 440 451 490 q 539 163 447 282 q 654 424 614 274 q 567 450 642 450 l 567 479 l 806 479 m 463 79 q 269 358 357 179 q 208 292 228 324 q 189 214 189 261 q 243 88 189 132 q 369 44 297 44 q 463 79 417 44 z "},"'":{"ha":250,"x_min":42,"x_max":208,"o":"m 177 657 q 161 588 177 657 q 125 519 146 519 q 73 657 104 519 q 42 861 42 794 q 67 908 42 892 q 125 924 93 924 q 183 908 157 924 q 208 861 208 892 q 177 657 208 794 z "},"(":{"ha":349,"x_min":42,"x_max":293,"o":"m 42 438 q 179 840 42 626 q 281 944 246 944 q 293 929 293 944 q 288 919 293 928 q 274 892 282 910 q 260 854 265 874 q 219 665 238 783 q 200 438 200 547 q 219 210 200 328 q 260 21 238 92 q 274 -17 265 1 q 288 -44 282 -35 q 293 -54 293 -53 q 281 -69 293 -69 q 178 35 244 -69 q 42 438 42 246 z "},")":{"ha":347,"x_min":54,"x_max":306,"o":"m 306 438 q 168 35 306 249 q 67 -69 101 -69 q 54 -54 54 -69 q 60 -44 54 -53 q 74 -17 65 -35 q 88 21 82 1 q 128 210 110 92 q 147 438 147 328 q 128 665 147 547 q 88 854 110 783 q 74 892 82 874 q 60 919 65 910 q 54 929 54 928 q 67 944 54 944 q 169 840 103 944 q 306 438 306 629 z "},"*":{"ha":489,"x_min":56,"x_max":432,"o":"m 172 497 q 124 518 147 497 q 101 561 101 539 q 110 588 101 575 q 161 619 118 599 q 219 642 204 640 q 207 668 207 653 q 208 672 207 669 q 208 676 208 675 q 159 661 197 669 q 99 653 121 653 q 67 667 78 653 q 56 701 56 682 q 72 751 56 729 q 111 774 89 774 q 125 771 114 774 q 172 733 139 767 q 210 683 204 699 q 240 704 219 701 q 206 756 229 713 q 182 813 182 799 q 199 848 182 835 q 243 861 217 861 q 287 848 269 861 q 304 813 304 835 q 281 756 304 799 q 246 704 257 713 q 276 682 268 701 q 314 731 279 694 q 363 771 349 767 q 378 774 374 774 q 415 752 399 774 q 432 703 432 731 q 421 668 432 683 q 389 653 410 653 q 326 661 365 653 q 278 676 288 669 q 279 668 279 674 q 267 642 279 654 q 326 620 282 642 q 379 588 371 599 q 388 563 388 575 q 364 518 388 539 q 314 497 340 497 q 279 515 292 497 q 267 560 272 524 q 261 622 261 596 q 263 638 261 635 q 243 632 256 632 q 225 636 233 632 q 226 619 226 632 q 208 515 226 539 q 172 497 194 497 z "},"+":{"ha":561,"x_min":49,"x_max":513,"o":"m 317 406 l 317 210 l 244 210 l 244 406 l 49 406 l 49 478 l 244 478 l 244 674 l 317 674 l 317 478 l 513 478 l 513 406 l 317 406 z "},",":{"ha":311,"x_min":57,"x_max":260,"o":"m 133 -14 q 78 7 99 -14 q 57 60 57 28 q 86 123 57 101 q 142 144 115 144 q 260 -8 260 144 q 203 -129 260 -76 q 76 -186 146 -182 l 76 -136 q 157 -91 126 -125 q 188 -25 188 -57 q 176 4 188 4 q 169 -1 175 4 q 154 -10 164 -6 q 133 -14 144 -14 z "},"-":{"ha":517,"x_min":75,"x_max":442,"o":"m 75 472 l 442 472 l 442 411 l 75 411 l 75 472 z "},".":{"ha":306,"x_min":57,"x_max":249,"o":"m 57 72 q 85 137 57 113 q 151 161 114 161 q 217 138 185 161 q 249 76 249 115 q 219 11 249 36 q 153 -14 190 -14 q 88 10 119 -14 q 57 72 57 33 z "},"/":{"ha":658,"x_min":25,"x_max":633,"o":"m 25 -14 l 565 850 l 633 825 l 93 -39 l 25 -14 z "},":":{"ha":342,"x_min":75,"x_max":267,"o":"m 75 72 q 103 137 75 113 q 169 161 132 161 q 235 138 203 161 q 267 76 267 115 q 238 11 267 36 q 171 -14 208 -14 q 106 10 138 -14 q 75 72 75 33 m 75 531 q 103 595 75 571 q 169 619 132 619 q 235 597 203 619 q 267 535 267 574 q 238 469 267 494 q 171 444 208 444 q 106 468 138 444 q 75 531 75 492 z "},";":{"ha":357,"x_min":79,"x_max":282,"o":"m 156 -14 q 100 7 121 -14 q 79 60 79 28 q 108 123 79 101 q 164 144 138 144 q 282 -8 282 144 q 225 -129 282 -76 q 99 -186 168 -182 l 99 -136 q 179 -91 149 -125 q 210 -25 210 -57 q 199 4 210 4 q 192 -1 197 4 q 176 -10 186 -6 q 156 -14 167 -14 m 79 531 q 108 595 79 571 q 174 619 136 619 q 239 597 207 619 q 271 535 271 574 q 242 469 271 494 q 175 444 213 444 q 110 468 142 444 q 79 531 79 492 z "},"<":{"ha":653,"x_min":40,"x_max":565,"o":"m 40 476 l 565 722 l 565 651 l 131 442 l 565 232 l 565 161 l 40 407 l 40 476 z "},"=":{"ha":675,"x_min":85,"x_max":590,"o":"m 85 396 l 590 396 l 590 321 l 85 321 l 85 396 m 85 563 l 590 563 l 590 488 l 85 488 l 85 563 z "},">":{"ha":653,"x_min":88,"x_max":613,"o":"m 613 407 l 88 161 l 88 232 l 522 442 l 88 651 l 88 722 l 613 476 l 613 407 z "},"?":{"ha":592,"x_min":39,"x_max":550,"o":"m 171 72 q 199 137 171 113 q 265 161 228 161 q 331 138 299 161 q 363 76 363 115 q 333 11 363 36 q 267 -14 304 -14 q 202 10 233 -14 q 171 72 171 33 m 238 278 q 259 374 238 329 q 307 450 281 419 q 355 538 333 481 q 376 667 376 594 q 344 787 376 740 q 258 833 313 833 q 182 803 207 833 q 157 735 157 772 q 167 699 157 718 q 178 665 178 681 q 158 623 178 642 q 111 604 139 604 q 58 627 76 604 q 39 689 39 650 q 102 817 39 758 q 272 875 165 875 q 479 817 408 875 q 550 660 550 758 q 523 556 550 606 q 458 471 496 507 q 381 403 419 435 q 315 340 342 372 q 288 278 288 307 q 278 265 288 271 q 263 258 268 258 q 247 265 257 258 q 238 278 238 271 z "},"@":{"ha":860,"x_min":57,"x_max":818,"o":"m 340 221 q 259 261 288 221 q 231 360 231 301 q 294 529 231 451 q 426 607 357 607 q 518 550 488 607 l 529 592 l 624 592 l 542 282 q 546 260 538 268 q 572 253 554 253 q 654 299 618 253 q 704 393 690 346 q 718 469 718 440 q 697 624 718 561 q 635 717 675 688 q 556 757 596 746 q 465 768 517 768 q 220 669 325 768 q 115 400 115 571 q 174 205 115 290 q 310 80 232 119 q 465 40 388 40 q 583 60 528 40 q 669 101 638 79 q 733 160 701 122 q 772 212 764 197 q 796 253 781 226 l 818 242 q 769 144 792 182 q 705 65 746 106 q 602 6 664 25 q 457 -14 540 -14 q 181 102 306 -14 q 57 394 57 218 q 176 709 57 592 q 460 826 296 826 q 686 737 596 826 q 776 481 776 647 q 762 398 776 443 q 720 308 747 353 q 645 233 693 263 q 539 203 597 203 q 483 219 511 203 q 450 272 454 236 q 340 221 396 221 m 482 469 q 432 553 482 553 q 365 494 403 553 q 326 375 326 435 q 363 281 326 281 q 447 338 413 281 q 482 469 482 394 z "},"A":{"ha":786,"x_min":-21,"x_max":810,"o":"m 457 0 l 457 29 q 538 46 521 29 l 460 258 l 193 258 l 121 54 q 207 29 135 29 l 207 0 l -21 0 l -21 29 q 67 58 56 29 l 336 813 l 449 813 l 721 58 q 810 29 731 29 l 810 0 l 457 0 m 325 628 l 210 304 l 443 304 l 325 628 z "},"B":{"ha":832,"x_min":50,"x_max":793,"o":"m 50 0 l 50 29 q 138 57 125 29 l 138 756 q 50 783 125 783 l 50 813 l 382 813 q 644 756 556 813 q 732 621 732 699 q 574 425 732 474 q 735 347 676 400 q 793 238 793 294 q 709 66 793 132 q 460 0 625 0 l 50 0 m 314 765 l 314 443 l 378 443 q 511 486 478 443 q 544 619 544 529 q 333 765 544 765 l 314 765 m 314 403 l 314 47 l 411 47 q 606 236 606 47 q 557 352 606 301 q 394 403 508 403 l 314 403 z "},"C":{"ha":781,"x_min":50,"x_max":750,"o":"m 486 779 q 306 683 369 779 q 243 425 243 588 q 311 135 243 236 q 492 33 379 33 q 616 80 560 33 q 693 183 672 126 l 750 167 q 649 38 718 90 q 464 -14 581 -14 q 164 107 278 -14 q 50 394 50 228 q 181 707 50 588 q 485 826 311 826 q 585 806 525 826 q 653 785 644 785 q 669 813 669 785 l 701 813 l 713 617 l 682 617 q 610 726 674 674 q 486 779 546 779 z "},"D":{"ha":851,"x_min":50,"x_max":800,"o":"m 50 -1 l 50 28 q 138 56 125 28 l 138 754 q 50 782 125 782 l 50 811 l 369 811 q 678 698 557 811 q 800 407 800 585 q 681 113 800 228 q 386 -1 563 -1 l 50 -1 m 314 771 l 314 46 l 386 46 q 547 135 481 46 q 613 406 613 224 q 543 680 613 589 q 369 771 474 771 l 314 771 z "},"E":{"ha":699,"x_min":50,"x_max":686,"o":"m 50 0 l 50 29 q 138 57 125 29 l 138 756 q 50 783 125 783 l 50 813 l 624 813 l 624 678 l 594 678 q 567 765 594 753 l 314 765 l 314 446 l 474 446 q 501 533 501 458 l 531 533 l 531 311 l 501 311 q 474 399 501 386 l 314 399 l 314 47 l 596 47 q 658 135 631 63 l 686 135 l 653 0 l 50 0 z "},"F":{"ha":649,"x_min":50,"x_max":624,"o":"m 50 0 l 50 29 q 138 57 125 29 l 138 756 q 50 783 125 783 l 50 813 l 624 813 l 624 678 l 594 678 q 567 765 594 753 l 314 765 l 314 446 l 474 446 q 501 533 501 458 l 531 533 l 531 311 l 501 311 q 474 399 501 386 l 314 399 l 314 57 q 401 29 326 29 l 401 0 l 50 0 z "},"G":{"ha":865,"x_min":46,"x_max":853,"o":"m 503 779 q 313 669 386 779 q 239 397 239 558 q 310 122 239 210 q 483 33 382 33 q 589 46 542 33 l 589 344 q 501 372 576 372 l 501 401 l 853 401 l 853 372 q 765 344 778 372 l 765 111 q 667 27 742 68 q 481 -14 592 -14 q 169 108 293 -14 q 46 394 46 231 q 115 624 46 524 q 288 776 185 725 q 501 826 390 826 q 606 806 542 826 q 676 785 669 785 q 693 813 693 785 l 725 813 l 739 611 l 708 611 q 631 724 700 668 q 503 779 561 779 z "},"H":{"ha":935,"x_min":50,"x_max":885,"o":"m 50 0 l 50 29 q 138 57 125 29 l 138 756 q 50 783 125 783 l 50 813 l 401 813 l 401 783 q 314 756 326 783 l 314 446 l 621 446 l 621 756 q 533 783 608 783 l 533 813 l 885 813 l 885 783 q 797 756 810 783 l 797 57 q 885 29 810 29 l 885 0 l 533 0 l 533 29 q 621 57 608 29 l 621 399 l 314 399 l 314 57 q 401 29 326 29 l 401 0 l 50 0 z "},"I":{"ha":451,"x_min":50,"x_max":401,"o":"m 50 0 l 50 29 q 138 57 125 29 l 138 756 q 50 783 125 783 l 50 813 l 401 813 l 401 783 q 314 756 326 783 l 314 57 q 401 29 326 29 l 401 0 l 50 0 z "},"J":{"ha":589,"x_min":1,"x_max":563,"o":"m 475 303 q 410 64 475 142 q 210 -14 346 -14 q 56 26 111 -14 q 1 111 1 65 q 22 169 1 143 q 68 194 42 194 q 115 176 92 194 q 138 132 138 157 q 103 74 138 85 q 109 66 104 72 q 119 56 114 60 q 133 47 124 53 q 159 39 143 42 q 196 36 175 36 q 278 110 257 36 q 299 353 299 185 l 299 756 q 211 783 286 783 l 211 813 l 563 813 l 563 783 q 475 756 488 783 l 475 303 z "},"K":{"ha":871,"x_min":50,"x_max":903,"o":"m 50 0 l 50 29 q 138 57 125 29 l 138 756 q 50 783 125 783 l 50 813 l 399 813 l 399 783 q 311 756 324 783 l 311 57 q 399 29 324 29 l 399 0 l 50 0 m 583 0 l 583 29 q 635 33 617 29 l 318 436 l 658 774 q 588 783 639 783 l 588 813 l 806 813 l 806 783 q 783 783 793 783 q 765 779 774 782 q 751 775 757 776 q 740 769 746 774 q 733 764 735 765 q 725 757 731 763 l 719 751 l 467 503 l 815 51 q 903 29 833 29 l 903 0 l 583 0 z "},"L":{"ha":692,"x_min":50,"x_max":693,"o":"m 50 0 l 50 29 q 138 57 125 29 l 138 756 q 50 783 125 783 l 50 813 l 401 813 l 401 783 q 314 756 326 783 l 314 47 l 603 47 q 665 135 638 63 l 693 135 l 660 0 l 50 0 z "},"M":{"ha":1197,"x_min":50,"x_max":1147,"o":"m 50 0 l 50 29 q 138 57 125 29 l 138 756 q 50 783 125 783 l 50 813 l 301 813 l 597 167 l 893 813 l 1147 813 l 1147 783 q 1060 756 1072 783 l 1060 57 q 1147 29 1072 29 l 1147 0 l 796 0 l 796 29 q 883 57 871 29 l 883 681 l 572 0 l 503 0 l 185 689 l 185 57 q 272 29 197 29 l 272 0 l 50 0 z "},"N":{"ha":865,"x_min":50,"x_max":831,"o":"m 50 0 l 50 29 q 138 57 125 29 l 138 756 q 50 783 125 783 l 50 813 l 285 813 l 696 250 l 696 756 q 608 783 683 783 l 608 813 l 831 813 l 831 783 q 743 756 756 783 l 743 0 l 682 0 l 185 688 l 185 57 q 272 29 197 29 l 272 0 l 50 0 z "},"O":{"ha":922,"x_min":49,"x_max":874,"o":"m 236 417 q 256 240 236 322 q 331 96 276 158 q 467 33 385 33 q 574 66 529 33 q 642 154 618 99 q 676 269 665 210 q 686 394 686 328 q 665 571 686 488 q 590 717 644 654 q 456 779 536 779 q 349 746 393 779 q 281 657 304 713 q 247 542 257 601 q 236 417 236 483 m 169 110 q 109 173 169 110 q 49 406 49 235 q 169 701 49 576 q 461 826 290 826 q 753 701 632 826 q 874 406 874 576 q 752 110 874 235 q 461 -14 631 -14 q 169 110 289 -14 z "},"P":{"ha":785,"x_min":50,"x_max":769,"o":"m 50 0 l 50 29 q 138 57 125 29 l 138 756 q 50 783 125 783 l 50 813 l 419 813 q 680 747 590 813 q 769 601 769 682 q 686 433 769 497 q 436 369 603 369 l 314 369 l 314 57 q 401 29 326 29 l 401 0 l 50 0 m 314 765 l 314 417 l 388 417 q 538 459 494 417 q 582 600 582 501 q 371 765 582 765 l 314 765 z "},"Q":{"ha":922,"x_min":49,"x_max":892,"o":"m 169 110 q 109 173 169 110 q 49 406 49 235 q 169 701 49 576 q 461 826 290 826 q 753 701 632 826 q 874 406 874 576 q 815 192 874 290 q 658 39 756 94 q 669 11 661 32 q 681 -17 678 -10 q 692 -40 685 -25 q 705 -62 699 -56 q 719 -77 711 -68 q 738 -89 728 -86 q 760 -92 747 -92 q 821 -76 793 -92 q 860 -44 849 -60 l 871 -28 l 892 -43 q 887 -53 890 -47 q 872 -77 883 -60 q 846 -108 860 -94 q 808 -131 832 -121 q 760 -142 785 -142 q 617 -106 667 -142 q 535 -7 567 -69 q 461 -14 496 -14 q 169 110 289 -14 m 514 39 q 495 80 501 68 q 476 110 489 92 q 449 135 464 128 q 415 142 435 142 q 315 113 360 142 q 467 33 374 33 q 514 39 496 33 m 618 114 q 686 394 686 211 q 665 571 686 488 q 590 717 644 654 q 456 779 536 779 q 349 746 393 779 q 281 657 304 713 q 247 542 257 601 q 236 417 236 483 q 293 149 236 257 q 424 203 347 203 q 618 114 554 203 z "},"R":{"ha":818,"x_min":50,"x_max":836,"o":"m 50 0 l 50 29 q 138 57 125 29 l 138 756 q 50 783 125 783 l 50 813 l 392 813 q 653 750 564 813 q 742 607 742 688 q 696 473 742 531 q 560 389 650 415 l 744 58 q 836 29 758 29 l 836 0 l 776 0 q 615 13 667 0 q 536 72 563 25 l 368 369 l 314 369 l 314 57 q 401 29 326 29 l 401 0 l 50 0 m 314 765 l 314 417 l 360 417 q 504 459 454 417 q 554 606 554 501 q 498 726 554 686 q 343 765 442 765 l 314 765 z "},"S":{"ha":653,"x_min":64,"x_max":613,"o":"m 339 -14 q 200 7 271 -14 q 126 28 129 28 q 107 19 118 28 q 96 0 96 11 l 64 0 l 64 219 l 94 219 q 186 85 110 138 q 331 33 263 33 q 442 70 400 33 q 485 167 485 107 q 472 208 485 188 q 430 249 458 228 q 379 285 401 271 q 315 325 357 300 q 254 361 272 350 q 65 611 65 478 q 140 760 65 693 q 308 826 215 826 q 410 806 350 826 q 476 785 469 785 q 493 813 493 785 l 525 813 l 539 603 l 508 603 q 433 719 500 660 q 310 779 367 779 q 215 740 247 779 q 183 656 183 700 q 196 620 183 638 q 236 582 208 603 q 285 548 264 561 q 349 510 306 535 q 408 475 392 485 q 558 354 504 417 q 613 206 613 292 q 529 44 613 103 q 339 -14 446 -14 z "},"T":{"ha":754,"x_min":18,"x_max":736,"o":"m 18 813 l 736 813 l 736 678 l 707 678 q 658 765 707 744 l 465 765 l 465 57 q 553 29 478 29 l 553 0 l 201 0 l 201 29 q 289 57 276 29 l 289 765 l 96 765 q 47 678 47 744 l 18 678 l 18 813 z "},"U":{"ha":839,"x_min":25,"x_max":814,"o":"m 481 33 q 625 110 571 33 q 679 317 679 186 l 679 756 q 592 783 667 783 l 592 813 l 814 813 l 814 783 q 726 756 739 783 l 726 344 q 647 75 726 164 q 446 -14 567 -14 q 113 344 113 -14 l 113 756 q 25 783 100 783 l 25 813 l 376 813 l 376 783 q 289 756 301 783 l 289 325 q 338 108 289 183 q 481 33 386 33 z "},"V":{"ha":786,"x_min":-24,"x_max":807,"o":"m 665 758 q 579 783 651 783 l 579 813 l 807 813 l 807 783 q 719 754 731 783 l 450 0 l 338 0 l 65 754 q -24 783 56 783 l -24 813 l 329 813 l 329 783 q 249 767 265 783 l 461 185 l 665 758 z "},"W":{"ha":1246,"x_min":-24,"x_max":1268,"o":"m 790 813 l 790 783 q 710 767 726 783 l 922 185 l 1126 758 q 1040 783 1113 783 l 1040 813 l 1268 813 l 1268 783 q 1181 754 1192 783 l 911 0 l 796 0 l 622 485 l 450 0 l 335 0 l 65 754 q -24 783 56 783 l -24 813 l 329 813 l 329 783 q 249 767 265 783 l 461 186 l 594 563 l 526 754 q 438 783 517 783 l 438 813 l 790 813 z "},"X":{"ha":743,"x_min":-6,"x_max":761,"o":"m 347 813 l 347 783 q 267 767 282 783 l 408 518 l 575 763 q 492 783 561 783 l 492 813 l 719 813 l 719 783 q 631 756 649 783 l 436 471 l 672 58 q 761 29 688 29 l 761 0 l 408 0 l 408 29 q 489 46 474 29 l 333 319 l 149 49 q 232 29 164 29 l 232 0 l 4 0 l 4 29 q 93 56 76 29 l 306 367 l 83 756 q -6 783 67 783 l -6 813 l 347 813 z "},"Y":{"ha":811,"x_min":-22,"x_max":829,"o":"m 331 813 l 331 783 q 250 767 265 783 l 465 390 l 688 758 q 601 783 672 783 l 601 813 l 829 813 l 829 783 q 750 765 761 783 l 500 350 l 500 57 q 588 29 513 29 l 588 0 l 236 0 l 236 29 q 324 57 311 29 l 324 306 l 67 756 q -22 783 50 783 l -22 813 l 331 813 z "},"Z":{"ha":683,"x_min":19,"x_max":654,"o":"m 619 0 l 19 0 l 413 771 l 144 771 q 112 730 128 764 q 96 656 96 696 l 67 656 l 67 813 l 626 813 l 233 42 l 542 42 q 586 89 558 49 q 625 169 614 129 l 654 169 l 619 0 z "},"[":{"ha":385,"x_min":85,"x_max":357,"o":"m 244 804 l 244 -167 l 357 -167 l 357 -217 l 85 -217 l 85 854 l 357 854 l 357 804 l 244 804 z "},"\\":{"ha":658,"x_min":25,"x_max":633,"o":"m 633 -14 l 565 -39 l 25 825 l 93 850 l 633 -14 z "},"]":{"ha":385,"x_min":28,"x_max":300,"o":"m 140 -167 l 140 804 l 28 804 l 28 854 l 300 854 l 300 -217 l 28 -217 l 28 -167 l 140 -167 z "},"^":{"ha":633,"x_min":69,"x_max":564,"o":"m 335 761 l 564 489 l 517 428 l 317 667 l 117 428 l 69 489 l 297 761 l 335 761 z "},"_":{"ha":633,"x_min":64,"x_max":569,"o":"m 64 -69 l 569 -69 l 569 -131 l 64 -131 l 64 -69 z "},"`":{"ha":417,"x_min":83,"x_max":333,"o":"m 258 919 l 333 694 l 269 694 l 83 919 l 258 919 z "},"a":{"ha":699,"x_min":35,"x_max":722,"o":"m 181 508 q 213 451 213 508 q 189 415 213 428 q 139 403 165 403 q 90 422 111 403 q 68 472 68 442 q 138 584 68 543 q 321 625 208 625 q 526 559 453 625 q 600 392 600 493 l 600 117 q 615 51 600 72 q 650 31 629 31 q 683 40 668 31 q 697 64 697 50 l 722 64 q 569 -11 722 -11 q 460 39 499 -11 q 267 -14 376 -14 q 35 156 35 -14 q 59 218 35 190 q 133 265 83 246 q 223 296 183 285 q 332 322 263 307 q 426 343 401 336 q 405 524 426 474 q 307 575 383 575 q 224 556 261 575 q 181 508 188 538 m 440 72 q 426 156 426 110 l 426 313 q 271 253 308 276 q 213 153 213 214 q 240 61 213 89 q 301 33 267 33 q 440 72 363 33 z "},"b":{"ha":768,"x_min":-8,"x_max":726,"o":"m 79 778 q -8 783 4 783 l -8 815 q 119 845 18 815 q 253 875 221 875 l 253 592 q 408 631 317 631 q 483 622 444 631 q 567 590 522 613 q 646 531 611 567 q 703 438 681 496 q 726 308 726 381 q 624 71 726 156 q 378 -14 522 -14 q 224 31 285 -14 q 79 -14 113 -14 l 79 778 m 253 547 l 253 58 q 369 33 300 33 q 495 105 444 33 q 546 308 546 176 q 506 508 546 433 q 394 583 467 583 q 253 547 310 583 z "},"c":{"ha":668,"x_min":43,"x_max":632,"o":"m 381 583 q 269 517 315 583 q 224 342 224 451 q 274 128 224 218 q 404 39 324 39 q 581 139 521 39 l 632 114 q 527 17 592 47 q 357 -14 463 -14 q 275 -5 315 -14 q 192 29 235 4 q 117 92 149 54 q 64 192 85 129 q 43 336 43 256 q 135 540 43 456 q 367 625 226 625 q 548 587 479 625 q 617 478 617 549 q 599 421 617 443 q 547 399 582 399 q 494 415 514 399 q 474 457 474 431 q 488 500 474 486 q 522 514 503 514 q 381 583 504 583 z "},"d":{"ha":801,"x_min":43,"x_max":782,"o":"m 521 597 l 521 778 q 433 783 446 783 l 433 815 q 561 845 460 815 q 694 875 663 875 l 694 83 q 782 78 769 78 l 782 46 q 654 16 756 46 q 521 -14 553 -14 l 521 32 q 354 -14 454 -14 q 280 -5 318 -14 q 198 27 242 4 q 121 85 154 50 q 65 178 88 121 q 43 308 43 236 q 142 546 43 461 q 385 631 240 631 q 521 597 464 631 m 521 553 q 393 583 468 583 q 278 508 332 583 q 224 308 224 433 q 269 113 224 193 q 368 33 315 33 q 521 78 464 33 l 521 553 z "},"e":{"ha":696,"x_min":43,"x_max":663,"o":"m 224 335 q 278 126 226 214 q 411 39 331 39 q 606 131 532 39 l 639 114 q 534 17 599 47 q 364 -14 469 -14 q 258 2 310 -14 q 156 55 207 18 q 74 164 106 92 q 43 336 43 236 q 128 541 43 457 q 350 625 214 625 q 581 541 499 625 q 663 335 663 457 l 224 335 m 225 378 l 478 378 q 444 530 469 476 q 361 583 418 583 q 272 533 311 583 q 225 378 232 482 z "},"f":{"ha":418,"x_min":29,"x_max":493,"o":"m 493 793 q 438 731 493 731 q 390 747 404 731 q 377 782 376 763 q 370 817 378 801 q 340 833 363 833 q 290 678 290 833 l 290 611 l 397 611 l 397 569 l 290 569 l 290 57 q 378 29 303 29 l 378 0 l 29 0 l 29 29 q 117 57 104 29 l 117 569 l 47 569 l 47 611 l 117 611 l 117 658 q 174 824 117 772 q 326 875 232 875 q 451 850 408 875 q 493 793 493 825 z "},"g":{"ha":746,"x_min":44,"x_max":667,"o":"m 667 625 l 667 40 q 585 -188 667 -99 q 369 -278 504 -278 q 167 -244 242 -278 q 92 -156 92 -211 q 167 -67 92 -67 q 213 -86 194 -67 q 231 -132 231 -106 q 196 -190 231 -176 q 356 -228 233 -228 q 453 -173 419 -228 q 492 17 486 -118 q 349 -14 433 -14 q 255 1 303 -14 q 157 49 207 15 q 76 148 107 82 q 44 303 44 214 q 140 541 44 457 q 379 625 236 625 q 529 583 468 625 q 667 625 633 625 m 493 61 l 493 90 l 493 558 q 388 578 450 578 q 225 303 225 578 q 240 165 225 222 q 277 81 254 107 q 321 44 300 54 q 363 33 342 33 q 493 61 438 33 z "},"h":{"ha":828,"x_min":19,"x_max":813,"o":"m 19 0 l 19 29 q 107 57 94 29 l 107 778 q 19 783 32 783 l 19 815 q 147 845 46 815 q 281 875 249 875 l 281 571 q 446 625 364 625 q 654 581 583 625 q 725 433 725 536 l 725 57 q 813 29 738 29 l 813 0 l 464 0 l 464 29 q 551 57 539 29 l 551 400 q 523 537 551 496 q 438 578 494 578 q 281 528 354 578 l 281 57 q 368 29 293 29 l 368 0 l 19 0 z "},"i":{"ha":401,"x_min":33,"x_max":382,"o":"m 33 0 l 33 29 q 121 57 108 29 l 121 528 q 33 533 49 533 l 33 565 q 161 595 60 565 q 294 625 263 625 l 294 57 q 382 29 307 29 l 382 0 l 33 0 m 204 714 q 137 738 171 714 q 103 796 103 763 q 134 850 103 825 q 200 875 165 875 q 267 851 233 875 q 301 792 301 826 q 270 738 301 763 q 204 714 239 714 z "},"j":{"ha":358,"x_min":-122,"x_max":286,"o":"m 188 715 q 121 740 154 715 q 88 797 88 764 q 118 851 88 826 q 183 876 149 876 q 251 851 217 876 q 286 793 286 826 q 254 740 286 764 q 188 715 222 715 m 106 529 q 18 535 33 535 l 18 567 q 146 597 44 567 q 279 626 247 626 l 279 -60 q 211 -224 279 -171 q 58 -276 143 -276 q -122 -156 -122 -276 q -105 -105 -122 -126 q -56 -83 -87 -83 q -10 -105 -26 -83 q 6 -154 6 -126 q -8 -187 6 -174 q 44 -235 -8 -235 q 88 -194 71 -235 q 106 -79 106 -154 l 106 529 z "},"k":{"ha":764,"x_min":19,"x_max":789,"o":"m 19 0 l 19 29 q 107 57 94 29 l 107 778 q 19 783 32 783 l 19 815 q 147 845 46 815 q 281 875 249 875 l 281 57 q 368 29 293 29 l 368 0 l 19 0 m 469 0 l 469 29 q 522 33 503 29 l 290 353 l 536 574 q 468 582 515 582 l 468 611 l 686 611 l 686 582 q 611 564 632 582 l 443 414 l 701 56 q 789 29 721 29 l 789 0 l 469 0 z "},"l":{"ha":388,"x_min":19,"x_max":368,"o":"m 19 0 l 19 29 q 107 57 94 29 l 107 778 q 19 783 32 783 l 19 815 q 147 845 46 815 q 281 875 249 875 l 281 57 q 368 29 293 29 l 368 0 l 19 0 z "},"m":{"ha":1217,"x_min":33,"x_max":1210,"o":"m 33 0 l 33 29 q 121 57 108 29 l 121 528 q 33 533 46 533 l 33 565 q 161 595 60 565 q 294 625 263 625 l 294 576 q 438 625 351 625 q 681 547 622 625 q 851 625 743 625 q 1053 554 985 625 q 1122 308 1122 483 l 1122 57 q 1210 29 1135 29 l 1210 0 l 861 0 l 861 29 q 949 57 936 29 l 949 326 q 926 517 949 456 q 843 578 903 578 q 701 508 768 578 q 708 456 708 489 l 708 57 q 796 29 721 29 l 796 0 l 447 0 l 447 29 q 535 57 522 29 l 535 375 q 510 533 535 489 q 429 578 485 578 q 294 511 371 578 l 294 57 q 382 29 307 29 l 382 0 l 33 0 z "},"n":{"ha":829,"x_min":33,"x_max":815,"o":"m 33 0 l 33 29 q 121 57 108 29 l 121 528 q 33 533 46 533 l 33 565 q 161 595 60 565 q 294 625 263 625 l 294 567 q 447 625 364 625 q 654 576 581 625 q 728 428 728 526 l 728 57 q 815 29 740 29 l 815 0 l 467 0 l 467 29 q 554 57 542 29 l 554 438 q 526 539 554 500 q 439 578 497 578 q 294 522 353 578 l 294 57 q 382 29 307 29 l 382 0 l 33 0 z "},"o":{"ha":757,"x_min":43,"x_max":714,"o":"m 225 344 q 269 104 225 181 q 403 28 313 28 q 499 94 465 28 q 532 268 532 160 q 492 510 532 438 q 351 582 453 582 q 258 513 292 582 q 225 344 225 443 m 385 -14 q 135 78 228 -14 q 43 317 43 169 q 127 537 43 449 q 375 625 211 625 q 627 538 540 625 q 714 300 714 450 q 631 76 714 167 q 385 -14 547 -14 z "},"p":{"ha":796,"x_min":19,"x_max":751,"o":"m 19 -267 l 19 -237 q 107 -210 94 -237 l 107 526 q 19 533 107 526 l 19 565 q 147 595 46 565 q 281 625 249 625 l 281 588 q 433 625 343 625 q 550 610 497 625 q 650 560 603 594 q 724 459 697 525 q 751 303 751 393 q 660 66 751 146 q 403 -14 569 -14 q 281 10 332 -14 l 281 -210 q 368 -237 293 -237 l 368 -267 l 19 -267 m 281 543 l 281 54 q 394 33 331 33 q 520 103 469 33 q 571 303 571 174 q 554 417 571 356 q 501 528 538 479 q 419 578 465 578 q 281 543 335 578 z "},"q":{"ha":761,"x_min":42,"x_max":769,"o":"m 421 -267 l 421 -237 q 508 -210 496 -237 l 508 19 q 360 -14 449 -14 q 264 1 314 -14 q 161 49 214 15 q 75 148 108 82 q 42 303 42 214 q 144 540 42 456 q 390 625 246 625 q 542 583 481 625 q 682 625 646 625 l 682 -210 q 769 -237 694 -237 l 769 -267 l 421 -267 m 508 64 l 508 557 q 399 578 458 578 q 273 506 324 578 q 222 303 222 435 q 262 106 222 178 q 374 33 301 33 q 508 64 453 33 z "},"r":{"ha":606,"x_min":33,"x_max":604,"o":"m 33 0 l 33 29 q 121 57 108 29 l 121 528 q 33 533 46 533 l 33 565 q 161 595 60 565 q 294 625 263 625 l 294 567 q 432 625 367 625 q 604 542 604 625 q 584 489 604 508 q 535 469 564 469 q 486 486 503 469 q 465 524 469 503 q 449 561 461 544 q 415 578 438 578 q 294 519 363 578 l 294 57 q 382 29 307 29 l 382 0 l 33 0 z "},"s":{"ha":551,"x_min":53,"x_max":508,"o":"m 286 42 q 381 128 381 42 q 347 174 381 151 q 267 220 314 197 q 172 272 219 243 q 92 349 125 301 q 58 457 58 397 q 117 580 58 535 q 258 625 176 625 q 356 604 306 625 q 413 583 406 583 q 429 611 429 583 l 461 611 l 475 408 l 444 408 q 373 522 431 467 q 263 578 315 578 q 164 506 164 578 q 218 448 164 481 q 336 385 272 415 q 454 297 400 354 q 508 172 508 240 q 443 36 508 86 q 275 -14 378 -14 q 174 7 225 -14 q 117 28 122 28 q 100 0 100 28 l 67 0 l 53 213 l 83 213 q 167 99 97 157 q 286 42 238 42 z "},"t":{"ha":492,"x_min":10,"x_max":481,"o":"m 289 813 l 289 611 l 408 611 l 408 569 l 289 569 l 289 128 q 304 62 289 85 q 361 39 319 39 q 412 63 386 39 q 447 131 438 88 l 481 114 q 314 -14 451 -14 q 156 35 206 -14 q 107 197 107 85 l 107 569 l 10 569 l 10 611 q 153 673 92 611 q 214 813 214 735 l 289 813 z "},"u":{"ha":792,"x_min":14,"x_max":772,"o":"m 685 83 q 772 78 760 78 l 772 46 q 644 16 746 46 q 511 -14 543 -14 l 511 26 q 369 -14 440 -14 q 101 183 101 -14 l 101 554 q 14 582 89 582 l 14 611 l 275 611 l 275 174 q 276 128 275 144 q 282 92 276 113 q 298 60 288 71 q 328 41 308 49 q 378 33 349 33 q 511 71 446 33 l 511 554 q 424 582 499 582 l 424 611 l 685 611 l 685 83 z "},"v":{"ha":700,"x_min":-17,"x_max":717,"o":"m 292 0 l 71 554 q -17 582 58 582 l -17 611 l 301 611 l 301 582 q 243 576 261 582 l 408 169 l 567 567 q 489 582 547 582 l 489 611 l 717 611 l 717 582 q 629 554 640 582 l 408 0 l 292 0 z "},"w":{"ha":1133,"x_min":-17,"x_max":1150,"o":"m 725 0 l 567 397 l 408 0 l 292 0 l 71 554 q -17 582 58 582 l -17 611 l 301 611 l 301 582 q 243 576 261 582 l 408 169 l 533 482 l 504 554 q 417 582 492 582 l 417 611 l 735 611 l 735 582 q 676 576 694 582 l 842 169 l 1000 567 q 922 582 981 582 l 922 611 l 1150 611 l 1150 582 q 1065 560 1079 582 l 842 0 l 725 0 z "},"x":{"ha":674,"x_min":1,"x_max":686,"o":"m 640 611 l 640 582 q 547 556 565 582 l 406 368 l 604 49 q 686 29 617 29 l 686 0 l 368 0 l 368 29 q 421 33 403 29 l 300 228 l 158 38 q 225 29 178 29 l 225 0 l 1 0 l 1 29 q 96 57 76 29 l 265 283 l 92 563 q 11 582 79 582 l 11 611 l 329 611 l 329 582 q 275 578 296 582 l 371 424 l 483 574 q 417 582 464 582 l 417 611 l 640 611 z "},"y":{"ha":700,"x_min":-17,"x_max":717,"o":"m 301 611 l 301 582 q 243 576 261 582 l 408 169 l 567 567 q 489 582 547 582 l 489 611 l 717 611 l 717 582 q 632 560 642 582 l 351 -142 q 206 -256 306 -256 q 104 -189 104 -256 q 120 -149 104 -164 q 165 -133 136 -133 q 204 -154 188 -133 q 242 -175 221 -175 q 281 -150 271 -175 l 317 -61 l 71 554 q -17 582 58 582 l -17 611 l 301 611 z "},"z":{"ha":575,"x_min":17,"x_max":542,"o":"m 531 0 l 17 0 l 339 569 l 139 569 q 106 536 121 561 q 90 472 90 511 l 61 472 l 61 611 l 542 611 l 219 42 l 453 42 q 486 76 471 49 q 501 143 501 103 l 531 143 l 531 0 z "},"{":{"ha":382,"x_min":19,"x_max":349,"o":"m 111 -85 q 117 69 111 -49 q 124 208 124 186 q 99 273 124 256 q 19 290 74 290 l 19 322 q 98 340 72 322 q 124 406 124 358 q 117 544 124 428 q 111 697 111 661 q 171 788 111 750 q 349 825 231 825 l 349 793 q 276 776 297 793 q 256 710 256 758 q 263 571 256 688 q 271 418 271 454 q 232 357 271 388 q 139 307 193 326 q 232 257 193 288 q 271 196 271 226 q 263 42 271 160 q 256 -97 256 -75 q 276 -162 256 -146 q 349 -179 297 -179 l 349 -212 q 171 -175 231 -212 q 111 -85 111 -137 z "},"|":{"ha":246,"x_min":88,"x_max":158,"o":"m 88 903 l 158 903 l 158 -42 l 88 -42 l 88 903 z "},"}":{"ha":382,"x_min":33,"x_max":363,"o":"m 271 -85 q 211 -175 271 -137 q 33 -212 151 -212 l 33 -179 q 106 -162 85 -179 q 126 -97 126 -146 q 119 42 126 -75 q 111 196 111 160 q 150 257 111 226 q 243 307 189 288 q 150 357 189 326 q 111 418 111 388 q 119 571 111 454 q 126 710 126 688 q 106 776 126 758 q 33 793 85 793 l 33 825 q 211 788 151 825 q 271 697 271 750 q 265 544 271 661 q 258 406 258 428 q 283 340 258 358 q 363 322 308 322 l 363 290 q 283 273 308 290 q 258 208 258 256 q 265 69 258 186 q 271 -85 271 -49 z "},"~":{"ha":735,"x_min":72,"x_max":668,"o":"m 525 289 q 355 330 485 289 q 200 371 225 371 q 127 353 146 371 q 108 289 108 336 l 72 289 q 214 472 72 472 q 385 431 254 472 q 540 390 515 390 q 613 408 594 390 q 632 472 632 425 l 668 472 q 525 289 668 289 z "}," ":{"ha":333,"x_min":0,"x_max":0,"o":""},"¡":{"ha":326,"x_min":67,"x_max":258,"o":"m 258 650 q 230 585 258 610 q 164 561 201 561 q 99 584 131 561 q 67 646 67 607 q 96 711 67 686 q 163 736 125 736 q 227 713 196 736 q 258 650 258 689 m 108 297 q 164 436 128 436 q 219 297 200 436 q 256 -58 256 44 q 227 -129 256 -106 q 164 -153 199 -153 q 101 -129 129 -153 q 72 -58 72 -106 q 88 126 72 -8 q 108 297 103 260 z "},"¢":{"ha":656,"x_min":43,"x_max":618,"o":"m 404 799 l 468 786 l 439 618 q 582 478 582 592 q 565 427 582 446 q 522 408 549 408 q 478 421 497 408 q 460 457 460 433 q 474 500 460 486 q 508 514 489 514 q 432 578 494 564 l 339 50 q 390 39 364 39 q 585 131 511 39 l 618 114 q 513 17 578 47 q 343 -14 449 -14 l 328 -14 l 299 -178 l 233 -165 l 263 -4 q 106 100 168 18 q 43 336 43 182 q 128 541 43 457 q 353 625 214 625 l 374 625 l 404 799 m 281 97 l 367 583 q 210 342 210 583 q 281 97 210 188 z "},"£":{"ha":738,"x_min":39,"x_max":699,"o":"m 475 121 q 580 130 536 121 q 641 151 624 139 q 670 172 658 163 q 685 181 682 181 q 699 164 699 181 q 692 140 699 157 q 669 96 686 122 q 628 46 651 69 q 566 6 606 22 q 481 -11 526 -11 q 318 54 396 -11 q 178 -14 257 -14 q 74 24 110 -14 q 39 114 39 61 q 77 189 39 153 q 156 225 115 225 q 225 213 188 225 q 215 338 225 254 q 203 479 204 421 l 122 479 l 122 540 l 204 540 q 415 826 215 826 q 565 794 507 826 q 624 706 624 763 q 605 665 624 681 q 564 650 586 650 q 526 665 542 650 q 510 704 510 681 q 524 738 510 724 q 499 772 524 760 q 444 785 474 785 q 392 733 406 785 q 376 540 378 682 l 489 540 l 489 479 l 378 479 q 385 372 379 446 q 390 247 390 297 q 371 140 390 192 q 475 121 422 121 m 224 144 q 156 178 186 178 q 108 158 129 178 q 86 113 86 139 q 110 56 86 78 q 172 33 135 33 q 224 144 217 33 z "},"¤":{"ha":699,"x_min":68,"x_max":629,"o":"m 210 504 q 181 475 210 504 q 151 364 151 446 q 210 224 151 282 q 350 165 268 165 q 490 224 432 165 q 549 364 549 282 q 490 504 549 446 q 350 563 432 563 q 210 504 268 563 m 143 204 q 89 364 89 276 q 146 526 89 454 l 68 603 l 113 647 l 189 569 q 350 625 260 625 q 510 571 438 625 l 585 647 l 629 603 l 554 528 q 611 364 611 458 q 556 203 611 274 l 629 131 l 585 86 l 513 160 q 350 103 440 103 q 186 160 256 103 l 113 86 l 68 131 l 143 204 z "},"¥":{"ha":776,"x_min":31,"x_max":743,"o":"m 253 0 l 253 29 q 340 57 328 29 l 340 106 l 219 106 l 219 167 l 340 167 l 340 199 l 322 244 l 219 244 l 219 306 l 297 306 l 118 756 q 31 783 106 783 l 31 813 l 349 813 l 349 783 q 290 778 308 783 l 446 396 l 593 768 q 515 783 574 783 l 515 813 l 743 813 l 743 783 q 657 757 667 783 l 476 306 l 586 306 l 586 244 l 468 244 l 468 167 l 586 167 l 586 106 l 468 106 l 468 57 q 556 29 481 29 l 556 0 l 253 0 z "},"¦":{"ha":254,"x_min":92,"x_max":163,"o":"m 92 903 l 163 903 l 163 503 l 92 503 l 92 903 m 92 358 l 163 358 l 163 -42 l 92 -42 l 92 358 z "},"§":{"ha":558,"x_min":50,"x_max":508,"o":"m 425 636 q 390 651 406 636 q 375 686 375 667 q 353 764 375 728 q 293 800 331 800 q 231 783 250 800 q 213 717 213 767 q 259 632 213 689 q 360 519 306 575 q 462 394 415 463 q 508 275 508 325 q 379 61 508 110 q 472 -117 472 -42 q 412 -224 472 -186 q 254 -261 351 -261 q 139 -212 192 -261 q 86 -125 86 -162 q 99 -86 86 -103 q 133 -69 111 -69 q 168 -85 153 -69 q 183 -119 183 -100 q 206 -197 183 -161 q 265 -233 228 -233 q 327 -217 308 -233 q 346 -150 346 -200 q 299 -65 346 -122 q 198 48 253 -8 q 97 173 143 104 q 50 292 50 242 q 179 506 50 457 q 86 683 86 608 q 147 790 86 753 q 304 828 207 828 q 419 778 367 828 q 472 692 472 729 q 460 653 472 669 q 425 636 447 636 m 340 103 q 390 194 390 131 q 364 288 390 239 q 310 367 338 336 q 233 449 283 397 q 218 464 224 458 q 168 372 168 436 q 194 279 168 328 q 248 200 221 231 q 325 118 275 169 q 340 103 335 108 z "},"¨":{"ha":558,"x_min":65,"x_max":493,"o":"m 354 719 q 342 731 354 719 q 331 776 331 743 q 354 834 331 810 q 411 858 378 858 q 469 834 444 858 q 493 776 493 810 q 469 719 493 743 q 411 694 444 694 q 354 719 378 694 m 90 719 q 77 731 90 719 q 65 776 65 743 q 90 834 65 810 q 147 858 114 858 q 204 834 181 858 q 228 776 228 810 q 204 719 228 743 q 147 694 181 694 q 90 719 114 694 z "},"©":{"ha":883,"x_min":58,"x_max":825,"o":"m 197 617 q 147 566 197 617 q 96 372 96 515 q 197 128 96 229 q 442 26 299 26 q 686 128 585 26 q 788 372 788 229 q 686 617 788 515 q 442 718 585 718 q 197 617 299 718 m 171 101 q 115 158 171 101 q 58 372 58 214 q 171 643 58 531 q 442 756 283 756 q 713 643 600 756 q 825 372 825 531 q 713 101 825 214 q 442 -11 600 -11 q 171 101 283 -11 m 469 549 q 382 506 413 549 q 351 388 351 464 q 385 252 351 296 q 471 208 418 208 q 567 281 539 208 l 610 263 q 457 161 571 161 q 297 219 356 161 q 238 372 238 276 q 306 542 238 488 q 468 596 374 596 q 503 591 486 596 q 532 581 521 586 q 544 575 543 575 q 546 589 546 575 l 576 589 l 585 471 l 557 471 q 542 509 550 494 q 516 536 535 524 q 469 549 497 549 z "},"ª":{"ha":558,"x_min":78,"x_max":490,"o":"m 78 215 l 490 215 l 490 179 l 78 179 l 78 215 m 165 579 q 185 547 185 579 q 140 521 185 521 q 111 531 124 521 q 99 558 99 542 q 141 620 99 597 q 250 643 183 643 q 374 607 329 643 q 418 515 418 571 l 418 364 q 447 317 418 317 q 476 335 476 317 l 490 335 q 399 293 490 293 q 333 321 357 293 q 218 292 281 292 q 78 385 78 292 q 92 419 78 404 q 137 445 107 435 q 191 462 167 456 q 257 476 215 468 q 314 488 299 483 q 301 587 314 558 q 242 615 288 615 q 165 579 175 615 m 322 339 q 314 385 314 358 l 314 471 q 206 428 228 447 q 185 383 185 410 q 201 333 185 349 q 239 318 218 318 q 322 339 278 318 z "},"«":{"ha":610,"x_min":46,"x_max":533,"o":"m 292 460 l 533 613 l 533 554 l 394 415 l 533 276 l 533 218 l 292 371 q 268 415 268 386 q 292 460 268 446 m 69 460 l 311 613 l 311 554 l 172 415 l 311 276 l 311 218 l 69 371 q 46 415 46 386 q 69 460 46 446 z "},"¬":{"ha":578,"x_min":85,"x_max":490,"o":"m 432 411 l 85 411 l 85 472 l 490 472 l 490 289 l 432 289 l 432 411 z "},"­":{"ha":517,"x_min":75,"x_max":442,"o":"m 75 472 l 442 472 l 442 411 l 75 411 l 75 472 z "},"®":{"ha":883,"x_min":58,"x_max":825,"o":"m 197 617 q 147 566 197 617 q 96 372 96 515 q 197 128 96 229 q 442 26 299 26 q 686 128 585 26 q 788 372 788 229 q 686 617 788 515 q 442 718 585 718 q 197 617 299 718 m 171 101 q 115 158 171 101 q 58 372 58 214 q 171 643 58 531 q 442 756 283 756 q 713 643 600 756 q 825 372 825 531 q 713 101 825 214 q 442 -11 600 -11 q 171 101 283 -11 m 247 169 l 247 197 q 290 207 283 197 l 290 553 q 247 561 286 561 l 247 589 l 422 589 q 563 556 513 589 q 614 481 614 522 q 526 367 614 397 l 615 208 q 650 197 619 197 l 650 169 l 614 169 q 540 177 563 169 q 504 210 518 185 l 422 354 l 390 354 l 390 207 q 433 197 394 197 l 433 169 l 247 169 m 390 553 l 390 392 l 419 392 q 508 479 508 392 q 482 533 508 513 q 411 553 456 553 l 390 553 z "},"¯":{"ha":533,"x_min":83,"x_max":450,"o":"m 83 789 l 450 789 l 450 714 l 83 714 l 83 789 z "},"°":{"ha":411,"x_min":47,"x_max":364,"o":"m 134 788 q 119 773 134 788 q 104 717 104 758 q 134 646 104 675 q 206 617 164 617 q 277 646 247 617 q 307 717 307 675 q 277 788 307 758 q 206 818 247 818 q 134 788 164 818 m 94 606 q 70 630 94 606 q 47 717 47 653 q 94 828 47 781 q 206 875 142 875 q 317 828 269 875 q 364 717 364 781 q 317 606 364 653 q 206 560 271 560 q 94 606 140 560 z "},"±":{"ha":567,"x_min":85,"x_max":482,"o":"m 85 247 l 482 247 l 482 186 l 85 186 l 85 247 m 314 483 l 314 343 l 253 343 l 253 483 l 85 483 l 85 544 l 253 544 l 253 685 l 314 685 l 314 544 l 482 544 l 482 483 l 314 483 z "},"²":{"ha":489,"x_min":44,"x_max":443,"o":"m 360 481 q 413 526 401 497 l 443 526 l 404 389 l 44 389 l 44 396 q 84 453 44 413 q 172 539 124 494 q 259 646 219 583 q 299 761 299 708 q 279 823 299 799 q 225 847 260 847 q 145 833 176 847 q 104 803 114 819 q 85 772 94 786 q 68 758 76 758 q 54 774 54 758 q 102 863 54 810 q 236 917 150 917 q 373 878 329 917 q 417 774 417 840 q 385 688 417 736 q 315 602 353 639 q 236 528 276 565 q 188 481 196 492 l 360 481 z "},"³":{"ha":481,"x_min":46,"x_max":426,"o":"m 206 639 q 188 644 196 639 q 181 657 181 650 q 192 669 181 669 q 232 683 219 678 q 263 699 244 688 q 288 727 281 710 q 294 769 294 744 q 274 826 294 806 q 214 847 253 847 q 149 835 174 847 q 116 810 124 824 q 101 785 108 797 q 85 774 93 774 q 71 790 71 774 q 112 870 71 824 q 225 917 153 917 q 401 782 401 917 q 333 682 401 722 q 401 632 375 665 q 426 558 426 599 q 383 431 426 478 q 228 383 339 383 q 132 400 176 383 q 67 435 88 417 q 46 467 46 454 q 54 511 46 499 q 85 524 63 524 q 110 508 100 524 q 128 474 121 493 q 158 440 135 456 q 222 425 182 425 q 296 461 269 425 q 322 539 322 497 q 302 609 322 574 q 251 644 282 644 q 227 642 240 644 q 206 639 214 639 z "},"´":{"ha":417,"x_min":40,"x_max":290,"o":"m 115 919 l 290 919 l 104 694 l 40 694 l 115 919 z "},"µ":{"ha":849,"x_min":103,"x_max":817,"o":"m 694 611 l 694 115 q 709 49 694 71 q 744 28 724 28 q 777 38 763 28 q 792 63 792 49 l 817 63 q 665 -14 817 -14 q 542 57 578 -14 q 385 -14 479 -14 q 161 51 236 -14 l 161 -46 q 176 -111 161 -86 q 207 -145 190 -136 q 238 -172 224 -154 q 253 -215 253 -189 q 232 -262 253 -246 q 183 -278 211 -278 q 128 -256 154 -278 q 103 -186 103 -235 l 103 611 l 276 611 l 276 174 q 404 33 276 33 q 526 96 472 33 q 521 154 521 118 l 521 611 l 694 611 z "},"¶":{"ha":738,"x_min":40,"x_max":676,"o":"m 175 0 l 175 29 q 263 57 250 29 l 263 372 q 99 442 157 382 q 40 592 40 501 q 56 666 40 629 q 106 737 72 703 q 201 792 139 771 q 343 813 263 813 l 676 813 l 676 783 q 589 756 601 783 l 589 57 q 676 29 601 29 l 676 0 l 461 0 l 461 765 l 390 765 l 390 0 l 175 0 z "},"·":{"ha":319,"x_min":64,"x_max":256,"o":"m 64 419 q 92 484 64 460 q 158 508 121 508 q 224 485 192 508 q 256 424 256 463 q 226 358 256 383 q 160 333 197 333 q 95 357 126 333 q 64 419 64 381 z "},"¸":{"ha":422,"x_min":83,"x_max":353,"o":"m 165 17 l 232 17 l 207 -76 q 264 -84 233 -76 q 324 -115 294 -92 q 353 -169 353 -137 q 313 -244 353 -211 q 186 -276 272 -276 q 83 -267 140 -276 l 83 -243 q 118 -246 108 -246 q 211 -181 211 -246 q 126 -119 211 -119 l 165 17 z "},"¹":{"ha":338,"x_min":49,"x_max":288,"o":"m 49 706 q 196 910 167 910 l 228 910 l 228 435 q 288 421 235 421 l 288 389 l 57 389 l 57 421 q 115 435 107 421 l 115 736 q 72 693 106 731 l 49 706 z "},"º":{"ha":553,"x_min":75,"x_max":478,"o":"m 75 215 l 478 215 l 478 179 l 75 179 l 75 215 m 185 489 q 292 314 185 314 q 349 351 329 314 q 369 447 369 388 q 346 580 369 540 q 261 619 322 619 q 205 581 225 619 q 185 489 185 543 m 281 292 q 131 342 186 292 q 75 474 75 392 q 126 595 75 547 q 275 643 176 643 q 426 594 374 643 q 478 464 478 546 q 428 341 478 390 q 281 292 378 292 z "},"»":{"ha":610,"x_min":76,"x_max":564,"o":"m 540 371 l 299 218 l 299 276 l 438 415 l 299 554 l 299 613 l 540 460 q 564 415 564 444 q 540 371 564 385 m 318 371 l 76 218 l 76 276 l 215 415 l 76 554 l 76 613 l 318 460 q 342 415 342 444 q 318 371 342 385 z "},"¼":{"ha":906,"x_min":42,"x_max":864,"o":"m 42 706 q 189 910 160 910 l 221 910 l 221 435 q 281 421 228 421 l 281 389 l 50 389 l 50 421 q 108 435 100 421 l 108 736 q 65 693 99 731 l 42 706 m 801 521 l 801 186 l 864 186 l 864 146 l 801 146 l 801 46 q 860 32 810 32 l 860 0 l 632 0 l 632 32 q 690 46 683 32 l 690 146 l 467 146 l 729 521 l 801 521 m 690 186 l 690 394 l 544 186 l 690 186 m 135 -14 l 675 850 l 743 825 l 203 -39 l 135 -14 z "},"½":{"ha":943,"x_min":46,"x_max":904,"o":"m 46 706 q 193 910 164 910 l 225 910 l 225 435 q 285 421 232 421 l 285 389 l 54 389 l 54 421 q 113 435 104 421 l 113 736 q 69 693 103 731 l 46 706 m 821 92 q 874 138 863 108 l 904 138 l 865 0 l 506 0 l 506 7 q 545 65 506 24 q 633 150 585 106 q 720 257 681 194 q 760 372 760 319 q 740 434 760 410 q 686 458 721 458 q 606 444 638 458 q 565 414 575 431 q 547 383 556 397 q 529 369 538 369 q 515 385 515 369 q 563 474 515 421 q 697 528 611 528 q 834 490 790 528 q 878 385 878 451 q 846 299 878 347 q 776 213 814 250 q 697 140 738 176 q 649 92 657 103 l 821 92 m 106 -14 l 646 850 l 714 825 l 174 -39 l 106 -14 z "},"¾":{"ha":958,"x_min":39,"x_max":911,"o":"m 199 639 q 181 644 189 639 q 174 657 174 650 q 185 669 174 669 q 225 683 213 678 q 256 699 238 688 q 281 727 274 710 q 288 769 288 744 q 267 826 288 806 q 207 847 246 847 q 142 835 167 847 q 109 810 117 824 q 94 785 101 797 q 78 774 86 774 q 64 790 64 774 q 105 870 64 824 q 218 917 146 917 q 394 782 394 917 q 326 682 394 722 q 394 632 368 665 q 419 558 419 599 q 376 431 419 478 q 221 383 332 383 q 125 400 169 383 q 60 435 81 417 q 39 467 39 454 q 47 511 39 499 q 78 524 56 524 q 103 508 93 524 q 121 474 114 493 q 151 440 128 456 q 215 425 175 425 q 289 461 263 425 q 315 539 315 497 q 295 609 315 574 q 244 644 275 644 q 220 642 233 644 q 199 639 207 639 m 849 521 l 849 186 l 911 186 l 911 146 l 849 146 l 849 46 q 907 32 857 32 l 907 0 l 679 0 l 679 32 q 738 46 731 32 l 738 146 l 514 146 l 776 521 l 849 521 m 738 186 l 738 394 l 592 186 l 738 186 m 196 -14 l 736 850 l 804 825 l 264 -39 l 196 -14 z "},"¿":{"ha":592,"x_min":42,"x_max":553,"o":"m 421 650 q 392 585 421 610 q 326 561 364 561 q 261 584 293 561 q 229 646 229 607 q 258 711 229 686 q 325 736 288 736 q 390 713 358 736 q 421 650 421 689 m 354 444 q 333 348 354 393 q 285 272 311 303 q 237 185 258 242 q 215 56 215 128 q 247 -65 215 -18 q 333 -111 279 -111 q 410 -81 385 -111 q 435 -12 435 -50 q 424 23 435 4 q 414 57 414 42 q 433 99 414 81 q 481 118 453 118 q 534 95 515 118 q 553 33 553 72 q 490 -94 553 -36 q 319 -153 426 -153 q 113 -94 183 -153 q 42 63 42 -36 q 69 166 42 117 q 135 251 96 215 q 212 319 174 288 q 277 383 250 350 q 304 444 304 415 q 314 458 304 451 q 329 464 324 464 q 344 458 335 464 q 354 444 354 451 z "},"À":{"ha":786,"x_min":-21,"x_max":810,"o":"m 356 1086 l 431 861 l 367 861 l 181 1086 l 356 1086 m 457 0 l 457 29 q 538 46 521 29 l 460 258 l 193 258 l 121 54 q 207 29 135 29 l 207 0 l -21 0 l -21 29 q 67 58 56 29 l 336 813 l 449 813 l 721 58 q 810 29 731 29 l 810 0 l 457 0 m 325 628 l 210 304 l 443 304 l 325 628 z "},"Á":{"ha":786,"x_min":-21,"x_max":810,"o":"m 408 1086 l 583 1086 l 397 861 l 333 861 l 408 1086 m 457 0 l 457 29 q 538 46 521 29 l 460 258 l 193 258 l 121 54 q 207 29 135 29 l 207 0 l -21 0 l -21 29 q 67 58 56 29 l 336 813 l 449 813 l 721 58 q 810 29 731 29 l 810 0 l 457 0 m 325 628 l 210 304 l 443 304 l 325 628 z "},"Â":{"ha":786,"x_min":-21,"x_max":810,"o":"m 429 1086 l 560 861 l 510 861 l 394 954 l 279 861 l 229 861 l 360 1086 l 429 1086 m 457 0 l 457 29 q 538 46 521 29 l 460 258 l 193 258 l 121 54 q 207 29 135 29 l 207 0 l -21 0 l -21 29 q 67 58 56 29 l 336 813 l 449 813 l 721 58 q 810 29 731 29 l 810 0 l 457 0 m 325 628 l 210 304 l 443 304 l 325 628 z "},"Ã":{"ha":786,"x_min":-21,"x_max":810,"o":"m 499 847 q 385 888 468 847 q 283 929 303 929 q 228 915 242 929 q 214 861 214 900 l 188 861 q 217 991 188 951 q 293 1031 247 1031 q 407 990 324 1031 q 510 949 490 949 q 565 963 551 949 q 579 1017 579 978 l 606 1017 q 575 887 606 926 q 499 847 544 847 m 457 0 l 457 29 q 538 46 521 29 l 460 258 l 193 258 l 121 54 q 207 29 135 29 l 207 0 l -21 0 l -21 29 q 67 58 56 29 l 336 813 l 449 813 l 721 58 q 810 29 731 29 l 810 0 l 457 0 m 325 628 l 210 304 l 443 304 l 325 628 z "},"Ä":{"ha":786,"x_min":-21,"x_max":810,"o":"m 469 885 q 458 898 469 885 q 446 943 446 910 q 469 1001 446 976 q 526 1025 493 1025 q 584 1001 560 1025 q 608 943 608 976 q 584 885 608 910 q 526 861 560 861 q 469 885 493 861 m 205 885 q 193 898 205 885 q 181 943 181 910 q 205 1001 181 976 q 263 1025 229 1025 q 319 1001 296 1025 q 343 943 343 976 q 319 885 343 910 q 263 861 296 861 q 205 885 229 861 m 457 0 l 457 29 q 538 46 521 29 l 460 258 l 193 258 l 121 54 q 207 29 135 29 l 207 0 l -21 0 l -21 29 q 67 58 56 29 l 336 813 l 449 813 l 721 58 q 810 29 731 29 l 810 0 l 457 0 m 325 628 l 210 304 l 443 304 l 325 628 z "},"Å":{"ha":786,"x_min":-21,"x_max":810,"o":"m 353 998 q 345 989 353 998 q 336 957 336 981 q 353 916 336 933 q 394 899 371 899 q 435 916 418 899 q 453 957 453 933 q 435 998 453 981 q 394 1015 418 1015 q 353 998 371 1015 m 321 884 q 306 899 321 884 q 292 957 292 914 q 321 1030 292 1000 q 394 1060 350 1060 q 468 1030 439 1060 q 497 957 497 1000 q 468 884 497 914 q 394 854 439 854 q 321 884 350 854 m 457 0 l 457 29 q 538 46 521 29 l 460 258 l 193 258 l 121 54 q 207 29 135 29 l 207 0 l -21 0 l -21 29 q 67 58 56 29 l 336 813 l 449 813 l 721 58 q 810 29 731 29 l 810 0 l 457 0 m 325 628 l 210 304 l 443 304 l 325 628 z "},"Æ":{"ha":1031,"x_min":-40,"x_max":1018,"o":"m -40 0 l -40 29 q 47 58 35 29 l 47 57 l 446 768 q 367 783 429 783 l 367 813 l 956 813 l 956 678 l 926 678 q 899 765 926 753 l 660 765 l 660 446 l 806 446 q 833 533 833 458 l 863 533 l 863 311 l 833 311 q 806 399 833 386 l 660 399 l 660 47 l 928 47 q 990 135 963 63 l 1018 135 l 985 0 l 396 0 l 396 29 q 483 57 471 29 l 483 258 l 215 258 l 101 54 q 188 29 115 29 l 188 0 l 82 0 q 96 44 89 24 l 71 0 l -40 0 m 242 304 l 483 304 l 483 736 l 242 304 z "},"Ç":{"ha":781,"x_min":50,"x_max":750,"o":"m 486 779 l 486 778 q 306 682 369 778 q 243 424 243 586 q 311 133 243 235 q 492 32 379 32 q 616 78 560 32 q 693 182 672 125 l 750 165 q 661 47 721 97 q 504 -12 601 -3 l 488 -76 q 544 -84 514 -76 q 604 -115 575 -92 q 633 -169 633 -137 q 593 -244 633 -211 q 467 -276 553 -276 q 364 -267 421 -276 l 364 -243 q 399 -246 389 -246 q 492 -181 492 -246 q 407 -119 492 -119 l 438 -12 q 156 116 261 -3 q 50 394 50 235 q 181 707 50 588 q 485 826 311 826 q 585 806 525 826 q 653 785 644 785 q 669 813 669 785 l 701 813 l 713 617 l 682 617 q 610 726 674 674 q 486 779 546 779 z "},"È":{"ha":699,"x_min":50,"x_max":686,"o":"m 346 1086 l 421 861 l 357 861 l 171 1086 l 346 1086 m 50 0 l 50 29 q 138 57 125 29 l 138 756 q 50 783 125 783 l 50 813 l 624 813 l 624 678 l 594 678 q 567 765 594 753 l 314 765 l 314 446 l 474 446 q 501 533 501 458 l 531 533 l 531 311 l 501 311 q 474 399 501 386 l 314 399 l 314 47 l 596 47 q 658 135 631 63 l 686 135 l 653 0 l 50 0 z "},"É":{"ha":699,"x_min":50,"x_max":686,"o":"m 399 1086 l 574 1086 l 388 861 l 324 861 l 399 1086 m 50 0 l 50 29 q 138 57 125 29 l 138 756 q 50 783 125 783 l 50 813 l 624 813 l 624 678 l 594 678 q 567 765 594 753 l 314 765 l 314 446 l 474 446 q 501 533 501 458 l 531 533 l 531 311 l 501 311 q 474 399 501 386 l 314 399 l 314 47 l 596 47 q 658 135 631 63 l 686 135 l 653 0 l 50 0 z "},"Ê":{"ha":699,"x_min":50,"x_max":686,"o":"m 419 1086 l 550 861 l 500 861 l 385 954 l 269 861 l 219 861 l 350 1086 l 419 1086 m 50 0 l 50 29 q 138 57 125 29 l 138 756 q 50 783 125 783 l 50 813 l 624 813 l 624 678 l 594 678 q 567 765 594 753 l 314 765 l 314 446 l 474 446 q 501 533 501 458 l 531 533 l 531 311 l 501 311 q 474 399 501 386 l 314 399 l 314 47 l 596 47 q 658 135 631 63 l 686 135 l 653 0 l 50 0 z "},"Ë":{"ha":699,"x_min":50,"x_max":686,"o":"m 460 885 q 448 898 460 885 q 436 943 436 910 q 460 1001 436 976 q 517 1025 483 1025 q 574 1001 550 1025 q 599 943 599 976 q 574 885 599 910 q 517 861 550 861 q 460 885 483 861 m 195 885 q 183 898 195 885 q 171 943 171 910 q 195 1001 171 976 q 253 1025 219 1025 q 310 1001 286 1025 q 333 943 333 976 q 310 885 333 910 q 253 861 286 861 q 195 885 219 861 m 50 0 l 50 29 q 138 57 125 29 l 138 756 q 50 783 125 783 l 50 813 l 624 813 l 624 678 l 594 678 q 567 765 594 753 l 314 765 l 314 446 l 474 446 q 501 533 501 458 l 531 533 l 531 311 l 501 311 q 474 399 501 386 l 314 399 l 314 47 l 596 47 q 658 135 631 63 l 686 135 l 653 0 l 50 0 z "},"Ì":{"ha":451,"x_min":18,"x_max":401,"o":"m 193 1086 l 268 861 l 204 861 l 18 1086 l 193 1086 m 50 0 l 50 29 q 138 57 125 29 l 138 756 q 50 783 125 783 l 50 813 l 401 813 l 401 783 q 314 756 326 783 l 314 57 q 401 29 326 29 l 401 0 l 50 0 z "},"Í":{"ha":451,"x_min":50,"x_max":421,"o":"m 246 1086 l 421 1086 l 235 861 l 171 861 l 246 1086 m 50 0 l 50 29 q 138 57 125 29 l 138 756 q 50 783 125 783 l 50 813 l 401 813 l 401 783 q 314 756 326 783 l 314 57 q 401 29 326 29 l 401 0 l 50 0 z "},"Î":{"ha":451,"x_min":50,"x_max":401,"o":"m 267 1086 l 397 861 l 347 861 l 232 954 l 117 861 l 67 861 l 197 1086 l 267 1086 m 50 0 l 50 29 q 138 57 125 29 l 138 756 q 50 783 125 783 l 50 813 l 401 813 l 401 783 q 314 756 326 783 l 314 57 q 401 29 326 29 l 401 0 l 50 0 z "},"Ï":{"ha":451,"x_min":18,"x_max":446,"o":"m 307 885 q 295 898 307 885 q 283 943 283 910 q 307 1001 283 976 q 364 1025 331 1025 q 422 1001 397 1025 q 446 943 446 976 q 422 885 446 910 q 364 861 397 861 q 307 885 331 861 m 42 885 q 30 898 42 885 q 18 943 18 910 q 42 1001 18 976 q 100 1025 67 1025 q 157 1001 133 1025 q 181 943 181 976 q 157 885 181 910 q 100 861 133 861 q 42 885 67 861 m 50 0 l 50 29 q 138 57 125 29 l 138 756 q 50 783 125 783 l 50 813 l 401 813 l 401 783 q 314 756 326 783 l 314 57 q 401 29 326 29 l 401 0 l 50 0 z "},"Ð":{"ha":828,"x_min":13,"x_max":775,"o":"m 46 -1 l 46 28 q 133 56 121 28 l 133 214 q 229 503 133 396 q 544 631 325 610 q 340 771 478 771 l 261 771 l 261 653 l 206 653 l 206 771 l 90 771 q 58 733 74 764 q 42 663 42 703 l 13 663 l 13 813 l 206 813 l 206 910 l 261 910 l 261 813 l 365 813 q 663 700 550 813 q 775 407 775 588 q 665 113 775 226 q 382 -1 556 -1 l 46 -1 m 563 589 q 435 549 486 578 q 357 474 383 519 q 320 380 331 429 q 310 267 310 331 l 310 46 l 357 46 q 519 135 451 46 q 588 406 588 224 q 563 589 588 514 z "},"Ñ":{"ha":865,"x_min":50,"x_max":831,"o":"m 538 847 q 424 888 507 847 q 322 929 342 929 q 267 915 281 929 q 253 861 253 900 l 226 861 q 256 991 226 951 q 332 1031 286 1031 q 446 990 363 1031 q 549 949 529 949 q 604 963 590 949 q 618 1017 618 978 l 644 1017 q 614 887 644 926 q 538 847 583 847 m 50 0 l 50 29 q 138 57 125 29 l 138 756 q 50 783 125 783 l 50 813 l 285 813 l 696 250 l 696 756 q 608 783 683 783 l 608 813 l 831 813 l 831 783 q 743 756 756 783 l 743 0 l 682 0 l 185 688 l 185 57 q 272 29 197 29 l 272 0 l 50 0 z "},"Ò":{"ha":922,"x_min":49,"x_max":874,"o":"m 428 1086 l 503 861 l 439 861 l 253 1086 l 428 1086 m 236 417 q 256 240 236 322 q 331 96 276 158 q 467 33 385 33 q 574 66 529 33 q 642 154 618 99 q 676 269 665 210 q 686 394 686 328 q 665 571 686 488 q 590 717 644 654 q 456 779 536 779 q 349 746 393 779 q 281 657 304 713 q 247 542 257 601 q 236 417 236 483 m 169 110 q 109 173 169 110 q 49 406 49 235 q 169 701 49 576 q 461 826 290 826 q 753 701 632 826 q 874 406 874 576 q 752 110 874 235 q 461 -14 631 -14 q 169 110 289 -14 z "},"Ó":{"ha":922,"x_min":49,"x_max":874,"o":"m 481 1086 l 656 1086 l 469 861 l 406 861 l 481 1086 m 236 417 q 256 240 236 322 q 331 96 276 158 q 467 33 385 33 q 574 66 529 33 q 642 154 618 99 q 676 269 665 210 q 686 394 686 328 q 665 571 686 488 q 590 717 644 654 q 456 779 536 779 q 349 746 393 779 q 281 657 304 713 q 247 542 257 601 q 236 417 236 483 m 169 110 q 109 173 169 110 q 49 406 49 235 q 169 701 49 576 q 461 826 290 826 q 753 701 632 826 q 874 406 874 576 q 752 110 874 235 q 461 -14 631 -14 q 169 110 289 -14 z "},"Ô":{"ha":922,"x_min":49,"x_max":874,"o":"m 501 1086 l 632 861 l 582 861 l 467 954 l 351 861 l 301 861 l 432 1086 l 501 1086 m 236 417 q 256 240 236 322 q 331 96 276 158 q 467 33 385 33 q 574 66 529 33 q 642 154 618 99 q 676 269 665 210 q 686 394 686 328 q 665 571 686 488 q 590 717 644 654 q 456 779 536 779 q 349 746 393 779 q 281 657 304 713 q 247 542 257 601 q 236 417 236 483 m 169 110 q 109 173 169 110 q 49 406 49 235 q 169 701 49 576 q 461 826 290 826 q 753 701 632 826 q 874 406 874 576 q 752 110 874 235 q 461 -14 631 -14 q 169 110 289 -14 z "},"Õ":{"ha":922,"x_min":49,"x_max":874,"o":"m 571 847 q 458 888 540 847 q 356 929 375 929 q 300 915 314 929 q 286 861 286 900 l 260 861 q 290 991 260 951 q 365 1031 319 1031 q 479 990 396 1031 q 582 949 563 949 q 638 963 624 949 q 651 1017 651 978 l 678 1017 q 647 887 678 926 q 571 847 617 847 m 236 417 q 256 240 236 322 q 331 96 276 158 q 467 33 385 33 q 574 66 529 33 q 642 154 618 99 q 676 269 665 210 q 686 394 686 328 q 665 571 686 488 q 590 717 644 654 q 456 779 536 779 q 349 746 393 779 q 281 657 304 713 q 247 542 257 601 q 236 417 236 483 m 169 110 q 109 173 169 110 q 49 406 49 235 q 169 701 49 576 q 461 826 290 826 q 753 701 632 826 q 874 406 874 576 q 752 110 874 235 q 461 -14 631 -14 q 169 110 289 -14 z "},"Ö":{"ha":922,"x_min":49,"x_max":874,"o":"m 542 885 q 530 898 542 885 q 518 943 518 910 q 542 1001 518 976 q 599 1025 565 1025 q 656 1001 632 1025 q 681 943 681 976 q 656 885 681 910 q 599 861 632 861 q 542 885 565 861 m 277 885 q 265 898 277 885 q 253 943 253 910 q 277 1001 253 976 q 335 1025 301 1025 q 392 1001 368 1025 q 415 943 415 976 q 392 885 415 910 q 335 861 368 861 q 277 885 301 861 m 236 417 q 256 240 236 322 q 331 96 276 158 q 467 33 385 33 q 574 66 529 33 q 642 154 618 99 q 676 269 665 210 q 686 394 686 328 q 665 571 686 488 q 590 717 644 654 q 456 779 536 779 q 349 746 393 779 q 281 657 304 713 q 247 542 257 601 q 236 417 236 483 m 169 110 q 109 173 169 110 q 49 406 49 235 q 169 701 49 576 q 461 826 290 826 q 753 701 632 826 q 874 406 874 576 q 752 110 874 235 q 461 -14 631 -14 q 169 110 289 -14 z "},"×":{"ha":572,"x_min":65,"x_max":507,"o":"m 329 442 l 507 264 l 464 221 l 286 399 l 108 221 l 65 264 l 243 442 l 65 619 l 108 663 l 286 485 l 464 663 l 507 619 l 329 442 z "},"Ø":{"ha":922,"x_min":49,"x_max":874,"o":"m 224 -39 l 183 -14 l 229 58 q 97 208 146 117 q 49 406 49 300 q 169 701 49 576 q 461 826 290 826 q 671 767 574 826 l 724 850 l 764 825 l 711 739 q 831 592 788 681 q 874 406 874 504 q 752 110 874 235 q 461 -14 631 -14 q 269 35 360 -14 l 224 -39 m 643 632 l 317 110 q 467 33 375 33 q 574 66 529 33 q 642 154 618 99 q 676 269 665 210 q 686 394 686 328 q 643 632 686 531 m 618 682 q 456 779 558 779 q 349 746 393 779 q 281 657 304 713 q 247 542 257 601 q 236 417 236 483 q 289 156 236 261 l 618 682 z "},"Ù":{"ha":839,"x_min":25,"x_max":814,"o":"m 449 1086 l 524 861 l 460 861 l 274 1086 l 449 1086 m 481 33 q 625 110 571 33 q 679 317 679 186 l 679 756 q 592 783 667 783 l 592 813 l 814 813 l 814 783 q 726 756 739 783 l 726 344 q 647 75 726 164 q 446 -14 567 -14 q 113 344 113 -14 l 113 756 q 25 783 100 783 l 25 813 l 376 813 l 376 783 q 289 756 301 783 l 289 325 q 338 108 289 183 q 481 33 386 33 z "},"Ú":{"ha":839,"x_min":25,"x_max":814,"o":"m 501 1086 l 676 1086 l 490 861 l 426 861 l 501 1086 m 481 33 q 625 110 571 33 q 679 317 679 186 l 679 756 q 592 783 667 783 l 592 813 l 814 813 l 814 783 q 726 756 739 783 l 726 344 q 647 75 726 164 q 446 -14 567 -14 q 113 344 113 -14 l 113 756 q 25 783 100 783 l 25 813 l 376 813 l 376 783 q 289 756 301 783 l 289 325 q 338 108 289 183 q 481 33 386 33 z "},"Û":{"ha":839,"x_min":25,"x_max":814,"o":"m 522 1086 l 653 861 l 603 861 l 488 954 l 372 861 l 322 861 l 453 1086 l 522 1086 m 481 33 q 625 110 571 33 q 679 317 679 186 l 679 756 q 592 783 667 783 l 592 813 l 814 813 l 814 783 q 726 756 739 783 l 726 344 q 647 75 726 164 q 446 -14 567 -14 q 113 344 113 -14 l 113 756 q 25 783 100 783 l 25 813 l 376 813 l 376 783 q 289 756 301 783 l 289 325 q 338 108 289 183 q 481 33 386 33 z "},"Ü":{"ha":839,"x_min":25,"x_max":814,"o":"m 563 885 q 551 898 563 885 q 539 943 539 910 q 563 1001 539 976 q 619 1025 586 1025 q 677 1001 653 1025 q 701 943 701 976 q 677 885 701 910 q 619 861 653 861 q 563 885 586 861 m 298 885 q 286 898 298 885 q 274 943 274 910 q 298 1001 274 976 q 356 1025 322 1025 q 413 1001 389 1025 q 436 943 436 976 q 413 885 436 910 q 356 861 389 861 q 298 885 322 861 m 481 33 q 625 110 571 33 q 679 317 679 186 l 679 756 q 592 783 667 783 l 592 813 l 814 813 l 814 783 q 726 756 739 783 l 726 344 q 647 75 726 164 q 446 -14 567 -14 q 113 344 113 -14 l 113 756 q 25 783 100 783 l 25 813 l 376 813 l 376 783 q 289 756 301 783 l 289 325 q 338 108 289 183 q 481 33 386 33 z "},"Ý":{"ha":811,"x_min":-22,"x_max":829,"o":"m 489 1086 l 664 1086 l 478 861 l 414 861 l 489 1086 m 331 813 l 331 783 q 250 767 265 783 l 465 390 l 688 758 q 601 783 672 783 l 601 813 l 829 813 l 829 783 q 750 765 761 783 l 500 350 l 500 57 q 588 29 513 29 l 588 0 l 236 0 l 236 29 q 324 57 311 29 l 324 306 l 67 756 q -22 783 50 783 l -22 813 l 331 813 z "},"Þ":{"ha":733,"x_min":50,"x_max":715,"o":"m 50 0 l 50 29 q 138 57 125 29 l 138 756 q 50 783 125 783 l 50 813 l 401 813 l 401 783 q 314 756 326 783 l 314 660 l 338 660 q 614 590 513 660 q 715 428 715 519 q 618 249 715 324 q 354 175 521 175 l 314 175 l 314 57 q 401 29 326 29 l 401 0 l 50 0 m 314 613 l 314 222 q 478 271 428 222 q 528 426 528 319 q 481 563 528 513 q 314 613 433 613 z "},"ß":{"ha":749,"x_min":19,"x_max":719,"o":"m 361 511 q 424 581 397 525 q 451 693 451 638 q 371 833 451 833 q 308 793 335 833 q 281 678 281 753 l 281 0 l 19 0 l 19 29 q 107 57 94 29 l 107 658 q 131 760 107 715 q 194 828 156 804 q 273 863 233 851 q 351 875 313 875 q 547 827 483 875 q 611 694 611 779 q 565 581 611 636 q 451 497 518 525 q 638 408 557 478 q 719 264 719 339 q 654 63 719 139 q 481 -14 589 -14 q 356 27 397 -14 q 314 100 314 68 q 324 158 314 142 q 364 175 335 175 q 399 152 388 175 q 414 101 411 129 q 431 51 417 74 q 472 28 446 28 q 556 236 556 28 q 502 402 556 326 q 364 478 449 478 l 361 478 q 339 492 339 478 q 361 511 339 504 z "},"à":{"ha":699,"x_min":35,"x_max":722,"o":"m 283 940 l 358 715 l 294 715 l 108 940 l 283 940 m 181 508 q 213 451 213 508 q 189 415 213 428 q 139 403 165 403 q 90 422 111 403 q 68 472 68 442 q 138 584 68 543 q 321 625 208 625 q 526 559 453 625 q 600 392 600 493 l 600 117 q 615 51 600 72 q 650 31 629 31 q 683 40 668 31 q 697 64 697 50 l 722 64 q 569 -11 722 -11 q 460 39 499 -11 q 267 -14 376 -14 q 35 156 35 -14 q 59 218 35 190 q 133 265 83 246 q 223 296 183 285 q 332 322 263 307 q 426 343 401 336 q 405 524 426 474 q 307 575 383 575 q 224 556 261 575 q 181 508 188 538 m 440 72 q 426 156 426 110 l 426 313 q 271 253 308 276 q 213 153 213 214 q 240 61 213 89 q 301 33 267 33 q 440 72 363 33 z "},"á":{"ha":699,"x_min":35,"x_max":722,"o":"m 336 940 l 511 940 l 325 715 l 261 715 l 336 940 m 181 508 q 213 451 213 508 q 189 415 213 428 q 139 403 165 403 q 90 422 111 403 q 68 472 68 442 q 138 584 68 543 q 321 625 208 625 q 526 559 453 625 q 600 392 600 493 l 600 117 q 615 51 600 72 q 650 31 629 31 q 683 40 668 31 q 697 64 697 50 l 722 64 q 569 -11 722 -11 q 460 39 499 -11 q 267 -14 376 -14 q 35 156 35 -14 q 59 218 35 190 q 133 265 83 246 q 223 296 183 285 q 332 322 263 307 q 426 343 401 336 q 405 524 426 474 q 307 575 383 575 q 224 556 261 575 q 181 508 188 538 m 440 72 q 426 156 426 110 l 426 313 q 271 253 308 276 q 213 153 213 214 q 240 61 213 89 q 301 33 267 33 q 440 72 363 33 z "},"â":{"ha":699,"x_min":35,"x_max":722,"o":"m 357 940 l 488 715 l 438 715 l 322 808 l 207 715 l 157 715 l 288 940 l 357 940 m 181 508 q 213 451 213 508 q 189 415 213 428 q 139 403 165 403 q 90 422 111 403 q 68 472 68 442 q 138 584 68 543 q 321 625 208 625 q 526 559 453 625 q 600 392 600 493 l 600 117 q 615 51 600 72 q 650 31 629 31 q 683 40 668 31 q 697 64 697 50 l 722 64 q 569 -11 722 -11 q 460 39 499 -11 q 267 -14 376 -14 q 35 156 35 -14 q 59 218 35 190 q 133 265 83 246 q 223 296 183 285 q 332 322 263 307 q 426 343 401 336 q 405 524 426 474 q 307 575 383 575 q 224 556 261 575 q 181 508 188 538 m 440 72 q 426 156 426 110 l 426 313 q 271 253 308 276 q 213 153 213 214 q 240 61 213 89 q 301 33 267 33 q 440 72 363 33 z "},"ã":{"ha":699,"x_min":35,"x_max":722,"o":"m 426 701 q 313 742 396 701 q 211 783 231 783 q 156 769 169 783 q 142 715 142 754 l 115 715 q 145 845 115 806 q 221 885 175 885 q 335 844 251 885 q 438 803 418 803 q 493 817 479 803 q 507 871 507 832 l 533 871 q 503 741 533 781 q 426 701 472 701 m 181 508 q 213 451 213 508 q 189 415 213 428 q 139 403 165 403 q 90 422 111 403 q 68 472 68 442 q 138 584 68 543 q 321 625 208 625 q 526 559 453 625 q 600 392 600 493 l 600 117 q 615 51 600 72 q 650 31 629 31 q 683 40 668 31 q 697 64 697 50 l 722 64 q 569 -11 722 -11 q 460 39 499 -11 q 267 -14 376 -14 q 35 156 35 -14 q 59 218 35 190 q 133 265 83 246 q 223 296 183 285 q 332 322 263 307 q 426 343 401 336 q 405 524 426 474 q 307 575 383 575 q 224 556 261 575 q 181 508 188 538 m 440 72 q 426 156 426 110 l 426 313 q 271 253 308 276 q 213 153 213 214 q 240 61 213 89 q 301 33 267 33 q 440 72 363 33 z "},"ä":{"ha":699,"x_min":35,"x_max":722,"o":"m 397 740 q 385 752 397 740 q 374 797 374 764 q 397 855 374 831 q 454 879 421 879 q 512 855 488 879 q 536 797 536 831 q 512 740 536 764 q 454 715 488 715 q 397 740 421 715 m 133 740 q 120 752 133 740 q 108 797 108 764 q 133 855 108 831 q 190 879 157 879 q 247 855 224 879 q 271 797 271 831 q 247 740 271 764 q 190 715 224 715 q 133 740 157 715 m 181 508 q 213 451 213 508 q 189 415 213 428 q 139 403 165 403 q 90 422 111 403 q 68 472 68 442 q 138 584 68 543 q 321 625 208 625 q 526 559 453 625 q 600 392 600 493 l 600 117 q 615 51 600 72 q 650 31 629 31 q 683 40 668 31 q 697 64 697 50 l 722 64 q 569 -11 722 -11 q 460 39 499 -11 q 267 -14 376 -14 q 35 156 35 -14 q 59 218 35 190 q 133 265 83 246 q 223 296 183 285 q 332 322 263 307 q 426 343 401 336 q 405 524 426 474 q 307 575 383 575 q 224 556 261 575 q 181 508 188 538 m 440 72 q 426 156 426 110 l 426 313 q 271 253 308 276 q 213 153 213 214 q 240 61 213 89 q 301 33 267 33 q 440 72 363 33 z "},"å":{"ha":699,"x_min":35,"x_max":722,"o":"m 281 852 q 273 843 281 852 q 264 811 264 835 q 281 770 264 788 q 322 753 299 753 q 363 770 346 753 q 381 811 381 788 q 363 852 381 835 q 322 869 346 869 q 281 852 299 869 m 249 738 q 234 753 249 738 q 219 811 219 768 q 249 884 219 854 q 322 914 278 914 q 396 884 367 914 q 425 811 425 854 q 396 738 425 768 q 322 708 367 708 q 249 738 278 708 m 181 508 q 213 451 213 508 q 189 415 213 428 q 139 403 165 403 q 90 422 111 403 q 68 472 68 442 q 138 584 68 543 q 321 625 208 625 q 526 559 453 625 q 600 392 600 493 l 600 117 q 615 51 600 72 q 650 31 629 31 q 683 40 668 31 q 697 64 697 50 l 722 64 q 569 -11 722 -11 q 460 39 499 -11 q 267 -14 376 -14 q 35 156 35 -14 q 59 218 35 190 q 133 265 83 246 q 223 296 183 285 q 332 322 263 307 q 426 343 401 336 q 405 524 426 474 q 307 575 383 575 q 224 556 261 575 q 181 508 188 538 m 440 72 q 426 156 426 110 l 426 313 q 271 253 308 276 q 213 153 213 214 q 240 61 213 89 q 301 33 267 33 q 440 72 363 33 z "},"æ":{"ha":1078,"x_min":35,"x_max":1044,"o":"m 607 378 l 860 378 q 826 530 851 476 q 743 583 800 583 q 653 533 693 583 q 607 378 614 482 m 606 335 q 660 126 608 214 q 793 39 713 39 q 988 131 914 39 l 1021 114 q 916 17 981 47 q 746 -14 851 -14 q 510 82 599 -14 q 419 16 481 46 q 267 -14 358 -14 q 35 156 35 -14 q 55 210 35 185 q 102 250 75 235 q 176 281 129 265 q 258 305 222 297 q 347 324 293 313 q 425 343 400 336 q 404 525 425 475 q 307 575 383 575 q 224 556 261 575 q 181 508 188 538 q 213 451 213 508 q 189 415 213 428 q 139 403 165 403 q 90 422 111 403 q 68 472 68 442 q 138 584 68 543 q 321 625 208 625 q 529 557 451 625 q 732 625 613 625 q 963 541 881 625 q 1044 335 1044 457 l 606 335 m 489 107 q 425 311 431 185 q 274 254 308 276 q 213 153 213 215 q 240 61 213 89 q 301 33 267 33 q 405 56 343 33 q 489 107 467 79 z "},"ç":{"ha":669,"x_min":44,"x_max":633,"o":"m 382 583 q 271 517 317 583 q 225 342 225 451 q 275 128 225 218 q 406 39 325 39 q 582 139 522 39 l 633 114 q 399 -12 563 -3 l 382 -76 q 439 -84 408 -76 q 499 -115 469 -92 q 528 -169 528 -137 q 488 -244 528 -211 q 361 -276 447 -276 q 258 -267 315 -276 l 258 -243 q 293 -246 283 -246 q 386 -181 386 -246 q 301 -119 386 -119 l 332 -12 q 233 10 281 -8 q 142 67 186 29 q 71 174 97 104 q 44 336 44 243 q 136 540 44 456 q 368 625 228 625 q 549 587 481 625 q 618 478 618 549 q 601 421 618 443 q 549 399 583 399 q 495 415 515 399 q 475 457 475 431 q 490 500 475 486 q 524 514 504 514 q 382 583 506 583 z "},"è":{"ha":696,"x_min":43,"x_max":663,"o":"m 310 940 l 385 715 l 321 715 l 135 940 l 310 940 m 224 335 q 278 126 226 214 q 411 39 331 39 q 606 131 532 39 l 639 114 q 534 17 599 47 q 364 -14 469 -14 q 258 2 310 -14 q 156 55 207 18 q 74 164 106 92 q 43 336 43 236 q 128 541 43 457 q 350 625 214 625 q 581 541 499 625 q 663 335 663 457 l 224 335 m 225 378 l 478 378 q 444 530 469 476 q 361 583 418 583 q 272 533 311 583 q 225 378 232 482 z "},"é":{"ha":696,"x_min":43,"x_max":663,"o":"m 363 940 l 538 940 l 351 715 l 288 715 l 363 940 m 224 335 q 278 126 226 214 q 411 39 331 39 q 606 131 532 39 l 639 114 q 534 17 599 47 q 364 -14 469 -14 q 258 2 310 -14 q 156 55 207 18 q 74 164 106 92 q 43 336 43 236 q 128 541 43 457 q 350 625 214 625 q 581 541 499 625 q 663 335 663 457 l 224 335 m 225 378 l 478 378 q 444 530 469 476 q 361 583 418 583 q 272 533 311 583 q 225 378 232 482 z "},"ê":{"ha":696,"x_min":43,"x_max":663,"o":"m 383 940 l 514 715 l 464 715 l 349 808 l 233 715 l 183 715 l 314 940 l 383 940 m 224 335 q 278 126 226 214 q 411 39 331 39 q 606 131 532 39 l 639 114 q 534 17 599 47 q 364 -14 469 -14 q 258 2 310 -14 q 156 55 207 18 q 74 164 106 92 q 43 336 43 236 q 128 541 43 457 q 350 625 214 625 q 581 541 499 625 q 663 335 663 457 l 224 335 m 225 378 l 478 378 q 444 530 469 476 q 361 583 418 583 q 272 533 311 583 q 225 378 232 482 z "},"ë":{"ha":696,"x_min":43,"x_max":663,"o":"m 424 740 q 412 752 424 740 q 400 797 400 764 q 424 855 400 831 q 481 879 447 879 q 538 855 514 879 q 563 797 563 831 q 538 740 563 764 q 481 715 514 715 q 424 740 447 715 m 159 740 q 147 752 159 740 q 135 797 135 764 q 159 855 135 831 q 217 879 183 879 q 274 855 250 879 q 297 797 297 831 q 274 740 297 764 q 217 715 250 715 q 159 740 183 715 m 224 335 q 278 126 226 214 q 411 39 331 39 q 606 131 532 39 l 639 114 q 534 17 599 47 q 364 -14 469 -14 q 258 2 310 -14 q 156 55 207 18 q 74 164 106 92 q 43 336 43 236 q 128 541 43 457 q 350 625 214 625 q 581 541 499 625 q 663 335 663 457 l 224 335 m 225 378 l 478 378 q 444 530 469 476 q 361 583 418 583 q 272 533 311 583 q 225 378 232 482 z "},"ì":{"ha":401,"x_min":-4,"x_max":382,"o":"m 171 940 l 246 715 l 182 715 l -4 940 l 171 940 m 33 0 l 33 29 q 121 57 108 29 l 121 528 q 33 533 49 533 l 33 565 q 161 595 60 565 q 294 625 263 625 l 294 57 q 382 29 307 29 l 382 0 l 33 0 z "},"í":{"ha":401,"x_min":33,"x_max":399,"o":"m 224 940 l 399 940 l 213 715 l 149 715 l 224 940 m 33 0 l 33 29 q 121 57 108 29 l 121 528 q 33 533 49 533 l 33 565 q 161 595 60 565 q 294 625 263 625 l 294 57 q 382 29 307 29 l 382 0 l 33 0 z "},"î":{"ha":401,"x_min":33,"x_max":382,"o":"m 244 940 l 375 715 l 325 715 l 210 808 l 94 715 l 44 715 l 175 940 l 244 940 m 33 0 l 33 29 q 121 57 108 29 l 121 528 q 33 533 49 533 l 33 565 q 161 595 60 565 q 294 625 263 625 l 294 57 q 382 29 307 29 l 382 0 l 33 0 z "},"ï":{"ha":401,"x_min":-4,"x_max":424,"o":"m 285 740 q 273 752 285 740 q 261 797 261 764 q 285 855 261 831 q 342 879 308 879 q 399 855 375 879 q 424 797 424 831 q 399 740 424 764 q 342 715 375 715 q 285 740 308 715 m 20 740 q 8 752 20 740 q -4 797 -4 764 q 20 855 -4 831 q 78 879 44 879 q 135 855 111 879 q 158 797 158 831 q 135 740 158 764 q 78 715 111 715 q 20 740 44 715 m 33 0 l 33 29 q 121 57 108 29 l 121 528 q 33 533 49 533 l 33 565 q 161 595 60 565 q 294 625 263 625 l 294 57 q 382 29 307 29 l 382 0 l 33 0 z "},"ð":{"ha":751,"x_min":43,"x_max":706,"o":"m 381 -14 q 133 77 224 -14 q 43 317 43 168 q 125 538 43 450 q 371 625 207 625 q 440 621 407 625 q 357 735 401 686 l 247 672 l 224 713 l 322 769 q 271 813 297 793 q 231 842 244 833 l 218 850 l 233 875 q 382 804 300 853 l 500 872 l 524 832 l 426 775 q 706 300 706 585 q 624 76 706 167 q 381 -14 543 -14 m 225 344 q 274 107 225 186 q 399 28 322 28 q 490 95 456 28 q 524 268 524 163 q 481 507 524 432 q 347 582 438 582 q 261 510 297 582 q 225 344 225 438 z "},"ñ":{"ha":829,"x_min":33,"x_max":815,"o":"m 538 703 q 424 744 507 703 q 322 785 342 785 q 267 770 281 785 q 253 717 253 756 l 226 717 q 256 847 226 807 q 332 886 286 886 q 446 845 363 886 q 549 804 529 804 q 604 819 590 804 q 618 872 618 833 l 644 872 q 614 742 644 782 q 538 703 583 703 m 33 0 l 33 29 q 121 57 108 29 l 121 528 q 33 533 46 533 l 33 565 q 161 595 60 565 q 294 625 263 625 l 294 567 q 447 625 364 625 q 654 576 581 625 q 728 428 728 526 l 728 57 q 815 29 740 29 l 815 0 l 467 0 l 467 29 q 554 57 542 29 l 554 438 q 526 539 554 500 q 439 578 497 578 q 294 522 353 578 l 294 57 q 382 29 307 29 l 382 0 l 33 0 z "},"ò":{"ha":757,"x_min":43,"x_max":714,"o":"m 342 940 l 417 715 l 353 715 l 167 940 l 342 940 m 225 344 q 269 104 225 181 q 403 28 313 28 q 499 94 465 28 q 532 268 532 160 q 492 510 532 438 q 351 582 453 582 q 258 513 292 582 q 225 344 225 443 m 385 -14 q 135 78 228 -14 q 43 317 43 169 q 127 537 43 449 q 375 625 211 625 q 627 538 540 625 q 714 300 714 450 q 631 76 714 167 q 385 -14 547 -14 z "},"ó":{"ha":757,"x_min":43,"x_max":714,"o":"m 394 940 l 569 940 l 383 715 l 319 715 l 394 940 m 225 344 q 269 104 225 181 q 403 28 313 28 q 499 94 465 28 q 532 268 532 160 q 492 510 532 438 q 351 582 453 582 q 258 513 292 582 q 225 344 225 443 m 385 -14 q 135 78 228 -14 q 43 317 43 169 q 127 537 43 449 q 375 625 211 625 q 627 538 540 625 q 714 300 714 450 q 631 76 714 167 q 385 -14 547 -14 z "},"ô":{"ha":757,"x_min":43,"x_max":714,"o":"m 415 940 l 546 715 l 496 715 l 381 808 l 265 715 l 215 715 l 346 940 l 415 940 m 225 344 q 269 104 225 181 q 403 28 313 28 q 499 94 465 28 q 532 268 532 160 q 492 510 532 438 q 351 582 453 582 q 258 513 292 582 q 225 344 225 443 m 385 -14 q 135 78 228 -14 q 43 317 43 169 q 127 537 43 449 q 375 625 211 625 q 627 538 540 625 q 714 300 714 450 q 631 76 714 167 q 385 -14 547 -14 z "},"õ":{"ha":757,"x_min":43,"x_max":714,"o":"m 485 701 q 372 742 454 701 q 269 783 289 783 q 214 769 228 783 q 200 715 200 754 l 174 715 q 203 845 174 806 q 279 885 233 885 q 393 844 310 885 q 496 803 476 803 q 551 817 538 803 q 565 871 565 832 l 592 871 q 561 741 592 781 q 485 701 531 701 m 225 344 q 269 104 225 181 q 403 28 313 28 q 499 94 465 28 q 532 268 532 160 q 492 510 532 438 q 351 582 453 582 q 258 513 292 582 q 225 344 225 443 m 385 -14 q 135 78 228 -14 q 43 317 43 169 q 127 537 43 449 q 375 625 211 625 q 627 538 540 625 q 714 300 714 450 q 631 76 714 167 q 385 -14 547 -14 z "},"ö":{"ha":757,"x_min":43,"x_max":714,"o":"m 456 740 q 444 752 456 740 q 432 797 432 764 q 456 855 432 831 q 513 879 479 879 q 570 855 546 879 q 594 797 594 831 q 570 740 594 764 q 513 715 546 715 q 456 740 479 715 m 191 740 q 179 752 191 740 q 167 797 167 764 q 191 855 167 831 q 249 879 215 879 q 306 855 282 879 q 329 797 329 831 q 306 740 329 764 q 249 715 282 715 q 191 740 215 715 m 225 344 q 269 104 225 181 q 403 28 313 28 q 499 94 465 28 q 532 268 532 160 q 492 510 532 438 q 351 582 453 582 q 258 513 292 582 q 225 344 225 443 m 385 -14 q 135 78 228 -14 q 43 317 43 169 q 127 537 43 449 q 375 625 211 625 q 627 538 540 625 q 714 300 714 450 q 631 76 714 167 q 385 -14 547 -14 z "},"÷":{"ha":658,"x_min":56,"x_max":603,"o":"m 275 578 q 263 591 275 578 q 250 635 250 603 q 272 692 250 667 q 328 718 293 718 q 383 694 358 718 q 408 639 408 671 q 386 581 408 607 q 329 554 364 554 q 275 578 300 554 m 275 190 q 263 202 275 190 q 250 246 250 214 q 272 303 250 278 q 328 329 293 329 q 383 306 358 329 q 408 250 408 282 q 386 192 408 218 q 329 165 364 165 q 275 190 300 165 m 56 472 l 603 472 l 603 411 l 56 411 l 56 472 z "},"ø":{"ha":757,"x_min":43,"x_max":714,"o":"m 167 -49 l 129 -21 l 175 44 q 43 317 43 135 q 127 537 43 449 q 375 625 211 625 q 556 588 478 625 l 606 660 l 643 632 l 596 564 q 714 300 714 479 q 631 76 714 167 q 385 -14 547 -14 q 215 21 289 -14 l 167 -49 m 515 450 l 271 100 q 403 28 313 28 q 499 94 465 28 q 532 268 532 160 q 515 450 532 379 m 496 503 q 351 582 456 582 q 258 513 292 582 q 225 344 225 443 q 249 150 225 225 l 496 503 z "},"ù":{"ha":792,"x_min":14,"x_max":772,"o":"m 351 940 l 426 715 l 363 715 l 176 940 l 351 940 m 685 83 q 772 78 760 78 l 772 46 q 644 16 746 46 q 511 -14 543 -14 l 511 26 q 369 -14 440 -14 q 101 183 101 -14 l 101 554 q 14 582 89 582 l 14 611 l 275 611 l 275 174 q 276 128 275 144 q 282 92 276 113 q 298 60 288 71 q 328 41 308 49 q 378 33 349 33 q 511 71 446 33 l 511 554 q 424 582 499 582 l 424 611 l 685 611 l 685 83 z "},"ú":{"ha":792,"x_min":14,"x_max":772,"o":"m 404 940 l 579 940 l 393 715 l 329 715 l 404 940 m 685 83 q 772 78 760 78 l 772 46 q 644 16 746 46 q 511 -14 543 -14 l 511 26 q 369 -14 440 -14 q 101 183 101 -14 l 101 554 q 14 582 89 582 l 14 611 l 275 611 l 275 174 q 276 128 275 144 q 282 92 276 113 q 298 60 288 71 q 328 41 308 49 q 378 33 349 33 q 511 71 446 33 l 511 554 q 424 582 499 582 l 424 611 l 685 611 l 685 83 z "},"û":{"ha":792,"x_min":14,"x_max":772,"o":"m 685 83 q 772 78 760 78 l 772 46 q 644 16 746 46 q 511 -14 543 -14 l 511 26 q 369 -14 440 -14 q 101 183 101 -14 l 101 554 q 14 582 89 582 l 14 611 l 275 611 l 275 174 q 276 128 275 144 q 282 92 276 113 q 298 60 288 71 q 328 41 308 49 q 378 33 349 33 q 511 71 446 33 l 511 554 q 424 582 499 582 l 424 611 l 685 611 l 685 83 m 425 940 l 556 715 l 506 715 l 390 808 l 275 715 l 225 715 l 356 940 l 425 940 z "},"ü":{"ha":792,"x_min":14,"x_max":772,"o":"m 685 83 q 772 78 760 78 l 772 46 q 644 16 746 46 q 511 -14 543 -14 l 511 26 q 369 -14 440 -14 q 101 183 101 -14 l 101 554 q 14 582 89 582 l 14 611 l 275 611 l 275 174 q 276 128 275 144 q 282 92 276 113 q 298 60 288 71 q 328 41 308 49 q 378 33 349 33 q 511 71 446 33 l 511 554 q 424 582 499 582 l 424 611 l 685 611 l 685 83 m 465 740 q 453 752 465 740 q 442 797 442 764 q 465 855 442 831 q 522 879 489 879 q 580 855 556 879 q 604 797 604 831 q 580 740 604 764 q 522 715 556 715 q 465 740 489 715 m 201 740 q 189 752 201 740 q 176 797 176 764 q 201 855 176 831 q 258 879 225 879 q 315 855 292 879 q 339 797 339 831 q 315 740 339 764 q 258 715 292 715 q 201 740 225 715 z "},"ý":{"ha":700,"x_min":-17,"x_max":717,"o":"m 414 940 l 589 940 l 403 715 l 339 715 l 414 940 m 301 611 l 301 582 q 243 576 261 582 l 408 169 l 567 567 q 489 582 547 582 l 489 611 l 717 611 l 717 582 q 632 560 642 582 l 351 -142 q 206 -256 306 -256 q 104 -189 104 -256 q 120 -149 104 -164 q 165 -133 136 -133 q 204 -154 188 -133 q 242 -175 221 -175 q 281 -150 271 -175 l 317 -61 l 71 554 q -17 582 58 582 l -17 611 l 301 611 z "},"þ":{"ha":719,"x_min":-8,"x_max":679,"o":"m -8 -267 l -8 -237 q 79 -210 67 -237 l 79 778 q -8 783 4 783 l -8 815 q 119 845 18 815 q 253 875 221 875 l 253 583 q 396 625 317 625 q 600 547 521 625 q 679 371 679 468 q 565 92 679 188 q 253 -15 450 -4 l 253 -210 q 340 -237 265 -237 l 340 -267 l -8 -267 m 253 538 l 253 26 q 499 336 499 51 q 382 578 499 578 q 253 538 307 578 z "},"ÿ":{"ha":700,"x_min":-17,"x_max":717,"o":"m 475 740 q 463 752 475 740 q 451 797 451 764 q 475 855 451 831 q 532 879 499 879 q 590 855 565 879 q 614 797 614 831 q 590 740 614 764 q 532 715 565 715 q 475 740 499 715 m 210 740 q 198 752 210 740 q 186 797 186 764 q 210 855 186 831 q 268 879 235 879 q 325 855 301 879 q 349 797 349 831 q 325 740 349 764 q 268 715 301 715 q 210 740 235 715 m 301 611 l 301 582 q 243 576 261 582 l 408 169 l 567 567 q 489 582 547 582 l 489 611 l 717 611 l 717 582 q 632 560 642 582 l 351 -142 q 206 -256 306 -256 q 104 -189 104 -256 q 120 -149 104 -164 q 165 -133 136 -133 q 204 -154 188 -133 q 242 -175 221 -175 q 281 -150 271 -175 l 317 -61 l 71 554 q -17 582 58 582 l -17 611 l 301 611 z "},"Ā":{"ha":786,"x_min":-21,"x_max":810,"o":"m 203 956 l 569 956 l 569 881 l 203 881 l 203 956 m 457 0 l 457 29 q 538 46 521 29 l 460 258 l 193 258 l 121 54 q 207 29 135 29 l 207 0 l -21 0 l -21 29 q 67 58 56 29 l 336 813 l 449 813 l 721 58 q 810 29 731 29 l 810 0 l 457 0 m 325 628 l 210 304 l 443 304 l 325 628 z "},"ā":{"ha":699,"x_min":35,"x_max":722,"o":"m 131 810 l 497 810 l 497 735 l 131 735 l 131 810 m 181 508 q 213 451 213 508 q 189 415 213 428 q 139 403 165 403 q 90 422 111 403 q 68 472 68 442 q 138 584 68 543 q 321 625 208 625 q 526 559 453 625 q 600 392 600 493 l 600 117 q 615 51 600 72 q 650 31 629 31 q 683 40 668 31 q 697 64 697 50 l 722 64 q 569 -11 722 -11 q 460 39 499 -11 q 267 -14 376 -14 q 35 156 35 -14 q 59 218 35 190 q 133 265 83 246 q 223 296 183 285 q 332 322 263 307 q 426 343 401 336 q 405 524 426 474 q 307 575 383 575 q 224 556 261 575 q 181 508 188 538 m 440 72 q 426 156 426 110 l 426 313 q 271 253 308 276 q 213 153 213 214 q 240 61 213 89 q 301 33 267 33 q 440 72 363 33 z "},"Ă":{"ha":786,"x_min":-21,"x_max":810,"o":"m 394 875 q 265 931 310 875 q 219 1047 219 988 l 258 1047 q 394 986 288 986 q 531 1047 501 986 l 569 1047 q 525 931 569 986 q 394 875 481 875 m 457 0 l 457 29 q 538 46 521 29 l 460 258 l 193 258 l 121 54 q 207 29 135 29 l 207 0 l -21 0 l -21 29 q 67 58 56 29 l 336 813 l 449 813 l 721 58 q 810 29 731 29 l 810 0 l 457 0 m 325 628 l 210 304 l 443 304 l 325 628 z "},"ă":{"ha":699,"x_min":35,"x_max":722,"o":"m 322 729 q 192 785 238 729 q 147 901 147 842 l 186 901 q 322 840 215 840 q 458 901 429 840 l 497 901 q 453 785 497 840 q 322 729 408 729 m 181 508 q 213 451 213 508 q 189 415 213 428 q 139 403 165 403 q 90 422 111 403 q 68 472 68 442 q 138 584 68 543 q 321 625 208 625 q 526 559 453 625 q 600 392 600 493 l 600 117 q 615 51 600 72 q 650 31 629 31 q 683 40 668 31 q 697 64 697 50 l 722 64 q 569 -11 722 -11 q 460 39 499 -11 q 267 -14 376 -14 q 35 156 35 -14 q 59 218 35 190 q 133 265 83 246 q 223 296 183 285 q 332 322 263 307 q 426 343 401 336 q 405 524 426 474 q 307 575 383 575 q 224 556 261 575 q 181 508 188 538 m 440 72 q 426 156 426 110 l 426 313 q 271 253 308 276 q 213 153 213 214 q 240 61 213 89 q 301 33 267 33 q 440 72 363 33 z "},"Ą":{"ha":786,"x_min":-21,"x_max":851,"o":"m 325 628 l 210 304 l 443 304 l 325 628 m 457 0 l 457 29 q 538 46 521 29 l 460 258 l 193 258 l 121 54 q 207 29 135 29 l 207 0 l -21 0 l -21 29 q 67 58 56 29 l 336 813 l 449 813 l 721 58 q 810 29 731 29 l 810 0 l 714 0 q 678 -94 678 -43 q 710 -194 678 -158 q 793 -231 742 -231 q 815 -225 804 -231 q 831 -214 825 -219 l 836 -208 l 851 -233 q 842 -246 849 -239 q 806 -265 835 -253 q 742 -278 778 -278 q 634 -242 672 -278 q 596 -143 596 -206 q 663 0 596 -62 l 457 0 z "},"ą":{"ha":699,"x_min":35,"x_max":746,"o":"m 440 72 q 426 156 426 110 l 426 313 q 271 253 308 276 q 213 153 213 214 q 240 61 213 89 q 301 33 267 33 q 440 72 363 33 m 181 508 q 213 451 213 508 q 189 415 213 428 q 139 403 165 403 q 90 422 111 403 q 68 472 68 442 q 138 584 68 543 q 321 625 208 625 q 526 559 453 625 q 600 392 600 493 l 600 117 q 615 51 600 72 q 650 31 629 31 q 683 40 668 31 q 697 64 697 50 l 722 64 q 601 -10 722 -3 q 572 -93 572 -50 q 604 -193 572 -157 q 688 -229 636 -229 q 709 -224 699 -229 q 725 -212 719 -218 l 731 -207 l 746 -232 q 736 -244 743 -237 q 701 -264 729 -251 q 636 -276 672 -276 q 528 -240 567 -276 q 490 -142 490 -204 q 547 -10 490 -67 q 460 39 492 -3 q 267 -14 376 -14 q 35 156 35 -14 q 59 218 35 190 q 133 265 83 246 q 223 296 183 285 q 332 322 263 307 q 426 343 401 336 q 405 524 426 474 q 307 575 383 575 q 224 556 261 575 q 181 508 188 538 z "},"Ć":{"ha":781,"x_min":50,"x_max":750,"o":"m 492 1086 l 667 1086 l 481 861 l 417 861 l 492 1086 m 486 779 q 306 683 369 779 q 243 425 243 588 q 311 135 243 236 q 492 33 379 33 q 616 80 560 33 q 693 183 672 126 l 750 167 q 649 38 718 90 q 464 -14 581 -14 q 164 107 278 -14 q 50 394 50 228 q 181 707 50 588 q 485 826 311 826 q 585 806 525 826 q 653 785 644 785 q 669 813 669 785 l 701 813 l 713 617 l 682 617 q 610 726 674 674 q 486 779 546 779 z "},"ć":{"ha":668,"x_min":43,"x_max":632,"o":"m 388 940 l 563 940 l 376 715 l 313 715 l 388 940 m 381 583 q 269 517 315 583 q 224 342 224 451 q 274 128 224 218 q 404 39 324 39 q 581 139 521 39 l 632 114 q 527 17 592 47 q 357 -14 463 -14 q 275 -5 315 -14 q 192 29 235 4 q 117 92 149 54 q 64 192 85 129 q 43 336 43 256 q 135 540 43 456 q 367 625 226 625 q 548 587 479 625 q 617 478 617 549 q 599 421 617 443 q 547 399 582 399 q 494 415 514 399 q 474 457 474 431 q 488 500 474 486 q 522 514 503 514 q 381 583 504 583 z "},"Ĉ":{"ha":781,"x_min":50,"x_max":750,"o":"m 513 1086 l 643 861 l 593 861 l 478 954 l 363 861 l 313 861 l 443 1086 l 513 1086 m 486 779 q 306 683 369 779 q 243 425 243 588 q 311 135 243 236 q 492 33 379 33 q 616 80 560 33 q 693 183 672 126 l 750 167 q 649 38 718 90 q 464 -14 581 -14 q 164 107 278 -14 q 50 394 50 228 q 181 707 50 588 q 485 826 311 826 q 585 806 525 826 q 653 785 644 785 q 669 813 669 785 l 701 813 l 713 617 l 682 617 q 610 726 674 674 q 486 779 546 779 z "},"ĉ":{"ha":668,"x_min":43,"x_max":632,"o":"m 408 940 l 539 715 l 489 715 l 374 808 l 258 715 l 208 715 l 339 940 l 408 940 m 381 583 q 269 517 315 583 q 224 342 224 451 q 274 128 224 218 q 404 39 324 39 q 581 139 521 39 l 632 114 q 527 17 592 47 q 357 -14 463 -14 q 275 -5 315 -14 q 192 29 235 4 q 117 92 149 54 q 64 192 85 129 q 43 336 43 256 q 135 540 43 456 q 367 625 226 625 q 548 587 479 625 q 617 478 617 549 q 599 421 617 443 q 547 399 582 399 q 494 415 514 399 q 474 457 474 431 q 488 500 474 486 q 522 514 503 514 q 381 583 504 583 z "},"Ċ":{"ha":781,"x_min":50,"x_max":750,"o":"m 417 887 q 405 899 417 887 q 393 947 393 911 q 417 1008 393 983 q 478 1032 442 1032 q 538 1008 514 1032 q 563 947 563 983 q 538 887 563 911 q 478 863 514 863 q 417 887 442 863 m 486 779 q 306 683 369 779 q 243 425 243 588 q 311 135 243 236 q 492 33 379 33 q 616 80 560 33 q 693 183 672 126 l 750 167 q 649 38 718 90 q 464 -14 581 -14 q 164 107 278 -14 q 50 394 50 228 q 181 707 50 588 q 485 826 311 826 q 585 806 525 826 q 653 785 644 785 q 669 813 669 785 l 701 813 l 713 617 l 682 617 q 610 726 674 674 q 486 779 546 779 z "},"ċ":{"ha":668,"x_min":43,"x_max":632,"o":"m 314 742 q 301 754 314 742 q 289 801 289 767 q 314 861 289 836 q 374 886 339 886 q 433 861 408 886 q 458 801 458 836 q 433 742 458 767 q 374 717 408 717 q 314 742 339 717 m 381 583 q 269 517 315 583 q 224 342 224 451 q 274 128 224 218 q 404 39 324 39 q 581 139 521 39 l 632 114 q 527 17 592 47 q 357 -14 463 -14 q 275 -5 315 -14 q 192 29 235 4 q 117 92 149 54 q 64 192 85 129 q 43 336 43 256 q 135 540 43 456 q 367 625 226 625 q 548 587 479 625 q 617 478 617 549 q 599 421 617 443 q 547 399 582 399 q 494 415 514 399 q 474 457 474 431 q 488 500 474 486 q 522 514 503 514 q 381 583 504 583 z "},"Č":{"ha":781,"x_min":50,"x_max":750,"o":"m 444 861 l 314 1086 l 364 1086 l 479 979 l 594 1086 l 644 1086 l 514 861 l 444 861 m 486 779 q 306 683 369 779 q 243 425 243 588 q 311 135 243 236 q 492 33 379 33 q 616 80 560 33 q 693 183 672 126 l 750 167 q 649 38 718 90 q 464 -14 581 -14 q 164 107 278 -14 q 50 394 50 228 q 181 707 50 588 q 485 826 311 826 q 585 806 525 826 q 653 785 644 785 q 669 813 669 785 l 701 813 l 713 617 l 682 617 q 610 726 674 674 q 486 779 546 779 z "},"č":{"ha":668,"x_min":43,"x_max":632,"o":"m 340 715 l 210 940 l 260 940 l 375 833 l 490 940 l 540 940 l 410 715 l 340 715 m 381 583 q 269 517 315 583 q 224 342 224 451 q 274 128 224 218 q 404 39 324 39 q 581 139 521 39 l 632 114 q 527 17 592 47 q 357 -14 463 -14 q 275 -5 315 -14 q 192 29 235 4 q 117 92 149 54 q 64 192 85 129 q 43 336 43 256 q 135 540 43 456 q 367 625 226 625 q 548 587 479 625 q 617 478 617 549 q 599 421 617 443 q 547 399 582 399 q 494 415 514 399 q 474 457 474 431 q 488 500 474 486 q 522 514 503 514 q 381 583 504 583 z "},"Ď":{"ha":851,"x_min":50,"x_max":800,"o":"m 351 861 l 221 1086 l 271 1086 l 386 979 l 501 1086 l 551 1086 l 421 861 l 351 861 m 50 -1 l 50 28 q 138 56 125 28 l 138 754 q 50 782 125 782 l 50 811 l 369 811 q 678 698 557 811 q 800 407 800 585 q 681 113 800 228 q 386 -1 563 -1 l 50 -1 m 314 771 l 314 46 l 386 46 q 547 135 481 46 q 613 406 613 224 q 543 680 613 589 q 369 771 474 771 l 314 771 z "},"ď":{"ha":849,"x_min":43,"x_max":947,"o":"m 521 597 l 521 778 q 433 783 446 783 l 433 815 q 561 845 460 815 q 694 875 663 875 l 694 83 q 782 78 769 78 l 782 46 q 654 16 756 46 q 521 -14 553 -14 l 521 32 q 354 -14 454 -14 q 280 -5 318 -14 q 198 27 242 4 q 121 85 154 50 q 65 178 88 121 q 43 308 43 236 q 142 546 43 461 q 385 631 240 631 q 521 597 464 631 m 521 553 q 393 583 468 583 q 278 508 332 583 q 224 308 224 433 q 269 113 224 193 q 368 33 315 33 q 521 78 464 33 l 521 553 m 819 747 q 763 765 785 747 q 742 815 742 783 q 759 861 742 844 q 789 880 776 878 q 813 882 801 882 q 908 847 869 882 q 947 754 947 811 q 761 574 947 631 l 761 628 q 834 665 799 632 q 869 738 869 697 q 863 765 869 765 l 856 761 q 840 751 850 756 q 819 747 831 747 z "},"Đ":{"ha":851,"x_min":50,"x_max":800,"o":"m 50 -1 l 50 28 q 138 56 125 28 l 138 374 l 53 374 l 53 435 l 138 435 l 138 754 q 50 782 125 782 l 50 811 l 369 811 q 678 698 557 811 q 800 407 800 585 q 681 113 800 228 q 386 -1 563 -1 l 50 -1 m 314 374 l 314 46 l 386 46 q 547 135 481 46 q 613 406 613 224 q 543 680 613 589 q 369 771 474 771 l 314 771 l 314 435 l 500 435 l 500 374 l 314 374 z "},"đ":{"ha":801,"x_min":43,"x_max":782,"o":"m 521 553 q 393 583 468 583 q 278 508 332 583 q 224 308 224 433 q 269 113 224 193 q 368 33 315 33 q 521 78 464 33 l 521 553 m 694 681 l 694 83 q 782 78 769 78 l 782 46 q 654 16 756 46 q 521 -14 553 -14 l 521 32 q 354 -14 454 -14 q 280 -5 318 -14 q 198 27 242 4 q 121 85 154 50 q 65 178 88 121 q 43 308 43 236 q 142 546 43 461 q 385 631 240 631 q 521 597 464 631 l 521 681 l 349 681 l 349 729 l 521 729 l 521 778 q 433 783 446 783 l 433 815 q 561 845 460 815 q 694 875 663 875 l 694 729 l 749 729 l 749 681 l 694 681 z "},"Ē":{"ha":699,"x_min":50,"x_max":686,"o":"m 193 956 l 560 956 l 560 881 l 193 881 l 193 956 m 50 0 l 50 29 q 138 57 125 29 l 138 756 q 50 783 125 783 l 50 813 l 624 813 l 624 678 l 594 678 q 567 765 594 753 l 314 765 l 314 446 l 474 446 q 501 533 501 458 l 531 533 l 531 311 l 501 311 q 474 399 501 386 l 314 399 l 314 47 l 596 47 q 658 135 631 63 l 686 135 l 653 0 l 50 0 z "},"ē":{"ha":696,"x_min":43,"x_max":663,"o":"m 157 810 l 524 810 l 524 735 l 157 735 l 157 810 m 224 335 q 278 126 226 214 q 411 39 331 39 q 606 131 532 39 l 639 114 q 534 17 599 47 q 364 -14 469 -14 q 258 2 310 -14 q 156 55 207 18 q 74 164 106 92 q 43 336 43 236 q 128 541 43 457 q 350 625 214 625 q 581 541 499 625 q 663 335 663 457 l 224 335 m 225 378 l 478 378 q 444 530 469 476 q 361 583 418 583 q 272 533 311 583 q 225 378 232 482 z "},"Ĕ":{"ha":699,"x_min":50,"x_max":686,"o":"m 385 875 q 255 931 300 875 q 210 1047 210 988 l 249 1047 q 385 986 278 986 q 521 1047 492 986 l 560 1047 q 515 931 560 986 q 385 875 471 875 m 50 0 l 50 29 q 138 57 125 29 l 138 756 q 50 783 125 783 l 50 813 l 624 813 l 624 678 l 594 678 q 567 765 594 753 l 314 765 l 314 446 l 474 446 q 501 533 501 458 l 531 533 l 531 311 l 501 311 q 474 399 501 386 l 314 399 l 314 47 l 596 47 q 658 135 631 63 l 686 135 l 653 0 l 50 0 z "},"ĕ":{"ha":696,"x_min":43,"x_max":663,"o":"m 349 729 q 219 785 264 729 q 174 901 174 842 l 213 901 q 349 840 242 840 q 485 901 456 840 l 524 901 q 479 785 524 840 q 349 729 435 729 m 224 335 q 278 126 226 214 q 411 39 331 39 q 606 131 532 39 l 639 114 q 534 17 599 47 q 364 -14 469 -14 q 258 2 310 -14 q 156 55 207 18 q 74 164 106 92 q 43 336 43 236 q 128 541 43 457 q 350 625 214 625 q 581 541 499 625 q 663 335 663 457 l 224 335 m 225 378 l 478 378 q 444 530 469 476 q 361 583 418 583 q 272 533 311 583 q 225 378 232 482 z "},"Ė":{"ha":699,"x_min":50,"x_max":686,"o":"m 325 887 q 313 899 325 887 q 300 947 300 911 q 325 1008 300 983 q 385 1032 350 1032 q 444 1008 419 1032 q 469 947 469 983 q 444 887 469 911 q 385 863 419 863 q 325 887 350 863 m 50 0 l 50 29 q 138 57 125 29 l 138 756 q 50 783 125 783 l 50 813 l 624 813 l 624 678 l 594 678 q 567 765 594 753 l 314 765 l 314 446 l 474 446 q 501 533 501 458 l 531 533 l 531 311 l 501 311 q 474 399 501 386 l 314 399 l 314 47 l 596 47 q 658 135 631 63 l 686 135 l 653 0 l 50 0 z "},"ė":{"ha":696,"x_min":43,"x_max":663,"o":"m 289 742 q 276 754 289 742 q 264 801 264 767 q 289 861 264 836 q 349 886 314 886 q 408 861 383 886 q 433 801 433 836 q 408 742 433 767 q 349 717 383 717 q 289 742 314 717 m 224 335 q 278 126 226 214 q 411 39 331 39 q 606 131 532 39 l 639 114 q 534 17 599 47 q 364 -14 469 -14 q 258 2 310 -14 q 156 55 207 18 q 74 164 106 92 q 43 336 43 236 q 128 541 43 457 q 350 625 214 625 q 581 541 499 625 q 663 335 663 457 l 224 335 m 225 378 l 478 378 q 444 530 469 476 q 361 583 418 583 q 272 533 311 583 q 225 378 232 482 z "},"Ę":{"ha":699,"x_min":50,"x_max":715,"o":"m 50 0 l 50 29 q 138 57 125 29 l 138 756 q 50 783 125 783 l 50 813 l 624 813 l 624 678 l 594 678 q 567 765 594 753 l 314 765 l 314 446 l 474 446 q 501 533 501 458 l 531 533 l 531 311 l 501 311 q 474 399 501 386 l 314 399 l 314 47 l 596 47 q 658 135 631 63 l 686 135 l 653 0 l 578 0 q 542 -94 542 -43 q 574 -194 542 -158 q 657 -231 606 -231 q 678 -225 668 -231 q 694 -214 689 -219 l 700 -208 l 715 -233 q 706 -246 713 -239 q 670 -265 699 -253 q 606 -278 642 -278 q 498 -242 536 -278 q 460 -143 460 -206 q 526 0 460 -62 l 50 0 z "},"ę":{"ha":699,"x_min":44,"x_max":664,"o":"m 226 378 l 479 378 q 445 530 471 476 q 363 583 419 583 q 273 533 313 583 q 226 378 233 482 m 225 335 l 226 335 q 281 126 229 214 q 414 39 333 39 q 608 131 535 39 l 642 114 q 440 -8 576 8 q 411 -94 411 -49 q 443 -194 411 -158 q 526 -231 475 -231 q 548 -225 538 -231 q 564 -214 558 -219 l 569 -208 l 585 -233 q 575 -246 582 -239 q 540 -265 568 -253 q 475 -278 511 -278 q 367 -242 406 -278 q 329 -143 329 -206 q 382 -14 329 -72 l 365 -14 q 260 2 311 -14 q 158 55 208 18 q 76 164 107 92 q 44 336 44 236 q 130 541 44 457 q 351 625 215 625 q 582 541 500 625 q 664 335 664 457 l 225 335 z "},"Ě":{"ha":699,"x_min":50,"x_max":686,"o":"m 351 861 l 221 1086 l 271 1086 l 386 979 l 501 1086 l 551 1086 l 421 861 l 351 861 m 50 0 l 50 29 q 138 57 125 29 l 138 756 q 50 783 125 783 l 50 813 l 624 813 l 624 678 l 594 678 q 567 765 594 753 l 314 765 l 314 446 l 474 446 q 501 533 501 458 l 531 533 l 531 311 l 501 311 q 474 399 501 386 l 314 399 l 314 47 l 596 47 q 658 135 631 63 l 686 135 l 653 0 l 50 0 z "},"ě":{"ha":696,"x_min":43,"x_max":663,"o":"m 315 715 l 185 940 l 235 940 l 350 833 l 465 940 l 515 940 l 385 715 l 315 715 m 224 335 q 278 126 226 214 q 411 39 331 39 q 606 131 532 39 l 639 114 q 534 17 599 47 q 364 -14 469 -14 q 258 2 310 -14 q 156 55 207 18 q 74 164 106 92 q 43 336 43 236 q 128 541 43 457 q 350 625 214 625 q 581 541 499 625 q 663 335 663 457 l 224 335 m 225 378 l 478 378 q 444 530 469 476 q 361 583 418 583 q 272 533 311 583 q 225 378 232 482 z "},"Ĝ":{"ha":865,"x_min":46,"x_max":853,"o":"m 535 1086 l 665 861 l 615 861 l 500 954 l 385 861 l 335 861 l 465 1086 l 535 1086 m 503 779 q 313 669 386 779 q 239 397 239 558 q 310 122 239 210 q 483 33 382 33 q 589 46 542 33 l 589 344 q 501 372 576 372 l 501 401 l 853 401 l 853 372 q 765 344 778 372 l 765 111 q 667 27 742 68 q 481 -14 592 -14 q 169 108 293 -14 q 46 394 46 231 q 115 624 46 524 q 288 776 185 725 q 501 826 390 826 q 606 806 542 826 q 676 785 669 785 q 693 813 693 785 l 725 813 l 739 611 l 708 611 q 631 724 700 668 q 503 779 561 779 z "},"ĝ":{"ha":746,"x_min":44,"x_max":667,"o":"m 421 940 l 551 715 l 501 715 l 386 808 l 271 715 l 221 715 l 351 940 l 421 940 m 667 625 l 667 40 q 585 -188 667 -99 q 369 -278 504 -278 q 167 -244 242 -278 q 92 -156 92 -211 q 167 -67 92 -67 q 213 -86 194 -67 q 231 -132 231 -106 q 196 -190 231 -176 q 356 -228 233 -228 q 453 -173 419 -228 q 492 17 486 -118 q 349 -14 433 -14 q 255 1 303 -14 q 157 49 207 15 q 76 148 107 82 q 44 303 44 214 q 140 541 44 457 q 379 625 236 625 q 529 583 468 625 q 667 625 633 625 m 493 61 l 493 90 l 493 558 q 388 578 450 578 q 225 303 225 578 q 240 165 225 222 q 277 81 254 107 q 321 44 300 54 q 363 33 342 33 q 493 61 438 33 z "},"Ğ":{"ha":865,"x_min":46,"x_max":853,"o":"m 500 875 q 370 931 415 875 q 325 1047 325 988 l 364 1047 q 500 986 393 986 q 636 1047 607 986 l 675 1047 q 631 931 675 986 q 500 875 586 875 m 503 779 q 313 669 386 779 q 239 397 239 558 q 310 122 239 210 q 483 33 382 33 q 589 46 542 33 l 589 344 q 501 372 576 372 l 501 401 l 853 401 l 853 372 q 765 344 778 372 l 765 111 q 667 27 742 68 q 481 -14 592 -14 q 169 108 293 -14 q 46 394 46 231 q 115 624 46 524 q 288 776 185 725 q 501 826 390 826 q 606 806 542 826 q 676 785 669 785 q 693 813 693 785 l 725 813 l 739 611 l 708 611 q 631 724 700 668 q 503 779 561 779 z "},"ğ":{"ha":746,"x_min":44,"x_max":667,"o":"m 386 729 q 256 785 301 729 q 211 901 211 842 l 250 901 q 386 840 279 840 q 522 901 493 840 l 561 901 q 517 785 561 840 q 386 729 472 729 m 667 625 l 667 40 q 585 -188 667 -99 q 369 -278 504 -278 q 167 -244 242 -278 q 92 -156 92 -211 q 167 -67 92 -67 q 213 -86 194 -67 q 231 -132 231 -106 q 196 -190 231 -176 q 356 -228 233 -228 q 453 -173 419 -228 q 492 17 486 -118 q 349 -14 433 -14 q 255 1 303 -14 q 157 49 207 15 q 76 148 107 82 q 44 303 44 214 q 140 541 44 457 q 379 625 236 625 q 529 583 468 625 q 667 625 633 625 m 493 61 l 493 90 l 493 558 q 388 578 450 578 q 225 303 225 578 q 240 165 225 222 q 277 81 254 107 q 321 44 300 54 q 363 33 342 33 q 493 61 438 33 z "},"Ġ":{"ha":865,"x_min":46,"x_max":853,"o":"m 440 887 q 427 899 440 887 q 415 947 415 911 q 440 1008 415 983 q 500 1032 464 1032 q 560 1008 536 1032 q 585 947 585 983 q 560 887 585 911 q 500 863 536 863 q 440 887 464 863 m 503 779 q 313 669 386 779 q 239 397 239 558 q 310 122 239 210 q 483 33 382 33 q 589 46 542 33 l 589 344 q 501 372 576 372 l 501 401 l 853 401 l 853 372 q 765 344 778 372 l 765 111 q 667 27 742 68 q 481 -14 592 -14 q 169 108 293 -14 q 46 394 46 231 q 115 624 46 524 q 288 776 185 725 q 501 826 390 826 q 606 806 542 826 q 676 785 669 785 q 693 813 693 785 l 725 813 l 739 611 l 708 611 q 631 724 700 668 q 503 779 561 779 z "},"ġ":{"ha":746,"x_min":44,"x_max":667,"o":"m 326 742 q 314 754 326 742 q 301 801 301 767 q 326 861 301 836 q 386 886 350 886 q 447 861 422 886 q 471 801 471 836 q 447 742 471 767 q 386 717 422 717 q 326 742 350 717 m 667 625 l 667 40 q 585 -188 667 -99 q 369 -278 504 -278 q 167 -244 242 -278 q 92 -156 92 -211 q 167 -67 92 -67 q 213 -86 194 -67 q 231 -132 231 -106 q 196 -190 231 -176 q 356 -228 233 -228 q 453 -173 419 -228 q 492 17 486 -118 q 349 -14 433 -14 q 255 1 303 -14 q 157 49 207 15 q 76 148 107 82 q 44 303 44 214 q 140 541 44 457 q 379 625 236 625 q 529 583 468 625 q 667 625 633 625 m 493 61 l 493 90 l 493 558 q 388 578 450 578 q 225 303 225 578 q 240 165 225 222 q 277 81 254 107 q 321 44 300 54 q 363 33 342 33 q 493 61 438 33 z "},"Ģ":{"ha":867,"x_min":47,"x_max":854,"o":"m 481 -181 q 424 -162 446 -181 q 403 -112 403 -144 q 420 -67 403 -83 q 450 -48 438 -50 q 474 -46 463 -46 q 569 -81 531 -46 q 608 -174 608 -117 q 422 -354 608 -297 l 422 -300 q 495 -263 460 -296 q 531 -190 531 -231 q 524 -162 531 -162 l 517 -167 q 501 -176 511 -172 q 481 -181 492 -181 m 504 779 q 314 669 388 779 q 240 397 240 558 q 312 122 240 210 q 485 33 383 33 q 590 46 542 33 l 590 344 q 503 372 578 372 l 503 401 l 854 401 l 854 372 q 767 344 779 372 l 767 111 q 668 27 743 68 q 482 -14 593 -14 q 171 108 294 -14 q 47 394 47 231 q 117 624 47 524 q 289 776 186 725 q 503 826 392 826 q 607 806 544 826 q 678 785 669 785 q 694 813 694 785 l 726 813 l 740 611 l 710 611 q 632 724 701 668 q 504 779 563 779 z "},"ģ":{"ha":746,"x_min":44,"x_max":667,"o":"m 329 854 q 336 826 329 826 q 342 831 336 826 q 358 840 349 836 q 379 844 368 844 q 435 826 414 844 q 457 776 457 808 q 440 731 457 747 q 410 712 422 714 q 386 710 397 710 q 290 745 329 710 q 251 838 251 781 q 438 1018 251 961 l 438 964 q 365 927 400 960 q 329 854 329 894 m 667 625 l 667 40 q 585 -188 667 -99 q 369 -278 504 -278 q 167 -244 242 -278 q 92 -156 92 -211 q 167 -67 92 -67 q 213 -86 194 -67 q 231 -132 231 -106 q 196 -190 231 -176 q 356 -228 233 -228 q 453 -173 419 -228 q 492 17 486 -118 q 349 -14 433 -14 q 255 1 303 -14 q 157 49 207 15 q 76 148 107 82 q 44 303 44 214 q 140 541 44 457 q 379 625 236 625 q 529 583 468 625 q 667 625 633 625 m 493 61 l 493 90 l 493 558 q 388 578 450 578 q 225 303 225 578 q 240 165 225 222 q 277 81 254 107 q 321 44 300 54 q 363 33 342 33 q 493 61 438 33 z "},"Ĥ":{"ha":935,"x_min":50,"x_max":885,"o":"m 500 1086 l 631 861 l 581 861 l 465 954 l 350 861 l 300 861 l 431 1086 l 500 1086 m 50 0 l 50 29 q 138 57 125 29 l 138 756 q 50 783 125 783 l 50 813 l 401 813 l 401 783 q 314 756 326 783 l 314 446 l 621 446 l 621 756 q 533 783 608 783 l 533 813 l 885 813 l 885 783 q 797 756 810 783 l 797 57 q 885 29 810 29 l 885 0 l 533 0 l 533 29 q 621 57 608 29 l 621 399 l 314 399 l 314 57 q 401 29 326 29 l 401 0 l 50 0 z "},"ĥ":{"ha":828,"x_min":19,"x_max":813,"o":"m 228 1135 l 358 910 l 308 910 l 193 1003 l 78 910 l 28 910 l 158 1135 l 228 1135 m 19 0 l 19 29 q 107 57 94 29 l 107 778 q 19 783 32 783 l 19 815 q 147 845 46 815 q 281 875 249 875 l 281 571 q 446 625 364 625 q 654 581 583 625 q 725 433 725 536 l 725 57 q 813 29 738 29 l 813 0 l 464 0 l 464 29 q 551 57 539 29 l 551 400 q 523 537 551 496 q 438 578 494 578 q 281 528 354 578 l 281 57 q 368 29 293 29 l 368 0 l 19 0 z "},"Ħ":{"ha":935,"x_min":50,"x_max":885,"o":"m 67 608 l 67 657 l 138 657 l 138 756 q 50 783 125 783 l 50 813 l 401 813 l 401 783 q 314 756 326 783 l 314 657 l 621 657 l 621 756 q 533 783 608 783 l 533 813 l 885 813 l 885 783 q 797 756 810 783 l 797 657 l 875 657 l 875 608 l 797 608 l 797 57 q 885 29 810 29 l 885 0 l 533 0 l 533 29 q 621 57 608 29 l 621 399 l 314 399 l 314 57 q 401 29 326 29 l 401 0 l 50 0 l 50 29 q 138 57 125 29 l 138 608 l 67 608 m 621 608 l 314 608 l 314 446 l 621 446 l 621 608 z "},"ħ":{"ha":828,"x_min":19,"x_max":813,"o":"m 38 681 l 38 729 l 107 729 l 107 778 q 19 783 32 783 l 19 815 q 147 845 46 815 q 281 875 249 875 l 281 729 l 438 729 l 438 681 l 281 681 l 281 571 q 446 625 364 625 q 654 581 583 625 q 725 433 725 536 l 725 57 q 813 29 738 29 l 813 0 l 464 0 l 464 29 q 551 57 539 29 l 551 400 q 523 537 551 496 q 438 578 494 578 q 281 528 354 578 l 281 57 q 368 29 293 29 l 368 0 l 19 0 l 19 29 q 107 57 94 29 l 107 681 l 38 681 z "},"Ĩ":{"ha":451,"x_min":25,"x_max":443,"o":"m 336 847 q 223 888 306 847 q 121 929 140 929 q 65 915 79 929 q 51 861 51 900 l 25 861 q 55 991 25 951 q 131 1031 85 1031 q 244 990 161 1031 q 347 949 328 949 q 403 963 389 949 q 417 1017 417 978 l 443 1017 q 413 887 443 926 q 336 847 382 847 m 50 0 l 50 29 q 138 57 125 29 l 138 756 q 50 783 125 783 l 50 813 l 401 813 l 401 783 q 314 756 326 783 l 314 57 q 401 29 326 29 l 401 0 l 50 0 z "},"ĩ":{"ha":401,"x_min":3,"x_max":421,"o":"m 314 701 q 201 742 283 701 q 99 783 118 783 q 43 769 57 783 q 29 715 29 754 l 3 715 q 33 845 3 806 q 108 885 63 885 q 222 844 139 885 q 325 803 306 803 q 381 817 367 803 q 394 871 394 832 l 421 871 q 390 741 421 781 q 314 701 360 701 m 33 0 l 33 29 q 121 57 108 29 l 121 528 q 33 533 49 533 l 33 565 q 161 595 60 565 q 294 625 263 625 l 294 57 q 382 29 307 29 l 382 0 l 33 0 z "},"Ī":{"ha":451,"x_min":40,"x_max":407,"o":"m 40 956 l 407 956 l 407 881 l 40 881 l 40 956 m 50 0 l 50 29 q 138 57 125 29 l 138 756 q 50 783 125 783 l 50 813 l 401 813 l 401 783 q 314 756 326 783 l 314 57 q 401 29 326 29 l 401 0 l 50 0 z "},"ī":{"ha":401,"x_min":18,"x_max":385,"o":"m 18 810 l 385 810 l 385 735 l 18 735 l 18 810 m 33 0 l 33 29 q 121 57 108 29 l 121 528 q 33 533 49 533 l 33 565 q 161 595 60 565 q 294 625 263 625 l 294 57 q 382 29 307 29 l 382 0 l 33 0 z "},"Ĭ":{"ha":451,"x_min":50,"x_max":407,"o":"m 232 875 q 102 931 147 875 q 57 1047 57 988 l 96 1047 q 232 986 125 986 q 368 1047 339 986 l 407 1047 q 363 931 407 986 q 232 875 318 875 m 50 0 l 50 29 q 138 57 125 29 l 138 756 q 50 783 125 783 l 50 813 l 401 813 l 401 783 q 314 756 326 783 l 314 57 q 401 29 326 29 l 401 0 l 50 0 z "},"ĭ":{"ha":401,"x_min":33,"x_max":385,"o":"m 210 729 q 80 785 125 729 q 35 901 35 842 l 74 901 q 210 840 103 840 q 346 901 317 840 l 385 901 q 340 785 385 840 q 210 729 296 729 m 33 0 l 33 29 q 121 57 108 29 l 121 528 q 33 533 49 533 l 33 565 q 161 595 60 565 q 294 625 263 625 l 294 57 q 382 29 307 29 l 382 0 l 33 0 z "},"Į":{"ha":451,"x_min":50,"x_max":464,"o":"m 50 0 l 50 29 q 138 57 125 29 l 138 756 q 50 783 125 783 l 50 813 l 401 813 l 401 783 q 314 756 326 783 l 314 57 q 401 29 326 29 l 401 0 l 326 0 q 290 -94 290 -43 q 322 -194 290 -158 q 406 -231 354 -231 q 428 -225 417 -231 q 444 -214 439 -219 l 449 -208 l 464 -233 q 454 -246 461 -239 q 419 -265 447 -253 q 354 -278 390 -278 q 247 -242 285 -278 q 208 -143 208 -206 q 275 0 208 -62 l 50 0 z "},"į":{"ha":401,"x_min":33,"x_max":443,"o":"m 204 714 q 137 738 171 714 q 103 796 103 763 q 134 850 103 825 q 200 875 165 875 q 267 851 233 875 q 301 792 301 826 q 270 738 301 763 q 204 714 239 714 m 33 0 l 33 29 q 121 57 108 29 l 121 528 q 33 533 49 533 l 33 565 q 161 595 60 565 q 294 625 263 625 l 294 57 q 382 29 307 29 l 382 0 l 306 0 q 269 -94 269 -43 q 301 -194 269 -158 q 385 -231 333 -231 q 406 -225 396 -231 q 422 -214 417 -219 l 428 -208 l 443 -233 q 433 -246 440 -239 q 398 -265 426 -253 q 333 -278 369 -278 q 226 -242 264 -278 q 188 -143 188 -206 q 254 0 188 -62 l 33 0 z "},"İ":{"ha":451,"x_min":50,"x_max":401,"o":"m 172 887 q 160 899 172 887 q 147 947 147 911 q 172 1008 147 983 q 232 1032 197 1032 q 292 1008 267 1032 q 317 947 317 983 q 292 887 317 911 q 232 863 267 863 q 172 887 197 863 m 50 0 l 50 29 q 138 57 125 29 l 138 756 q 50 783 125 783 l 50 813 l 401 813 l 401 783 q 314 756 326 783 l 314 57 q 401 29 326 29 l 401 0 l 50 0 z "},"ı":{"ha":401,"x_min":33,"x_max":382,"o":"m 33 0 l 33 29 q 121 57 108 29 l 121 528 q 33 533 49 533 l 33 565 q 161 595 60 565 q 294 625 263 625 l 294 57 q 382 29 307 29 l 382 0 l 33 0 z "},"Ĳ":{"ha":1013,"x_min":50,"x_max":986,"o":"m 50 0 l 50 29 q 138 57 125 29 l 138 756 q 50 783 125 783 l 50 813 l 401 813 l 401 783 q 314 756 326 783 l 314 57 q 401 29 326 29 l 401 0 l 50 0 m 899 303 q 834 64 899 142 q 633 -14 769 -14 q 480 26 535 -14 q 425 111 425 65 q 445 169 425 143 q 492 194 465 194 q 538 176 515 194 q 561 132 561 157 q 526 74 561 85 q 533 66 528 72 q 542 56 538 60 q 557 47 547 53 q 583 39 567 42 q 619 36 599 36 q 701 110 681 36 q 722 353 722 185 l 722 756 q 635 783 710 783 l 635 813 l 986 813 l 986 783 q 899 756 911 783 l 899 303 z "},"ĳ":{"ha":765,"x_min":33,"x_max":693,"o":"m 33 0 l 33 29 q 121 57 108 29 l 121 528 q 33 533 49 533 l 33 565 q 161 595 60 565 q 294 625 263 625 l 294 57 q 382 29 307 29 l 382 0 l 33 0 m 204 714 q 137 738 171 714 q 103 796 103 763 q 134 850 103 825 q 200 875 165 875 q 267 851 233 875 q 301 792 301 826 q 270 738 301 763 q 204 714 239 714 m 594 715 q 528 740 561 715 q 494 797 494 764 q 525 851 494 826 q 590 876 556 876 q 658 851 624 876 q 693 793 693 826 q 661 740 693 764 q 594 715 629 715 m 513 529 q 425 535 440 535 l 425 567 q 553 597 451 567 q 686 626 654 626 l 686 -60 q 618 -224 686 -171 q 465 -276 550 -276 q 285 -156 285 -276 q 302 -105 285 -126 q 351 -83 319 -83 q 397 -105 381 -83 q 413 -154 413 -126 q 399 -187 413 -174 q 451 -235 399 -235 q 495 -194 478 -235 q 513 -79 513 -154 l 513 529 z "},"Ĵ":{"ha":589,"x_min":1,"x_max":563,"o":"m 426 1086 l 557 861 l 507 861 l 392 954 l 276 861 l 226 861 l 357 1086 l 426 1086 m 475 303 q 410 64 475 142 q 210 -14 346 -14 q 56 26 111 -14 q 1 111 1 65 q 22 169 1 143 q 68 194 42 194 q 115 176 92 194 q 138 132 138 157 q 103 74 138 85 q 109 66 104 72 q 119 56 114 60 q 133 47 124 53 q 159 39 143 42 q 196 36 175 36 q 278 110 257 36 q 299 353 299 185 l 299 756 q 211 783 286 783 l 211 813 l 563 813 l 563 783 q 475 756 488 783 l 475 303 z "},"ĵ":{"ha":358,"x_min":-122,"x_max":353,"o":"m 222 940 l 353 715 l 303 715 l 188 808 l 72 715 l 22 715 l 153 940 l 222 940 m 106 529 q 18 535 33 535 l 18 567 q 146 597 44 567 q 279 626 247 626 l 279 -60 q 211 -224 279 -171 q 58 -276 143 -276 q -122 -156 -122 -276 q -105 -105 -122 -126 q -56 -83 -87 -83 q -10 -105 -26 -83 q 6 -154 6 -126 q -8 -187 6 -174 q 44 -235 -8 -235 q 88 -194 71 -235 q 106 -79 106 -154 l 106 529 z "},"Ķ":{"ha":872,"x_min":49,"x_max":901,"o":"m 485 -181 q 428 -162 450 -181 q 407 -112 407 -144 q 424 -67 407 -83 q 454 -48 442 -50 q 478 -46 467 -46 q 574 -81 535 -46 q 613 -174 613 -117 q 426 -354 613 -297 l 426 -300 q 499 -263 464 -296 q 535 -190 535 -231 q 528 -162 535 -162 l 522 -167 q 506 -176 515 -172 q 485 -181 496 -181 m 49 0 l 49 29 q 136 57 124 29 l 136 756 q 49 783 124 783 l 49 813 l 397 813 l 397 783 q 310 756 322 783 l 310 57 q 397 29 322 29 l 397 0 l 49 0 m 582 0 l 582 29 q 633 33 614 29 l 317 436 l 657 774 q 586 783 638 783 l 586 813 l 804 813 l 804 783 q 782 783 792 783 q 764 779 772 782 q 750 775 756 776 q 739 769 744 774 q 731 764 733 765 q 724 757 729 763 l 718 751 l 465 503 l 814 51 q 901 29 832 29 l 901 0 l 582 0 z "},"ķ":{"ha":765,"x_min":19,"x_max":789,"o":"m 419 -181 q 363 -162 385 -181 q 342 -112 342 -144 q 359 -67 342 -83 q 389 -48 376 -50 q 413 -46 401 -46 q 508 -81 469 -46 q 547 -174 547 -117 q 361 -354 547 -297 l 361 -300 q 434 -263 399 -296 q 469 -190 469 -231 q 463 -162 469 -162 l 456 -167 q 440 -176 450 -172 q 419 -181 431 -181 m 19 0 l 19 29 q 107 57 94 29 l 107 778 q 19 783 32 783 l 19 815 q 147 845 46 815 q 281 875 249 875 l 281 57 q 368 29 293 29 l 368 0 l 19 0 m 469 0 l 469 29 q 522 33 503 29 l 290 353 l 536 574 q 468 582 515 582 l 468 611 l 686 611 l 686 582 q 611 564 632 582 l 443 414 l 701 56 q 789 29 721 29 l 789 0 l 469 0 z "},"Ĺ":{"ha":692,"x_min":50,"x_max":693,"o":"m 240 1086 l 415 1086 l 229 861 l 165 861 l 240 1086 m 50 0 l 50 29 q 138 57 125 29 l 138 756 q 50 783 125 783 l 50 813 l 401 813 l 401 783 q 314 756 326 783 l 314 47 l 603 47 q 665 135 638 63 l 693 135 l 660 0 l 50 0 z "},"ĺ":{"ha":388,"x_min":19,"x_max":385,"o":"m 210 1135 l 385 1135 l 199 910 l 135 910 l 210 1135 m 19 0 l 19 29 q 107 57 94 29 l 107 778 q 19 783 32 783 l 19 815 q 147 845 46 815 q 281 875 249 875 l 281 57 q 368 29 293 29 l 368 0 l 19 0 z "},"Ļ":{"ha":688,"x_min":49,"x_max":692,"o":"m 390 -181 q 334 -162 356 -181 q 313 -112 313 -144 q 330 -67 313 -83 q 360 -48 347 -50 q 383 -46 372 -46 q 479 -81 440 -46 q 518 -174 518 -117 q 332 -354 518 -297 l 332 -300 q 405 -263 369 -296 q 440 -190 440 -231 q 433 -162 440 -162 l 428 -167 q 411 -176 421 -172 q 390 -181 401 -181 m 49 0 l 49 29 q 136 57 124 29 l 136 756 q 49 783 124 783 l 49 813 l 400 813 l 400 783 q 313 756 325 783 l 313 47 l 601 47 q 664 135 636 63 l 692 135 l 658 0 l 49 0 z "},"ļ":{"ha":388,"x_min":19,"x_max":368,"o":"m 200 -181 q 144 -162 165 -181 q 122 -112 122 -144 q 140 -67 122 -83 q 169 -48 157 -50 q 193 -46 182 -46 q 289 -81 250 -46 q 328 -174 328 -117 q 142 -354 328 -297 l 142 -300 q 215 -263 179 -296 q 250 -190 250 -231 q 243 -162 250 -162 l 236 -167 q 221 -176 231 -172 q 200 -181 211 -181 m 19 0 l 19 29 q 107 57 94 29 l 107 778 q 19 783 32 783 l 19 815 q 147 845 46 815 q 281 875 249 875 l 281 57 q 368 29 293 29 l 368 0 l 19 0 z "},"Ľ":{"ha":700,"x_min":50,"x_max":693,"o":"m 50 0 l 50 29 q 138 57 125 29 l 138 756 q 50 783 125 783 l 50 813 l 401 813 l 401 783 q 314 756 326 783 l 314 47 l 603 47 q 665 135 638 63 l 693 135 l 660 0 l 50 0 m 515 699 q 459 717 481 699 q 438 767 438 735 q 455 813 438 796 q 485 831 472 829 q 508 833 497 833 q 604 798 565 833 q 643 706 643 763 q 457 525 643 582 l 457 579 q 530 616 494 583 q 565 689 565 649 q 558 717 565 717 l 553 713 q 536 703 546 708 q 515 699 526 699 z "},"ľ":{"ha":431,"x_min":19,"x_max":531,"o":"m 19 0 l 19 29 q 107 57 94 29 l 107 778 q 19 783 32 783 l 19 815 q 147 845 46 815 q 281 875 249 875 l 281 57 q 368 29 293 29 l 368 0 l 19 0 m 403 747 q 347 765 368 747 q 325 815 325 783 q 342 861 325 844 q 372 880 360 878 q 396 882 385 882 q 492 847 453 882 q 531 754 531 811 q 344 574 531 631 l 344 628 q 417 665 382 632 q 453 738 453 697 q 446 765 453 765 l 439 761 q 424 751 433 756 q 403 747 414 747 z "},"Ŀ":{"ha":693,"x_min":50,"x_max":693,"o":"m 50 0 l 50 29 q 138 57 125 29 l 138 756 q 50 783 125 783 l 50 813 l 401 813 l 401 783 q 314 756 326 783 l 314 47 l 603 47 q 665 135 638 63 l 693 135 l 660 0 l 50 0 m 450 381 q 438 393 450 381 q 425 442 425 406 q 450 502 425 478 q 510 526 475 526 q 569 502 544 526 q 594 442 594 478 q 569 381 594 406 q 510 357 544 357 q 450 381 475 357 z "},"ŀ":{"ha":439,"x_min":19,"x_max":500,"o":"m 19 0 l 19 29 q 107 57 94 29 l 107 778 q 19 783 32 783 l 19 815 q 147 845 46 815 q 281 875 249 875 l 281 57 q 368 29 293 29 l 368 0 l 19 0 m 356 381 q 343 393 356 381 q 331 442 331 406 q 356 502 331 478 q 415 526 381 526 q 475 502 450 526 q 500 442 500 478 q 475 381 500 406 q 415 357 450 357 q 356 381 381 357 z "},"Ł":{"ha":692,"x_min":44,"x_max":693,"o":"m 50 0 l 50 29 q 138 57 125 29 l 138 375 l 75 324 l 44 360 l 138 436 l 138 756 q 50 783 125 783 l 50 813 l 401 813 l 401 783 q 314 756 326 783 l 314 581 l 367 624 l 397 588 l 314 519 l 314 47 l 603 47 q 665 135 638 63 l 693 135 l 660 0 l 50 0 z "},"ł":{"ha":389,"x_min":19,"x_max":374,"o":"m 19 0 l 19 29 q 107 57 94 29 l 107 369 l 51 324 l 21 360 l 107 431 l 107 778 q 19 783 32 783 l 19 815 q 147 845 46 815 q 281 875 249 875 l 281 572 l 343 624 l 374 588 l 281 511 l 281 57 q 368 29 293 29 l 368 0 l 19 0 z "},"Ń":{"ha":865,"x_min":50,"x_max":831,"o":"m 447 1086 l 622 1086 l 436 861 l 372 861 l 447 1086 m 50 0 l 50 29 q 138 57 125 29 l 138 756 q 50 783 125 783 l 50 813 l 285 813 l 696 250 l 696 756 q 608 783 683 783 l 608 813 l 831 813 l 831 783 q 743 756 756 783 l 743 0 l 682 0 l 185 688 l 185 57 q 272 29 197 29 l 272 0 l 50 0 z "},"ń":{"ha":829,"x_min":33,"x_max":815,"o":"m 447 942 l 622 942 l 436 717 l 372 717 l 447 942 m 33 0 l 33 29 q 121 57 108 29 l 121 528 q 33 533 46 533 l 33 565 q 161 595 60 565 q 294 625 263 625 l 294 567 q 447 625 364 625 q 654 576 581 625 q 728 428 728 526 l 728 57 q 815 29 740 29 l 815 0 l 467 0 l 467 29 q 554 57 542 29 l 554 438 q 526 539 554 500 q 439 578 497 578 q 294 522 353 578 l 294 57 q 382 29 307 29 l 382 0 l 33 0 z "},"Ņ":{"ha":864,"x_min":49,"x_max":829,"o":"m 438 -181 q 381 -162 403 -181 q 360 -112 360 -144 q 377 -67 360 -83 q 407 -48 394 -50 q 431 -46 419 -46 q 526 -81 488 -46 q 565 -174 565 -117 q 379 -354 565 -297 l 379 -300 q 452 -263 417 -296 q 488 -190 488 -231 q 481 -162 488 -162 l 475 -167 q 458 -176 468 -172 q 438 -181 449 -181 m 49 0 l 49 29 q 136 57 124 29 l 136 756 q 49 783 124 783 l 49 813 l 283 813 l 694 250 l 694 756 q 607 783 682 783 l 607 813 l 829 813 l 829 783 q 742 756 754 783 l 742 0 l 681 0 l 183 688 l 183 57 q 271 29 196 29 l 271 0 l 49 0 z "},"ņ":{"ha":829,"x_min":33,"x_max":815,"o":"m 424 -181 q 367 -162 389 -181 q 346 -112 346 -144 q 363 -67 346 -83 q 393 -48 381 -50 q 417 -46 406 -46 q 513 -81 474 -46 q 551 -174 551 -117 q 365 -354 551 -297 l 365 -300 q 438 -263 403 -296 q 474 -190 474 -231 q 467 -162 474 -162 l 461 -167 q 444 -176 454 -172 q 424 -181 435 -181 m 33 0 l 33 29 q 121 57 108 29 l 121 528 q 33 533 46 533 l 33 565 q 161 595 60 565 q 294 625 263 625 l 294 567 q 447 625 364 625 q 654 576 581 625 q 728 428 728 526 l 728 57 q 815 29 740 29 l 815 0 l 467 0 l 467 29 q 554 57 542 29 l 554 438 q 526 539 554 500 q 439 578 497 578 q 294 522 353 578 l 294 57 q 382 29 307 29 l 382 0 l 33 0 z "},"Ň":{"ha":865,"x_min":50,"x_max":831,"o":"m 400 861 l 269 1086 l 319 1086 l 435 979 l 550 1086 l 600 1086 l 469 861 l 400 861 m 50 0 l 50 29 q 138 57 125 29 l 138 756 q 50 783 125 783 l 50 813 l 285 813 l 696 250 l 696 756 q 608 783 683 783 l 608 813 l 831 813 l 831 783 q 743 756 756 783 l 743 0 l 682 0 l 185 688 l 185 57 q 272 29 197 29 l 272 0 l 50 0 z "},"ň":{"ha":829,"x_min":33,"x_max":815,"o":"m 400 717 l 269 942 l 319 942 l 435 835 l 550 942 l 600 942 l 469 717 l 400 717 m 33 0 l 33 29 q 121 57 108 29 l 121 528 q 33 533 46 533 l 33 565 q 161 595 60 565 q 294 625 263 625 l 294 567 q 447 625 364 625 q 654 576 581 625 q 728 428 728 526 l 728 57 q 815 29 740 29 l 815 0 l 467 0 l 467 29 q 554 57 542 29 l 554 438 q 526 539 554 500 q 439 578 497 578 q 294 522 353 578 l 294 57 q 382 29 307 29 l 382 0 l 33 0 z "},"ŉ":{"ha":829,"x_min":-74,"x_max":815,"o":"m 4 796 q -52 814 -31 796 q -74 864 -74 832 q -56 910 -74 893 q -26 928 -39 926 q -3 931 -14 931 q 93 895 54 931 q 132 803 132 860 q -54 622 132 679 l -54 676 q 19 713 -17 681 q 54 786 54 746 q 47 814 54 814 l 42 810 q 25 801 35 806 q 4 796 15 796 m 33 0 l 33 29 q 121 57 108 29 l 121 528 q 33 533 46 533 l 33 565 q 161 595 60 565 q 294 625 263 625 l 294 567 q 447 625 364 625 q 654 576 581 625 q 728 428 728 526 l 728 57 q 815 29 740 29 l 815 0 l 467 0 l 467 29 q 554 57 542 29 l 554 438 q 526 539 554 500 q 439 578 497 578 q 294 522 353 578 l 294 57 q 382 29 307 29 l 382 0 l 33 0 z "},"Ŋ":{"ha":936,"x_min":50,"x_max":881,"o":"m 50 0 l 50 29 q 138 57 125 29 l 138 756 q 50 783 125 783 l 50 813 l 314 813 l 314 704 q 517 826 399 826 q 773 723 665 826 q 881 431 881 619 q 803 102 881 218 q 608 -14 725 -14 q 483 11 542 -14 q 425 81 425 36 q 443 115 425 100 q 483 131 461 131 q 547 69 515 131 q 560 45 557 51 q 572 33 564 39 q 594 28 581 28 q 680 113 656 28 q 704 392 704 197 q 503 779 704 779 q 398 733 449 779 q 314 614 347 688 l 314 57 q 401 29 326 29 l 401 0 l 50 0 z "},"ŋ":{"ha":803,"x_min":33,"x_max":728,"o":"m 33 0 l 33 29 q 121 57 108 29 l 121 528 q 33 533 46 533 l 33 565 q 161 595 60 565 q 294 625 263 625 l 294 567 q 447 625 364 625 q 654 576 581 625 q 728 428 728 526 l 728 -61 q 670 -226 728 -174 q 531 -278 613 -278 q 324 -183 324 -278 q 342 -149 324 -164 q 382 -133 360 -133 q 446 -194 414 -133 q 504 -236 467 -236 q 554 -81 554 -236 l 554 438 q 526 539 554 500 q 439 578 497 578 q 294 522 353 578 l 294 57 q 382 29 307 29 l 382 0 l 33 0 z "},"Ō":{"ha":922,"x_min":49,"x_max":874,"o":"m 275 956 l 642 956 l 642 881 l 275 881 l 275 956 m 236 417 q 256 240 236 322 q 331 96 276 158 q 467 33 385 33 q 574 66 529 33 q 642 154 618 99 q 676 269 665 210 q 686 394 686 328 q 665 571 686 488 q 590 717 644 654 q 456 779 536 779 q 349 746 393 779 q 281 657 304 713 q 247 542 257 601 q 236 417 236 483 m 169 110 q 109 173 169 110 q 49 406 49 235 q 169 701 49 576 q 461 826 290 826 q 753 701 632 826 q 874 406 874 576 q 752 110 874 235 q 461 -14 631 -14 q 169 110 289 -14 z "},"ō":{"ha":757,"x_min":43,"x_max":714,"o":"m 189 810 l 556 810 l 556 735 l 189 735 l 189 810 m 225 344 q 269 104 225 181 q 403 28 313 28 q 499 94 465 28 q 532 268 532 160 q 492 510 532 438 q 351 582 453 582 q 258 513 292 582 q 225 344 225 443 m 385 -14 q 135 78 228 -14 q 43 317 43 169 q 127 537 43 449 q 375 625 211 625 q 627 538 540 625 q 714 300 714 450 q 631 76 714 167 q 385 -14 547 -14 z "},"Ŏ":{"ha":922,"x_min":49,"x_max":874,"o":"m 467 875 q 337 931 382 875 q 292 1047 292 988 l 331 1047 q 467 986 360 986 q 603 1047 574 986 l 642 1047 q 597 931 642 986 q 467 875 553 875 m 236 417 q 256 240 236 322 q 331 96 276 158 q 467 33 385 33 q 574 66 529 33 q 642 154 618 99 q 676 269 665 210 q 686 394 686 328 q 665 571 686 488 q 590 717 644 654 q 456 779 536 779 q 349 746 393 779 q 281 657 304 713 q 247 542 257 601 q 236 417 236 483 m 169 110 q 109 173 169 110 q 49 406 49 235 q 169 701 49 576 q 461 826 290 826 q 753 701 632 826 q 874 406 874 576 q 752 110 874 235 q 461 -14 631 -14 q 169 110 289 -14 z "},"ŏ":{"ha":757,"x_min":43,"x_max":714,"o":"m 381 729 q 251 785 296 729 q 206 901 206 842 l 244 901 q 381 840 274 840 q 517 901 488 840 l 556 901 q 511 785 556 840 q 381 729 467 729 m 225 344 q 269 104 225 181 q 403 28 313 28 q 499 94 465 28 q 532 268 532 160 q 492 510 532 438 q 351 582 453 582 q 258 513 292 582 q 225 344 225 443 m 385 -14 q 135 78 228 -14 q 43 317 43 169 q 127 537 43 449 q 375 625 211 625 q 627 538 540 625 q 714 300 714 450 q 631 76 714 167 q 385 -14 547 -14 z "},"Ő":{"ha":922,"x_min":49,"x_max":874,"o":"m 361 1086 l 536 1086 l 350 861 l 286 861 l 361 1086 m 583 1086 l 758 1086 l 572 861 l 508 861 l 583 1086 m 236 417 q 256 240 236 322 q 331 96 276 158 q 467 33 385 33 q 574 66 529 33 q 642 154 618 99 q 676 269 665 210 q 686 394 686 328 q 665 571 686 488 q 590 717 644 654 q 456 779 536 779 q 349 746 393 779 q 281 657 304 713 q 247 542 257 601 q 236 417 236 483 m 169 110 q 109 173 169 110 q 49 406 49 235 q 169 701 49 576 q 461 826 290 826 q 753 701 632 826 q 874 406 874 576 q 752 110 874 235 q 461 -14 631 -14 q 169 110 289 -14 z "},"ő":{"ha":757,"x_min":43,"x_max":714,"o":"m 275 940 l 450 940 l 264 715 l 200 715 l 275 940 m 497 940 l 672 940 l 486 715 l 422 715 l 497 940 m 225 344 q 269 104 225 181 q 403 28 313 28 q 499 94 465 28 q 532 268 532 160 q 492 510 532 438 q 351 582 453 582 q 258 513 292 582 q 225 344 225 443 m 385 -14 q 135 78 228 -14 q 43 317 43 169 q 127 537 43 449 q 375 625 211 625 q 627 538 540 625 q 714 300 714 450 q 631 76 714 167 q 385 -14 547 -14 z "},"Œ":{"ha":1111,"x_min":49,"x_max":1099,"o":"m 236 417 q 256 240 236 322 q 331 96 276 158 q 467 33 385 33 q 571 65 525 33 l 571 738 q 456 779 522 779 q 349 746 393 779 q 281 657 304 713 q 247 542 257 601 q 236 417 236 483 m 565 0 q 461 -14 518 -14 q 169 110 289 -14 q 49 406 49 235 q 169 701 49 576 q 461 826 290 826 q 565 813 518 826 l 1036 813 l 1036 678 l 1007 678 q 979 765 1007 753 l 747 765 l 747 446 l 886 446 q 914 533 914 458 l 943 533 l 943 311 l 914 311 q 886 399 914 386 l 747 399 l 747 47 l 1008 47 q 1071 135 1043 63 l 1099 135 l 1065 0 l 565 0 z "},"œ":{"ha":1186,"x_min":43,"x_max":1153,"o":"m 385 -14 q 135 78 228 -14 q 43 317 43 169 q 127 537 43 449 q 375 625 211 625 q 621 543 532 625 q 840 625 707 625 q 1071 541 989 625 q 1153 335 1153 457 l 714 335 q 769 126 717 214 q 901 39 821 39 q 1096 131 1022 39 l 1129 114 q 1024 17 1089 47 q 854 -14 960 -14 q 626 74 715 -14 q 385 -14 536 -14 m 225 344 q 269 104 225 181 q 403 28 313 28 q 499 94 465 28 q 532 268 532 160 q 492 510 532 438 q 351 582 453 582 q 258 513 292 582 q 225 344 225 443 m 715 378 l 968 378 q 934 530 960 476 q 851 583 908 583 q 762 533 801 583 q 715 378 722 482 z "},"Ŕ":{"ha":818,"x_min":50,"x_max":836,"o":"m 429 1086 l 604 1086 l 418 861 l 354 861 l 429 1086 m 50 0 l 50 29 q 138 57 125 29 l 138 756 q 50 783 125 783 l 50 813 l 392 813 q 653 750 564 813 q 742 607 742 688 q 696 473 742 531 q 560 389 650 415 l 744 58 q 836 29 758 29 l 836 0 l 776 0 q 615 13 667 0 q 536 72 563 25 l 368 369 l 314 369 l 314 57 q 401 29 326 29 l 401 0 l 50 0 m 314 765 l 314 417 l 360 417 q 504 459 454 417 q 554 606 554 501 q 498 726 554 686 q 343 765 442 765 l 314 765 z "},"ŕ":{"ha":606,"x_min":33,"x_max":604,"o":"m 363 940 l 538 940 l 351 715 l 288 715 l 363 940 m 33 0 l 33 29 q 121 57 108 29 l 121 528 q 33 533 46 533 l 33 565 q 161 595 60 565 q 294 625 263 625 l 294 567 q 432 625 367 625 q 604 542 604 625 q 584 489 604 508 q 535 469 564 469 q 486 486 503 469 q 465 524 469 503 q 449 561 461 544 q 415 578 438 578 q 294 519 363 578 l 294 57 q 382 29 307 29 l 382 0 l 33 0 z "},"Ŗ":{"ha":817,"x_min":49,"x_max":835,"o":"m 472 -181 q 416 -162 438 -181 q 394 -112 394 -144 q 412 -67 394 -83 q 442 -48 429 -50 q 465 -46 454 -46 q 561 -81 522 -46 q 600 -174 600 -117 q 414 -354 600 -297 l 414 -300 q 487 -263 451 -296 q 522 -190 522 -231 q 515 -162 522 -162 l 508 -167 q 493 -176 503 -172 q 472 -181 483 -181 m 49 0 l 49 29 q 136 57 124 29 l 136 756 q 49 783 124 783 l 49 813 l 390 813 q 651 750 563 813 q 740 607 740 688 q 694 473 740 531 q 558 389 649 415 l 743 58 q 835 29 758 29 l 835 0 l 775 0 q 613 13 665 0 q 535 72 561 25 l 367 369 l 313 369 l 313 57 q 400 29 325 29 l 400 0 l 49 0 m 313 765 l 313 417 l 358 417 q 503 459 453 417 q 553 606 553 501 q 497 726 553 686 q 342 765 440 765 l 313 765 z "},"ŗ":{"ha":606,"x_min":33,"x_max":604,"o":"m 217 -181 q 160 -162 182 -181 q 139 -112 139 -144 q 156 -67 139 -83 q 186 -48 174 -50 q 210 -46 199 -46 q 306 -81 267 -46 q 344 -174 344 -117 q 158 -354 344 -297 l 158 -300 q 231 -263 196 -296 q 267 -190 267 -231 q 260 -162 267 -162 l 253 -167 q 238 -176 247 -172 q 217 -181 228 -181 m 33 0 l 33 29 q 121 57 108 29 l 121 528 q 33 533 46 533 l 33 565 q 161 595 60 565 q 294 625 263 625 l 294 567 q 432 625 367 625 q 604 542 604 625 q 584 489 604 508 q 535 469 564 469 q 486 486 503 469 q 465 524 469 503 q 449 561 461 544 q 415 578 438 578 q 294 519 363 578 l 294 57 q 382 29 307 29 l 382 0 l 33 0 z "},"Ř":{"ha":818,"x_min":50,"x_max":836,"o":"m 382 861 l 251 1086 l 301 1086 l 417 979 l 532 1086 l 582 1086 l 451 861 l 382 861 m 50 0 l 50 29 q 138 57 125 29 l 138 756 q 50 783 125 783 l 50 813 l 392 813 q 653 750 564 813 q 742 607 742 688 q 696 473 742 531 q 560 389 650 415 l 744 58 q 836 29 758 29 l 836 0 l 776 0 q 615 13 667 0 q 536 72 563 25 l 368 369 l 314 369 l 314 57 q 401 29 326 29 l 401 0 l 50 0 m 314 765 l 314 417 l 360 417 q 504 459 454 417 q 554 606 554 501 q 498 726 554 686 q 343 765 442 765 l 314 765 z "},"ř":{"ha":606,"x_min":33,"x_max":604,"o":"m 315 715 l 185 940 l 235 940 l 350 833 l 465 940 l 515 940 l 385 715 l 315 715 m 33 0 l 33 29 q 121 57 108 29 l 121 528 q 33 533 46 533 l 33 565 q 161 595 60 565 q 294 625 263 625 l 294 567 q 432 625 367 625 q 604 542 604 625 q 584 489 604 508 q 535 469 564 469 q 486 486 503 469 q 465 524 469 503 q 449 561 461 544 q 415 578 438 578 q 294 519 363 578 l 294 57 q 382 29 307 29 l 382 0 l 33 0 z "},"Ś":{"ha":653,"x_min":64,"x_max":613,"o":"m 333 1086 l 508 1086 l 322 861 l 258 861 l 333 1086 m 339 -14 q 200 7 271 -14 q 126 28 129 28 q 107 19 118 28 q 96 0 96 11 l 64 0 l 64 219 l 94 219 q 186 85 110 138 q 331 33 263 33 q 442 70 400 33 q 485 167 485 107 q 472 208 485 188 q 430 249 458 228 q 379 285 401 271 q 315 325 357 300 q 254 361 272 350 q 65 611 65 478 q 140 760 65 693 q 308 826 215 826 q 410 806 350 826 q 476 785 469 785 q 493 813 493 785 l 525 813 l 539 603 l 508 603 q 433 719 500 660 q 310 779 367 779 q 215 740 247 779 q 183 656 183 700 q 196 620 183 638 q 236 582 208 603 q 285 548 264 561 q 349 510 306 535 q 408 475 392 485 q 558 354 504 417 q 613 206 613 292 q 529 44 613 103 q 339 -14 446 -14 z "},"ś":{"ha":551,"x_min":53,"x_max":508,"o":"m 294 940 l 469 940 l 283 715 l 219 715 l 294 940 m 286 42 q 381 128 381 42 q 347 174 381 151 q 267 220 314 197 q 172 272 219 243 q 92 349 125 301 q 58 457 58 397 q 117 580 58 535 q 258 625 176 625 q 356 604 306 625 q 413 583 406 583 q 429 611 429 583 l 461 611 l 475 408 l 444 408 q 373 522 431 467 q 263 578 315 578 q 164 506 164 578 q 218 448 164 481 q 336 385 272 415 q 454 297 400 354 q 508 172 508 240 q 443 36 508 86 q 275 -14 378 -14 q 174 7 225 -14 q 117 28 122 28 q 100 0 100 28 l 67 0 l 53 213 l 83 213 q 167 99 97 157 q 286 42 238 42 z "},"Ŝ":{"ha":653,"x_min":64,"x_max":613,"o":"m 354 1086 l 485 861 l 435 861 l 319 954 l 204 861 l 154 861 l 285 1086 l 354 1086 m 339 -14 q 200 7 271 -14 q 126 28 129 28 q 107 19 118 28 q 96 0 96 11 l 64 0 l 64 219 l 94 219 q 186 85 110 138 q 331 33 263 33 q 442 70 400 33 q 485 167 485 107 q 472 208 485 188 q 430 249 458 228 q 379 285 401 271 q 315 325 357 300 q 254 361 272 350 q 65 611 65 478 q 140 760 65 693 q 308 826 215 826 q 410 806 350 826 q 476 785 469 785 q 493 813 493 785 l 525 813 l 539 603 l 508 603 q 433 719 500 660 q 310 779 367 779 q 215 740 247 779 q 183 656 183 700 q 196 620 183 638 q 236 582 208 603 q 285 548 264 561 q 349 510 306 535 q 408 475 392 485 q 558 354 504 417 q 613 206 613 292 q 529 44 613 103 q 339 -14 446 -14 z "},"ŝ":{"ha":551,"x_min":53,"x_max":508,"o":"m 315 940 l 446 715 l 396 715 l 281 808 l 165 715 l 115 715 l 246 940 l 315 940 m 286 42 q 381 128 381 42 q 347 174 381 151 q 267 220 314 197 q 172 272 219 243 q 92 349 125 301 q 58 457 58 397 q 117 580 58 535 q 258 625 176 625 q 356 604 306 625 q 413 583 406 583 q 429 611 429 583 l 461 611 l 475 408 l 444 408 q 373 522 431 467 q 263 578 315 578 q 164 506 164 578 q 218 448 164 481 q 336 385 272 415 q 454 297 400 354 q 508 172 508 240 q 443 36 508 86 q 275 -14 378 -14 q 174 7 225 -14 q 117 28 122 28 q 100 0 100 28 l 67 0 l 53 213 l 83 213 q 167 99 97 157 q 286 42 238 42 z "},"Ş":{"ha":653,"x_min":63,"x_max":611,"o":"m 364 -12 l 347 -75 q 404 -83 374 -75 q 464 -113 435 -90 q 493 -168 493 -136 q 453 -242 493 -210 q 326 -275 413 -275 q 224 -265 281 -275 l 224 -242 q 258 -244 249 -244 q 351 -179 351 -244 q 267 -118 351 -118 l 297 -11 q 188 11 244 -7 q 125 29 132 29 q 106 21 117 29 q 94 1 94 13 l 63 1 l 63 221 l 93 221 q 185 87 108 139 q 329 35 261 35 q 441 72 399 35 q 483 168 483 108 q 470 209 483 189 q 428 251 457 229 q 378 287 400 272 q 313 326 356 301 q 253 363 271 351 q 64 613 64 479 q 139 761 64 694 q 307 828 214 828 q 407 807 347 828 q 475 786 467 786 q 492 814 492 786 l 524 814 l 538 604 l 507 604 q 432 721 499 661 q 308 781 365 781 q 214 741 246 781 q 182 657 182 701 q 194 622 182 639 q 235 583 207 604 q 283 549 263 563 q 347 511 304 536 q 407 476 390 486 q 557 356 503 418 q 611 207 611 293 q 538 53 611 110 q 364 -12 465 -4 z "},"ş":{"ha":554,"x_min":53,"x_max":510,"o":"m 286 42 l 288 40 q 382 126 382 40 q 349 173 382 150 q 268 219 315 196 q 174 271 221 242 q 93 348 126 300 q 60 456 60 396 q 119 578 60 533 q 260 624 178 624 q 357 603 307 624 q 414 582 407 582 q 431 610 431 582 l 463 610 l 476 407 l 446 407 q 374 521 432 465 q 264 576 317 576 q 165 504 165 576 q 201 459 165 483 q 287 409 236 435 q 388 352 338 383 q 474 274 439 321 q 510 171 510 226 q 444 35 510 85 q 276 -15 379 -15 l 272 -15 l 256 -78 q 313 -85 282 -78 q 372 -116 343 -93 q 401 -171 401 -139 q 361 -245 401 -212 q 235 -278 321 -278 q 132 -268 189 -278 l 132 -244 q 167 -247 157 -247 q 260 -182 260 -247 q 175 -121 260 -121 l 208 -6 q 156 14 186 0 q 117 28 126 28 q 100 0 100 28 l 67 0 l 53 213 l 83 213 q 167 99 97 157 q 286 42 238 42 z "},"Š":{"ha":653,"x_min":64,"x_max":613,"o":"m 286 861 l 156 1086 l 206 1086 l 321 979 l 436 1086 l 486 1086 l 356 861 l 286 861 m 339 -14 q 200 7 271 -14 q 126 28 129 28 q 107 19 118 28 q 96 0 96 11 l 64 0 l 64 219 l 94 219 q 186 85 110 138 q 331 33 263 33 q 442 70 400 33 q 485 167 485 107 q 472 208 485 188 q 430 249 458 228 q 379 285 401 271 q 315 325 357 300 q 254 361 272 350 q 65 611 65 478 q 140 760 65 693 q 308 826 215 826 q 410 806 350 826 q 476 785 469 785 q 493 813 493 785 l 525 813 l 539 603 l 508 603 q 433 719 500 660 q 310 779 367 779 q 215 740 247 779 q 183 656 183 700 q 196 620 183 638 q 236 582 208 603 q 285 548 264 561 q 349 510 306 535 q 408 475 392 485 q 558 354 504 417 q 613 206 613 292 q 529 44 613 103 q 339 -14 446 -14 z "},"š":{"ha":551,"x_min":53,"x_max":508,"o":"m 247 715 l 117 940 l 167 940 l 282 833 l 397 940 l 447 940 l 317 715 l 247 715 m 286 42 q 381 128 381 42 q 347 174 381 151 q 267 220 314 197 q 172 272 219 243 q 92 349 125 301 q 58 457 58 397 q 117 580 58 535 q 258 625 176 625 q 356 604 306 625 q 413 583 406 583 q 429 611 429 583 l 461 611 l 475 408 l 444 408 q 373 522 431 467 q 263 578 315 578 q 164 506 164 578 q 218 448 164 481 q 336 385 272 415 q 454 297 400 354 q 508 172 508 240 q 443 36 508 86 q 275 -14 378 -14 q 174 7 225 -14 q 117 28 122 28 q 100 0 100 28 l 67 0 l 53 213 l 83 213 q 167 99 97 157 q 286 42 238 42 z "},"Ţ":{"ha":754,"x_min":18,"x_max":736,"o":"m 18 813 l 736 813 l 736 678 l 707 678 q 658 765 707 744 l 465 765 l 465 57 q 553 29 478 29 l 553 0 l 414 0 l 393 -76 q 450 -84 419 -76 q 510 -115 481 -92 q 539 -169 539 -137 q 499 -244 539 -211 q 372 -276 458 -276 q 269 -267 326 -276 l 269 -243 q 304 -246 294 -246 q 397 -181 397 -246 q 313 -119 397 -119 l 347 0 l 201 0 l 201 29 q 289 57 276 29 l 289 765 l 96 765 q 47 678 47 744 l 18 678 l 18 813 z "},"ţ":{"ha":494,"x_min":11,"x_max":483,"o":"m 290 813 l 292 611 l 411 611 l 411 569 l 292 569 l 292 128 q 307 62 292 85 q 364 39 322 39 q 415 63 389 39 q 450 131 440 88 l 483 114 q 325 -14 453 -10 l 308 -76 q 365 -84 335 -76 q 425 -115 396 -92 q 454 -169 454 -137 q 414 -244 454 -211 q 288 -276 374 -276 q 185 -267 242 -276 l 185 -243 q 219 -246 210 -246 q 313 -181 313 -246 q 228 -119 313 -119 l 258 -10 q 144 51 181 1 q 108 197 108 100 l 108 569 l 11 569 l 11 611 q 154 673 93 611 q 215 813 215 735 l 290 813 z "},"Ť":{"ha":754,"x_min":18,"x_max":736,"o":"m 347 861 l 217 1086 l 267 1086 l 382 979 l 497 1086 l 547 1086 l 417 861 l 347 861 m 18 813 l 736 813 l 736 678 l 707 678 q 658 765 707 744 l 465 765 l 465 57 q 553 29 478 29 l 553 0 l 201 0 l 201 29 q 289 57 276 29 l 289 765 l 96 765 q 47 678 47 744 l 18 678 l 18 813 z "},"ť":{"ha":492,"x_min":10,"x_max":542,"o":"m 289 813 l 289 611 l 408 611 l 408 569 l 289 569 l 289 128 q 304 62 289 85 q 361 39 319 39 q 412 63 386 39 q 447 131 438 88 l 481 114 q 314 -14 451 -14 q 156 35 206 -14 q 107 197 107 85 l 107 569 l 10 569 l 10 611 q 153 673 92 611 q 214 813 214 735 l 289 813 m 414 858 q 358 876 379 858 q 336 926 336 894 q 353 972 336 956 q 383 991 371 989 q 407 993 396 993 q 503 958 464 993 q 542 865 542 922 q 356 685 542 742 l 356 739 q 428 776 393 743 q 464 849 464 808 q 457 876 464 876 l 450 872 q 435 863 444 867 q 414 858 425 858 z "},"Ŧ":{"ha":754,"x_min":18,"x_max":736,"o":"m 18 813 l 736 813 l 736 678 l 707 678 q 658 765 707 744 l 465 765 l 465 463 l 578 463 l 578 415 l 465 415 l 465 57 q 553 29 478 29 l 553 0 l 201 0 l 201 29 q 289 57 276 29 l 289 415 l 183 415 l 183 463 l 289 463 l 289 765 l 96 765 q 47 678 47 744 l 18 678 l 18 813 z "},"ŧ":{"ha":493,"x_min":11,"x_max":482,"o":"m 290 813 l 290 608 l 410 608 l 410 567 l 290 567 l 290 421 l 419 421 l 419 374 l 290 374 l 290 126 q 306 60 290 83 q 363 38 321 38 q 413 62 388 38 q 449 129 439 86 l 482 113 q 315 -15 453 -15 q 158 34 207 -15 q 108 196 108 83 l 108 375 l 25 375 l 25 422 l 108 422 l 108 569 l 11 569 l 11 611 q 154 673 93 611 q 215 813 215 735 l 290 813 z "},"Ũ":{"ha":839,"x_min":25,"x_max":814,"o":"m 592 847 q 478 888 561 847 q 376 929 396 929 q 321 915 335 929 q 307 861 307 900 l 281 861 q 310 991 281 951 q 386 1031 340 1031 q 500 990 417 1031 q 603 949 583 949 q 658 963 644 949 q 672 1017 672 978 l 699 1017 q 668 887 699 926 q 592 847 638 847 m 481 33 q 625 110 571 33 q 679 317 679 186 l 679 756 q 592 783 667 783 l 592 813 l 814 813 l 814 783 q 726 756 739 783 l 726 344 q 647 75 726 164 q 446 -14 567 -14 q 113 344 113 -14 l 113 756 q 25 783 100 783 l 25 813 l 376 813 l 376 783 q 289 756 301 783 l 289 325 q 338 108 289 183 q 481 33 386 33 z "},"ũ":{"ha":792,"x_min":14,"x_max":772,"o":"m 494 701 q 381 742 464 701 q 279 783 299 783 q 224 769 238 783 q 210 715 210 754 l 183 715 q 213 845 183 806 q 289 885 243 885 q 403 844 319 885 q 506 803 486 803 q 561 817 547 803 q 575 871 575 832 l 601 871 q 571 741 601 781 q 494 701 540 701 m 685 83 q 772 78 760 78 l 772 46 q 644 16 746 46 q 511 -14 543 -14 l 511 26 q 369 -14 440 -14 q 101 183 101 -14 l 101 554 q 14 582 89 582 l 14 611 l 275 611 l 275 174 q 276 128 275 144 q 282 92 276 113 q 298 60 288 71 q 328 41 308 49 q 378 33 349 33 q 511 71 446 33 l 511 554 q 424 582 499 582 l 424 611 l 685 611 l 685 83 z "},"Ū":{"ha":839,"x_min":25,"x_max":814,"o":"m 296 956 l 663 956 l 663 881 l 296 881 l 296 956 m 481 33 q 625 110 571 33 q 679 317 679 186 l 679 756 q 592 783 667 783 l 592 813 l 814 813 l 814 783 q 726 756 739 783 l 726 344 q 647 75 726 164 q 446 -14 567 -14 q 113 344 113 -14 l 113 756 q 25 783 100 783 l 25 813 l 376 813 l 376 783 q 289 756 301 783 l 289 325 q 338 108 289 183 q 481 33 386 33 z "},"ū":{"ha":792,"x_min":14,"x_max":772,"o":"m 199 810 l 565 810 l 565 735 l 199 735 l 199 810 m 685 83 q 772 78 760 78 l 772 46 q 644 16 746 46 q 511 -14 543 -14 l 511 26 q 369 -14 440 -14 q 101 183 101 -14 l 101 554 q 14 582 89 582 l 14 611 l 275 611 l 275 174 q 276 128 275 144 q 282 92 276 113 q 298 60 288 71 q 328 41 308 49 q 378 33 349 33 q 511 71 446 33 l 511 554 q 424 582 499 582 l 424 611 l 685 611 l 685 83 z "},"Ŭ":{"ha":839,"x_min":25,"x_max":814,"o":"m 488 875 q 358 931 403 875 q 313 1047 313 988 l 351 1047 q 488 986 381 986 q 624 1047 594 986 l 663 1047 q 618 931 663 986 q 488 875 574 875 m 481 33 q 625 110 571 33 q 679 317 679 186 l 679 756 q 592 783 667 783 l 592 813 l 814 813 l 814 783 q 726 756 739 783 l 726 344 q 647 75 726 164 q 446 -14 567 -14 q 113 344 113 -14 l 113 756 q 25 783 100 783 l 25 813 l 376 813 l 376 783 q 289 756 301 783 l 289 325 q 338 108 289 183 q 481 33 386 33 z "},"ŭ":{"ha":792,"x_min":14,"x_max":772,"o":"m 390 729 q 260 785 306 729 q 215 901 215 842 l 254 901 q 390 840 283 840 q 526 901 497 840 l 565 901 q 521 785 565 840 q 390 729 476 729 m 685 83 q 772 78 760 78 l 772 46 q 644 16 746 46 q 511 -14 543 -14 l 511 26 q 369 -14 440 -14 q 101 183 101 -14 l 101 554 q 14 582 89 582 l 14 611 l 275 611 l 275 174 q 276 128 275 144 q 282 92 276 113 q 298 60 288 71 q 328 41 308 49 q 378 33 349 33 q 511 71 446 33 l 511 554 q 424 582 499 582 l 424 611 l 685 611 l 685 83 z "},"Ů":{"ha":839,"x_min":25,"x_max":814,"o":"m 447 998 q 438 989 447 998 q 429 957 429 981 q 447 916 429 933 q 488 899 464 899 q 528 916 511 899 q 546 957 546 933 q 528 998 546 981 q 488 1015 511 1015 q 447 998 464 1015 m 415 884 q 400 899 415 884 q 385 957 385 914 q 415 1030 385 1000 q 488 1060 444 1060 q 560 1030 531 1060 q 590 957 590 1000 q 560 884 590 914 q 488 854 531 854 q 415 884 444 854 m 481 33 q 625 110 571 33 q 679 317 679 186 l 679 756 q 592 783 667 783 l 592 813 l 814 813 l 814 783 q 726 756 739 783 l 726 344 q 647 75 726 164 q 446 -14 567 -14 q 113 344 113 -14 l 113 756 q 25 783 100 783 l 25 813 l 376 813 l 376 783 q 289 756 301 783 l 289 325 q 338 108 289 183 q 481 33 386 33 z "},"ů":{"ha":792,"x_min":14,"x_max":772,"o":"m 349 852 q 341 843 349 852 q 332 811 332 835 q 349 770 332 788 q 390 753 367 753 q 431 770 414 753 q 449 811 449 788 q 431 852 449 835 q 390 869 414 869 q 349 852 367 869 m 317 738 q 302 752 317 738 q 288 811 288 767 q 317 885 288 856 q 390 914 347 914 q 463 885 433 914 q 493 811 493 856 q 463 738 493 767 q 390 708 433 708 q 317 738 347 708 m 685 83 q 772 78 760 78 l 772 46 q 644 16 746 46 q 511 -14 543 -14 l 511 26 q 369 -14 440 -14 q 101 183 101 -14 l 101 554 q 14 582 89 582 l 14 611 l 275 611 l 275 174 q 276 128 275 144 q 282 92 276 113 q 298 60 288 71 q 328 41 308 49 q 378 33 349 33 q 511 71 446 33 l 511 554 q 424 582 499 582 l 424 611 l 685 611 l 685 83 z "},"Ű":{"ha":839,"x_min":25,"x_max":814,"o":"m 382 1086 l 557 1086 l 371 861 l 307 861 l 382 1086 m 604 1086 l 779 1086 l 593 861 l 529 861 l 604 1086 m 481 33 q 625 110 571 33 q 679 317 679 186 l 679 756 q 592 783 667 783 l 592 813 l 814 813 l 814 783 q 726 756 739 783 l 726 344 q 647 75 726 164 q 446 -14 567 -14 q 113 344 113 -14 l 113 756 q 25 783 100 783 l 25 813 l 376 813 l 376 783 q 289 756 301 783 l 289 325 q 338 108 289 183 q 481 33 386 33 z "},"ű":{"ha":792,"x_min":14,"x_max":772,"o":"m 285 940 l 460 940 l 274 715 l 210 715 l 285 940 m 507 940 l 682 940 l 496 715 l 432 715 l 507 940 m 685 83 q 772 78 760 78 l 772 46 q 644 16 746 46 q 511 -14 543 -14 l 511 26 q 369 -14 440 -14 q 101 183 101 -14 l 101 554 q 14 582 89 582 l 14 611 l 275 611 l 275 174 q 276 128 275 144 q 282 92 276 113 q 298 60 288 71 q 328 41 308 49 q 378 33 349 33 q 511 71 446 33 l 511 554 q 424 582 499 582 l 424 611 l 685 611 l 685 83 z "},"Ų":{"ha":842,"x_min":26,"x_max":815,"o":"m 482 33 l 482 35 q 626 111 572 35 q 681 318 681 188 l 681 757 q 593 785 668 785 l 593 814 l 815 814 l 815 785 q 728 757 740 785 l 728 346 q 653 82 728 171 q 463 -12 578 -7 q 436 -93 436 -54 q 468 -193 436 -157 q 551 -229 500 -229 q 573 -224 563 -229 q 589 -212 583 -218 l 594 -207 l 610 -232 q 600 -244 607 -237 q 565 -264 593 -251 q 500 -276 536 -276 q 392 -240 431 -276 q 354 -142 354 -204 q 408 -11 354 -68 q 114 344 114 8 l 114 756 q 26 783 101 783 l 26 813 l 378 813 l 378 783 q 290 756 303 783 l 290 325 q 339 108 290 183 q 482 33 388 33 z "},"ų":{"ha":793,"x_min":14,"x_max":772,"o":"m 685 83 l 685 85 q 772 79 760 79 l 772 47 q 665 24 747 47 q 560 -6 583 0 q 529 -93 529 -49 q 561 -193 529 -157 q 644 -229 593 -229 q 667 -224 656 -229 q 683 -212 678 -218 l 688 -207 l 703 -232 q 693 -244 700 -237 q 658 -264 686 -251 q 593 -276 629 -276 q 485 -240 524 -276 q 447 -142 447 -204 q 511 -3 447 -62 l 511 26 q 369 -14 440 -14 q 101 183 101 -14 l 101 554 q 14 582 89 582 l 14 611 l 275 611 l 275 174 q 276 128 275 144 q 282 92 276 113 q 298 60 288 71 q 328 41 308 49 q 378 33 349 33 q 511 71 446 33 l 511 554 q 424 582 499 582 l 424 611 l 685 611 l 685 83 z "},"Ŵ":{"ha":1246,"x_min":-24,"x_max":1268,"o":"m 631 1086 l 761 861 l 711 861 l 596 954 l 481 861 l 431 861 l 561 1086 l 631 1086 m 790 813 l 790 783 q 710 767 726 783 l 922 185 l 1126 758 q 1040 783 1113 783 l 1040 813 l 1268 813 l 1268 783 q 1181 754 1192 783 l 911 0 l 796 0 l 622 485 l 450 0 l 335 0 l 65 754 q -24 783 56 783 l -24 813 l 329 813 l 329 783 q 249 767 265 783 l 461 186 l 594 563 l 526 754 q 438 783 517 783 l 438 813 l 790 813 z "},"ŵ":{"ha":1133,"x_min":-17,"x_max":1150,"o":"m 597 940 l 728 715 l 678 715 l 563 808 l 447 715 l 397 715 l 528 940 l 597 940 m 725 0 l 567 397 l 408 0 l 292 0 l 71 554 q -17 582 58 582 l -17 611 l 301 611 l 301 582 q 243 576 261 582 l 408 169 l 533 482 l 504 554 q 417 582 492 582 l 417 611 l 735 611 l 735 582 q 676 576 694 582 l 842 169 l 1000 567 q 922 582 981 582 l 922 611 l 1150 611 l 1150 582 q 1065 560 1079 582 l 842 0 l 725 0 z "},"Ŷ":{"ha":811,"x_min":-22,"x_max":829,"o":"m 510 1086 l 640 861 l 590 861 l 475 954 l 360 861 l 310 861 l 440 1086 l 510 1086 m 331 813 l 331 783 q 250 767 265 783 l 465 390 l 688 758 q 601 783 672 783 l 601 813 l 829 813 l 829 783 q 750 765 761 783 l 500 350 l 500 57 q 588 29 513 29 l 588 0 l 236 0 l 236 29 q 324 57 311 29 l 324 306 l 67 756 q -22 783 50 783 l -22 813 l 331 813 z "},"ŷ":{"ha":700,"x_min":-17,"x_max":717,"o":"m 435 940 l 565 715 l 515 715 l 400 808 l 285 715 l 235 715 l 365 940 l 435 940 m 301 611 l 301 582 q 243 576 261 582 l 408 169 l 567 567 q 489 582 547 582 l 489 611 l 717 611 l 717 582 q 632 560 642 582 l 351 -142 q 206 -256 306 -256 q 104 -189 104 -256 q 120 -149 104 -164 q 165 -133 136 -133 q 204 -154 188 -133 q 242 -175 221 -175 q 281 -150 271 -175 l 317 -61 l 71 554 q -17 582 58 582 l -17 611 l 301 611 z "},"Ÿ":{"ha":811,"x_min":-22,"x_max":829,"o":"m 550 885 q 538 898 550 885 q 526 943 526 910 q 550 1001 526 976 q 607 1025 574 1025 q 665 1001 640 1025 q 689 943 689 976 q 665 885 689 910 q 607 861 640 861 q 550 885 574 861 m 285 885 q 273 898 285 885 q 261 943 261 910 q 285 1001 261 976 q 343 1025 310 1025 q 400 1001 376 1025 q 424 943 424 976 q 400 885 424 910 q 343 861 376 861 q 285 885 310 861 m 331 813 l 331 783 q 250 767 265 783 l 465 390 l 688 758 q 601 783 672 783 l 601 813 l 829 813 l 829 783 q 750 765 761 783 l 500 350 l 500 57 q 588 29 513 29 l 588 0 l 236 0 l 236 29 q 324 57 311 29 l 324 306 l 67 756 q -22 783 50 783 l -22 813 l 331 813 z "},"Ź":{"ha":683,"x_min":19,"x_max":654,"o":"m 353 1086 l 528 1086 l 342 861 l 278 861 l 353 1086 m 619 0 l 19 0 l 413 771 l 144 771 q 112 730 128 764 q 96 656 96 696 l 67 656 l 67 813 l 626 813 l 233 42 l 542 42 q 586 89 558 49 q 625 169 614 129 l 654 169 l 619 0 z "},"ź":{"ha":575,"x_min":17,"x_max":542,"o":"m 307 940 l 482 940 l 296 715 l 232 715 l 307 940 m 531 0 l 17 0 l 339 569 l 139 569 q 106 536 121 561 q 90 472 90 511 l 61 472 l 61 611 l 542 611 l 219 42 l 453 42 q 486 76 471 49 q 501 143 501 103 l 531 143 l 531 0 z "},"Ż":{"ha":683,"x_min":19,"x_max":654,"o":"m 278 887 q 266 899 278 887 q 254 947 254 911 q 278 1008 254 983 q 339 1032 303 1032 q 399 1008 375 1032 q 424 947 424 983 q 399 887 424 911 q 339 863 375 863 q 278 887 303 863 m 619 0 l 19 0 l 413 771 l 144 771 q 112 730 128 764 q 96 656 96 696 l 67 656 l 67 813 l 626 813 l 233 42 l 542 42 q 586 89 558 49 q 625 169 614 129 l 654 169 l 619 0 z "},"ż":{"ha":575,"x_min":17,"x_max":542,"o":"m 233 742 q 221 754 233 742 q 208 801 208 767 q 233 861 208 836 q 293 886 258 886 q 353 861 328 886 q 378 801 378 836 q 353 742 378 767 q 293 717 328 717 q 233 742 258 717 m 531 0 l 17 0 l 339 569 l 139 569 q 106 536 121 561 q 90 472 90 511 l 61 472 l 61 611 l 542 611 l 219 42 l 453 42 q 486 76 471 49 q 501 143 501 103 l 531 143 l 531 0 z "},"Ž":{"ha":683,"x_min":19,"x_max":654,"o":"m 306 861 l 175 1086 l 225 1086 l 340 979 l 456 1086 l 506 1086 l 375 861 l 306 861 m 619 0 l 19 0 l 413 771 l 144 771 q 112 730 128 764 q 96 656 96 696 l 67 656 l 67 813 l 626 813 l 233 42 l 542 42 q 586 89 558 49 q 625 169 614 129 l 654 169 l 619 0 z "},"ž":{"ha":575,"x_min":17,"x_max":542,"o":"m 260 715 l 129 940 l 179 940 l 294 833 l 410 940 l 460 940 l 329 715 l 260 715 m 531 0 l 17 0 l 339 569 l 139 569 q 106 536 121 561 q 90 472 90 511 l 61 472 l 61 611 l 542 611 l 219 42 l 453 42 q 486 76 471 49 q 501 143 501 103 l 531 143 l 531 0 z "},"ſ":{"ha":388,"x_min":19,"x_max":474,"o":"m 19 0 l 19 29 q 107 57 94 29 l 107 526 q 122 708 107 635 q 166 815 138 781 q 224 863 194 850 q 293 875 253 875 q 474 754 474 875 q 455 714 474 729 q 414 699 436 699 q 376 714 392 699 q 360 753 360 729 q 374 786 360 772 q 358 822 374 810 q 321 833 343 833 q 298 822 306 833 q 285 770 290 811 q 281 650 281 729 l 281 57 q 368 29 293 29 l 368 0 l 19 0 z "},"ƀ":{"ha":768,"x_min":-14,"x_max":726,"o":"m 253 547 l 253 58 q 369 33 300 33 q 495 105 444 33 q 546 308 546 176 q 506 508 546 433 q 394 583 467 583 q 253 547 310 583 m 79 778 q -8 783 4 783 l -8 815 q 119 845 18 815 q 253 875 221 875 l 253 732 l 381 732 l 381 685 l 253 685 l 253 592 q 408 631 317 631 q 483 622 444 631 q 567 590 522 613 q 646 531 611 567 q 703 438 681 496 q 726 308 726 381 q 624 71 726 156 q 378 -14 522 -14 q 224 31 285 -14 q 79 -14 113 -14 l 79 685 l -14 685 l -14 732 l 79 732 l 79 778 z "},"Ɓ":{"ha":992,"x_min":10,"x_max":953,"o":"m 210 0 l 210 29 q 297 57 285 29 l 297 765 q 142 739 165 765 q 126 696 126 724 q 147 656 126 667 q 174 610 174 640 q 155 563 174 581 q 108 544 136 544 q 35 583 61 544 q 10 667 10 622 q 22 720 10 692 q 56 764 35 749 q 103 792 85 783 q 169 806 122 800 q 297 813 217 813 l 542 813 q 803 756 715 813 q 892 621 892 699 q 733 425 892 474 q 894 347 836 400 q 953 238 953 294 q 869 66 953 132 q 619 0 785 0 l 210 0 m 474 765 l 474 443 l 538 443 q 671 486 638 443 q 704 619 704 529 q 493 765 704 765 l 474 765 m 474 403 l 474 47 l 571 47 q 765 236 765 47 q 717 352 765 301 q 554 403 668 403 l 474 403 z "},"Ɔ":{"ha":788,"x_min":49,"x_max":736,"o":"m 324 28 q 490 118 426 28 q 553 388 553 208 q 482 681 553 583 q 317 779 411 779 q 192 734 254 779 q 96 624 131 689 l 49 647 q 154 776 83 725 q 335 826 225 826 q 426 815 378 826 q 531 774 475 804 q 632 701 588 744 q 706 583 676 657 q 736 418 736 510 q 619 103 736 221 q 349 -14 503 -14 q 126 45 204 -14 q 49 174 49 104 q 115 264 49 264 q 166 243 147 264 q 185 194 185 222 q 166 153 185 168 q 122 138 147 138 q 196 63 140 97 q 324 28 251 28 z "},"Ƈ":{"ha":899,"x_min":50,"x_max":933,"o":"m 486 779 q 306 683 369 779 q 243 425 243 588 q 311 135 243 236 q 492 33 379 33 q 616 80 560 33 q 693 183 672 126 l 750 167 q 649 38 718 90 q 464 -14 581 -14 q 164 107 278 -14 q 50 394 50 228 q 181 707 50 588 q 485 826 311 826 q 592 806 525 826 q 665 785 658 785 q 671 786 669 785 q 715 902 681 857 q 811 947 750 947 q 894 922 856 947 q 933 849 933 896 q 917 803 933 822 q 876 785 900 785 q 843 793 853 785 q 822 821 833 801 q 782 842 811 842 q 739 826 754 842 q 713 660 713 803 l 713 617 l 682 617 q 610 726 674 674 q 486 779 546 779 z "},"ƈ":{"ha":796,"x_min":43,"x_max":838,"o":"m 536 478 q 381 583 536 583 q 269 517 315 583 q 224 342 224 451 q 274 128 224 218 q 404 39 324 39 q 581 139 521 39 l 632 114 q 527 17 592 47 q 357 -14 463 -14 q 275 -5 315 -14 q 192 29 235 4 q 117 92 149 54 q 64 192 85 129 q 43 336 43 256 q 135 540 43 456 q 367 625 226 625 q 571 571 504 625 q 619 719 576 656 q 662 753 633 740 q 715 765 690 765 q 799 740 760 765 q 838 667 838 714 q 821 622 838 640 q 781 603 804 603 q 747 611 757 603 q 726 639 738 619 q 686 660 715 660 q 643 644 658 660 q 617 478 617 621 l 536 478 z "},"Ɖ":{"ha":844,"x_min":43,"x_max":793,"o":"m 43 -1 l 43 28 q 131 56 118 28 l 131 374 l 46 374 l 46 435 l 131 435 l 131 754 q 43 782 118 782 l 43 811 l 363 811 q 672 698 550 811 q 793 407 793 585 q 674 113 793 228 q 379 -1 556 -1 l 43 -1 m 307 374 l 307 46 l 379 46 q 540 135 474 46 q 606 406 606 224 q 536 680 606 589 q 363 771 467 771 l 307 771 l 307 435 l 493 435 l 493 374 l 307 374 z "},"Ɗ":{"ha":1011,"x_min":10,"x_max":960,"o":"m 210 -1 l 210 28 q 297 56 285 28 l 297 765 q 142 739 165 765 q 126 696 126 724 q 147 656 126 667 q 174 610 174 640 q 155 563 174 581 q 108 544 136 544 q 35 583 61 544 q 10 667 10 622 q 22 720 10 692 q 56 764 35 749 q 103 792 85 783 q 169 806 122 800 q 297 813 217 813 l 297 811 l 529 811 q 838 698 717 811 q 960 407 960 585 q 841 113 960 228 q 546 -1 722 -1 l 210 -1 m 474 771 l 474 46 l 546 46 q 706 135 640 46 q 772 406 772 224 q 703 680 772 589 q 529 771 633 771 l 474 771 z "},"Ǝ":{"ha":699,"x_min":13,"x_max":649,"o":"m 649 0 l 46 0 l 13 135 l 40 135 q 103 47 68 63 l 385 47 l 385 399 l 225 399 q 197 311 197 386 l 168 311 l 168 533 l 197 533 q 225 446 197 458 l 385 446 l 385 765 l 132 765 q 104 678 104 753 l 75 678 l 75 813 l 649 813 l 649 783 q 561 756 574 783 l 561 57 q 649 29 574 29 l 649 0 z "},"Ə":{"ha":843,"x_min":29,"x_max":792,"o":"m 597 342 l 225 342 q 392 33 246 33 q 544 113 497 33 q 597 342 592 193 m 599 389 q 536 679 599 579 q 364 779 474 779 q 226 731 294 779 q 139 629 158 683 l 106 646 q 206 774 138 722 q 392 826 275 826 q 684 706 576 826 q 792 418 792 586 q 677 104 792 222 q 393 -14 563 -14 q 134 99 239 -14 q 29 389 29 213 l 599 389 z "},"Ɛ":{"ha":703,"x_min":56,"x_max":681,"o":"m 442 428 q 299 378 350 428 q 249 242 249 329 q 299 90 249 146 q 419 33 350 33 q 553 81 492 33 q 635 186 614 129 l 681 167 q 647 103 665 131 q 595 47 628 75 q 510 2 563 18 q 392 -14 458 -14 q 224 11 294 -14 q 119 76 153 36 q 70 153 85 117 q 56 224 56 189 q 236 450 56 394 q 75 617 75 497 q 161 781 75 736 q 408 826 247 826 q 503 806 458 826 q 553 785 547 785 q 569 813 569 785 l 601 813 l 615 606 l 585 606 q 512 725 561 671 q 410 779 463 779 q 305 741 342 779 q 268 647 268 703 q 428 475 268 475 l 442 475 l 442 428 z "},"Ƒ":{"ha":633,"x_min":-106,"x_max":608,"o":"m 608 678 l 579 678 q 551 765 579 753 l 299 765 l 299 446 l 458 446 q 486 533 486 458 l 515 533 l 515 311 l 486 311 q 458 399 486 386 l 299 399 l 299 0 q 230 -161 299 -106 q 78 -217 161 -217 q -47 -192 11 -217 q -106 -122 -106 -167 q -87 -87 -106 -103 q -47 -72 -69 -72 q 17 -133 -15 -72 q 30 -158 26 -151 q 42 -169 33 -164 q 64 -175 50 -175 q 106 -135 90 -175 q 122 -19 122 -96 l 122 756 q 35 783 110 783 l 35 813 l 608 813 l 608 678 z "},"ƒ":{"ha":390,"x_min":-128,"x_max":478,"o":"m 276 0 q 208 -161 276 -106 q 56 -217 139 -217 q -69 -192 -11 -217 q -128 -122 -128 -167 q -110 -87 -128 -103 q -69 -72 -92 -72 q -6 -133 -37 -72 q 8 -158 4 -151 q 19 -169 11 -164 q 42 -175 28 -175 q 85 -135 68 -175 q 103 -19 103 -94 l 103 569 l 33 569 l 33 611 l 103 611 l 103 658 q 160 824 103 772 q 310 875 218 875 q 435 850 392 875 q 478 794 478 825 q 422 731 478 731 q 376 747 390 731 q 363 782 363 763 q 356 817 364 801 q 325 833 347 833 q 276 678 276 833 l 276 611 l 383 611 l 383 569 l 276 569 l 276 0 z "},"Ɠ":{"ha":922,"x_min":46,"x_max":929,"o":"m 503 779 q 313 669 386 779 q 239 397 239 558 q 310 122 239 210 q 483 33 382 33 q 589 46 542 33 l 589 344 q 501 372 576 372 l 501 401 l 853 401 l 853 372 q 765 344 778 372 l 765 111 q 667 27 742 68 q 481 -14 592 -14 q 169 108 293 -14 q 46 394 46 231 q 115 624 46 524 q 288 776 185 725 q 501 826 390 826 q 597 806 542 826 q 660 785 653 785 q 667 788 664 785 q 711 902 676 857 q 807 947 746 947 q 890 922 851 947 q 929 849 929 896 q 913 803 929 822 q 872 785 896 785 q 839 793 849 785 q 818 821 829 801 q 778 842 807 842 q 735 826 750 842 q 708 660 708 803 l 708 611 l 678 611 q 621 732 672 685 q 503 779 569 779 z "},"Ɣ":{"ha":724,"x_min":-25,"x_max":746,"o":"m 318 813 l 318 783 q 244 771 264 783 l 415 464 l 611 769 q 533 783 593 783 l 533 813 l 746 813 l 746 783 q 658 756 675 783 l 446 424 l 440 417 q 535 122 535 228 q 492 21 535 56 q 368 -14 449 -14 q 244 125 244 -14 q 307 296 244 186 q 225 456 290 333 l 64 756 q -25 783 49 783 l -25 813 l 318 813 m 331 239 q 301 149 301 178 q 336 51 301 51 q 358 129 358 51 q 331 239 358 169 z "},"Ɩ":{"ha":418,"x_min":29,"x_max":390,"o":"m 293 813 l 293 117 q 332 31 293 31 q 356 41 347 31 q 365 64 365 51 l 390 64 q 362 7 390 25 q 263 -11 333 -11 q 160 27 204 -11 q 117 156 117 65 l 117 756 q 29 783 104 783 l 29 813 l 293 813 z "},"Ɨ":{"ha":472,"x_min":26,"x_max":442,"o":"m 65 0 l 65 29 q 153 57 140 29 l 153 385 l 26 385 l 26 432 l 153 432 l 153 756 q 65 783 140 783 l 65 813 l 417 813 l 417 783 q 329 756 342 783 l 329 432 l 442 432 l 442 385 l 329 385 l 329 57 q 417 29 342 29 l 417 0 l 65 0 z "},"Ƙ":{"ha":1031,"x_min":10,"x_max":1063,"o":"m 210 0 l 210 29 q 297 57 285 29 l 297 765 q 142 739 165 765 q 126 696 126 724 q 147 656 126 667 q 174 610 174 640 q 155 563 174 581 q 108 544 136 544 q 35 583 61 544 q 10 667 10 622 q 22 720 10 692 q 56 764 35 749 q 103 792 85 783 q 169 806 122 800 q 297 813 217 813 l 558 813 l 558 783 q 471 756 483 783 l 471 57 q 558 29 483 29 l 558 0 l 210 0 m 743 0 l 743 29 q 794 33 775 29 l 478 436 l 818 774 q 747 783 799 783 l 747 813 l 965 813 l 965 783 q 879 751 907 783 l 626 503 l 975 51 q 1063 29 997 29 l 1063 0 l 743 0 z "},"ƙ":{"ha":764,"x_min":19,"x_max":789,"o":"m 19 0 l 19 29 q 107 57 94 29 l 106 658 q 174 819 106 764 q 326 875 243 875 q 451 850 393 875 q 510 781 510 825 q 492 746 510 761 q 451 731 474 731 q 388 792 419 731 q 374 816 378 810 q 363 828 371 822 q 340 833 354 833 q 297 793 314 833 q 279 678 279 753 l 281 57 q 368 29 293 29 l 368 0 l 19 0 m 469 0 l 469 29 q 522 33 503 29 l 290 353 l 536 574 q 468 582 515 582 l 468 611 l 686 611 l 686 582 q 611 564 635 582 l 443 414 l 701 56 q 789 29 713 29 l 789 0 l 469 0 z "},"Ɲ":{"ha":850,"x_min":-99,"x_max":815,"o":"m 815 813 l 815 783 q 728 756 740 783 l 728 0 l 667 0 l 169 688 l 169 -17 q 158 -149 169 -107 q 119 -232 147 -192 q 77 -265 106 -253 q 24 -278 49 -278 q -60 -252 -21 -278 q -99 -179 -99 -226 q -82 -134 -99 -153 q -42 -115 -65 -115 q -8 -124 -18 -115 q 13 -151 1 -132 q 53 -172 24 -172 q 96 -157 81 -172 q 122 10 122 -133 l 122 756 q 35 783 110 783 l 35 813 l 269 813 l 681 250 l 681 756 q 593 783 668 783 l 593 813 l 815 813 z "},"Ɵ":{"ha":922,"x_min":49,"x_max":874,"o":"m 169 110 q 109 173 169 110 q 49 406 49 235 q 169 701 49 576 q 461 826 290 826 q 753 701 632 826 q 874 406 874 576 q 752 110 874 235 q 461 -14 631 -14 q 169 110 289 -14 m 236 433 l 685 433 q 658 597 681 522 q 583 725 635 671 q 456 779 531 779 q 351 748 396 779 q 283 665 307 717 q 249 555 260 613 q 236 433 238 497 m 686 386 l 236 386 q 262 221 240 296 q 336 90 283 146 q 467 33 389 33 q 572 65 528 33 q 640 151 617 97 q 675 263 664 204 q 686 386 686 321 z "},"Ơ":{"ha":949,"x_min":49,"x_max":935,"o":"m 854 738 q 847 740 851 740 q 838 739 846 740 q 825 738 829 738 q 773 755 792 738 q 754 806 754 772 q 775 856 754 836 q 818 875 796 875 q 903 840 872 875 q 935 750 935 804 q 818 615 935 647 q 874 406 874 519 q 752 110 874 235 q 461 -14 631 -14 q 169 110 289 -14 q 49 406 49 235 q 169 701 49 576 q 461 826 290 826 q 647 781 560 826 q 790 657 733 736 q 854 738 854 678 m 236 417 q 256 240 236 322 q 331 96 276 158 q 467 33 385 33 q 574 66 529 33 q 642 154 618 99 q 676 269 665 210 q 686 394 686 328 q 665 571 686 488 q 590 717 644 654 q 456 779 536 779 q 349 746 393 779 q 281 657 304 713 q 247 542 257 601 q 236 417 236 483 z "},"ơ":{"ha":799,"x_min":43,"x_max":832,"o":"m 751 561 q 744 564 749 564 q 735 563 743 564 q 722 561 726 561 q 670 578 689 561 q 651 629 651 596 q 672 679 651 660 q 715 699 693 699 q 801 663 769 699 q 832 574 832 628 q 692 433 832 458 q 714 300 714 369 q 631 76 714 167 q 385 -14 547 -14 q 135 78 228 -14 q 43 317 43 169 q 127 537 43 449 q 375 625 211 625 q 674 476 592 625 q 751 561 751 493 m 225 344 q 269 104 225 181 q 403 28 313 28 q 499 94 465 28 q 532 268 532 160 q 492 510 532 438 q 351 582 453 582 q 258 513 292 582 q 225 344 225 443 z "},"Ƥ":{"ha":944,"x_min":10,"x_max":929,"o":"m 210 0 l 210 29 q 297 57 285 29 l 297 765 q 142 739 165 765 q 126 696 126 724 q 147 656 126 667 q 174 610 174 640 q 155 563 174 581 q 108 544 136 544 q 35 583 61 544 q 10 667 10 622 q 22 720 10 692 q 56 764 35 749 q 103 792 85 783 q 169 806 122 800 q 297 813 217 813 l 579 813 q 840 747 750 813 q 929 601 929 682 q 846 433 929 497 q 596 369 763 369 l 474 369 l 474 57 q 561 29 486 29 l 561 0 l 210 0 m 474 765 l 474 417 l 547 417 q 698 459 654 417 q 742 600 742 501 q 531 765 742 765 l 474 765 z "},"ƥ":{"ha":768,"x_min":-8,"x_max":724,"o":"m -8 -267 l -8 -237 q 79 -210 67 -237 l 78 658 q 147 819 78 764 q 299 875 215 875 q 424 850 365 875 q 482 781 482 825 q 464 746 482 761 q 424 731 446 731 q 360 792 392 731 q 347 816 350 810 q 335 828 343 822 q 313 833 326 833 q 269 793 286 833 q 251 678 251 753 l 251 588 q 406 625 317 625 q 522 610 469 625 q 622 560 575 594 q 697 459 669 525 q 724 303 724 393 q 633 66 724 146 q 375 -14 542 -14 q 253 10 304 -14 l 253 -210 q 340 -237 265 -237 l 340 -267 l -8 -267 m 251 543 l 253 54 q 367 33 303 33 q 492 103 442 33 q 543 303 543 174 q 526 417 543 356 q 474 528 510 479 q 392 578 438 578 q 251 543 306 578 z "},"Ʃ":{"ha":636,"x_min":-7,"x_max":604,"o":"m 551 683 l 522 683 q 494 771 522 758 l 258 771 l 465 497 l 185 129 l 497 129 q 508 133 499 129 q 523 140 518 138 q 537 148 528 142 q 552 161 546 154 q 565 179 558 168 q 575 204 571 190 l 604 204 l 554 0 l -7 0 l 317 421 l 21 813 l 551 813 l 551 683 z "},"ƪ":{"ha":386,"x_min":-101,"x_max":538,"o":"m 307 658 l 307 -19 q 324 -135 307 -94 q 368 -175 342 -175 q 395 -167 388 -175 q 415 -133 403 -158 q 479 -72 447 -72 q 519 -87 501 -72 q 538 -122 538 -103 q 479 -192 538 -167 q 354 -217 421 -217 q 202 -161 271 -217 q 133 0 133 -106 l 133 589 q 97 586 111 586 q -44 628 13 586 q -101 739 -101 671 q -42 842 -101 810 q 103 875 18 875 q 246 822 185 875 q 307 658 307 769 m 133 647 l 133 678 q 89 833 133 833 q 60 802 74 833 q 47 733 47 771 q 83 628 47 628 q 133 647 121 628 z "},"Ƭ":{"ha":828,"x_min":13,"x_max":810,"o":"m 810 813 l 810 678 l 781 678 q 732 765 781 744 l 539 765 l 539 57 q 626 29 551 29 l 626 0 l 275 0 l 275 29 q 363 57 350 29 l 363 765 l 300 765 q 144 739 168 765 q 129 696 129 724 q 150 656 129 667 q 176 610 176 640 q 158 563 176 581 q 111 544 139 544 q 38 583 64 544 q 13 667 13 622 q 25 721 13 692 q 58 764 38 750 q 106 792 88 783 q 172 806 125 800 q 300 813 219 813 l 810 813 z "},"ƭ":{"ha":492,"x_min":10,"x_max":510,"o":"m 510 849 q 493 803 510 822 q 453 785 476 785 q 419 793 429 785 q 399 821 410 801 q 358 842 388 842 q 315 826 331 842 q 289 660 289 803 l 289 611 l 408 611 l 408 569 l 289 569 l 289 128 q 304 62 289 85 q 361 39 319 39 q 412 63 386 39 q 447 131 438 88 l 481 114 q 314 -14 451 -14 q 156 35 206 -14 q 107 197 107 85 l 107 569 l 10 569 l 10 611 q 160 663 92 611 q 251 808 228 715 q 388 947 285 947 q 471 922 432 947 q 510 849 510 896 z "},"Ʈ":{"ha":749,"x_min":15,"x_max":733,"o":"m 463 25 q 521 -175 463 -175 q 548 -167 540 -175 q 568 -133 556 -158 q 632 -72 600 -72 q 672 -87 654 -72 q 690 -122 690 -103 q 632 -192 690 -167 q 507 -217 574 -217 q 416 -205 453 -217 q 348 -162 379 -193 q 301 -67 317 -131 q 286 92 286 -4 l 286 765 l 93 765 q 44 678 44 744 l 15 678 l 15 813 l 733 813 l 733 678 l 704 678 q 656 765 704 744 l 463 765 l 463 25 z "},"Ư":{"ha":851,"x_min":25,"x_max":935,"o":"m 854 903 q 847 906 851 906 q 838 904 846 906 q 825 903 829 903 q 773 920 792 903 q 754 971 754 938 q 775 1021 754 1001 q 818 1040 796 1040 q 903 1005 872 1040 q 935 915 935 969 q 897 824 935 858 q 817 779 860 789 q 726 769 775 769 l 726 344 q 647 75 726 164 q 446 -14 567 -14 q 113 344 113 -14 l 113 756 q 25 783 100 783 l 25 813 l 376 813 l 376 783 q 289 756 301 783 l 289 325 q 338 108 289 183 q 481 33 386 33 q 625 110 571 33 q 679 317 679 186 l 679 756 q 592 783 667 783 l 592 813 l 726 813 q 822 837 789 813 q 854 903 854 861 z "},"ư":{"ha":847,"x_min":14,"x_max":893,"o":"m 813 561 q 806 564 810 564 q 796 563 804 564 q 783 561 788 561 q 731 578 750 561 q 713 629 713 596 q 733 679 713 660 q 776 699 754 699 q 862 663 831 699 q 893 574 893 628 q 856 482 893 517 q 776 438 818 447 q 685 428 733 428 l 685 83 q 772 78 760 78 l 772 46 q 644 16 746 46 q 511 -14 543 -14 l 511 26 q 369 -14 440 -14 q 101 183 101 -14 l 101 554 q 14 582 89 582 l 14 611 l 275 611 l 275 174 q 276 128 275 144 q 282 92 276 113 q 298 60 288 71 q 328 41 308 49 q 378 33 349 33 q 511 71 446 33 l 511 554 q 424 582 499 582 l 424 611 l 685 611 l 685 471 q 780 495 747 471 q 813 561 813 519 z "},"Ʊ":{"ha":910,"x_min":57,"x_max":854,"o":"m 299 130 q 326 82 299 130 q 456 33 353 33 q 613 130 558 33 q 667 411 667 226 q 640 656 667 564 q 547 813 614 747 l 819 813 l 819 765 l 693 765 q 854 400 854 589 q 745 92 854 199 q 456 -14 636 -14 q 166 92 275 -14 q 57 400 57 199 q 204 765 57 599 l 92 765 l 92 813 l 364 813 q 271 656 297 747 q 244 411 244 564 q 299 130 244 226 z "},"Ʋ":{"ha":854,"x_min":25,"x_max":799,"o":"m 604 772 q 565 761 582 772 q 585 717 585 742 q 571 674 585 693 q 528 656 557 656 q 477 676 497 656 q 457 732 457 696 q 496 802 457 778 q 576 826 535 826 q 732 722 665 826 q 799 497 799 618 q 715 125 799 264 q 460 -14 631 -14 q 113 350 113 -14 l 113 756 q 25 783 100 783 l 25 813 l 376 813 l 376 783 q 289 756 301 783 l 289 308 q 338 101 289 168 q 451 33 388 33 q 677 160 606 33 q 749 503 749 288 q 701 683 749 593 q 604 772 654 772 z "},"Ƴ":{"ha":981,"x_min":-22,"x_max":989,"o":"m 331 813 l 331 783 q 250 767 265 783 l 465 390 l 674 736 q 810 826 729 826 q 936 802 883 826 q 989 732 989 778 q 971 697 989 713 q 931 682 953 682 q 867 743 899 682 q 853 767 857 761 q 842 779 850 774 q 819 785 833 785 q 722 719 763 785 l 500 350 l 500 57 q 588 29 513 29 l 588 0 l 236 0 l 236 29 q 324 57 311 29 l 324 306 l 67 756 q -22 783 47 783 l -22 813 l 331 813 z "},"ƴ":{"ha":882,"x_min":-17,"x_max":885,"o":"m 301 611 l 301 582 q 243 576 261 582 l 408 169 l 536 490 q 606 588 560 550 q 701 625 651 625 q 830 600 775 625 q 885 531 885 575 q 867 496 885 511 q 826 481 849 481 q 763 542 794 481 q 749 566 753 560 q 738 578 746 572 q 715 583 729 583 q 642 547 671 583 q 576 419 613 511 l 351 -142 q 206 -256 306 -256 q 104 -189 104 -256 q 120 -149 104 -164 q 165 -133 136 -133 q 204 -154 188 -133 q 242 -175 221 -175 q 281 -150 271 -175 l 317 -61 l 71 554 q -17 582 58 582 l -17 611 l 301 611 z "},"Ʒ":{"ha":679,"x_min":28,"x_max":629,"o":"m 443 483 q 577 401 525 457 q 629 261 629 346 q 539 69 629 151 q 297 -14 449 -14 q 99 45 169 -14 q 28 183 28 104 q 92 264 28 264 q 154 206 154 264 q 138 162 154 176 q 101 147 121 147 q 160 64 114 100 q 283 28 206 28 q 409 99 363 28 q 456 256 456 169 q 274 465 456 465 l 385 683 l 211 683 q 133 594 151 658 l 104 594 l 161 813 l 607 813 l 443 483 z "},"ǀ":{"ha":214,"x_min":79,"x_max":135,"o":"m 79 861 l 135 861 l 135 0 l 79 0 l 79 861 z "},"ǁ":{"ha":353,"x_min":79,"x_max":274,"o":"m 218 861 l 274 861 l 274 0 l 218 0 l 218 861 m 79 861 l 135 861 l 135 0 l 79 0 l 79 861 z "},"ǂ":{"ha":361,"x_min":28,"x_max":333,"o":"m 153 861 l 208 861 l 208 514 l 333 514 l 333 458 l 208 458 l 208 403 l 333 403 l 333 347 l 208 347 l 208 0 l 153 0 l 153 347 l 28 347 l 28 403 l 153 403 l 153 458 l 28 458 l 28 514 l 153 514 l 153 861 z "},"ǃ":{"ha":313,"x_min":61,"x_max":253,"o":"m 61 72 q 90 137 61 113 q 156 161 118 161 q 221 138 189 161 q 253 76 253 115 q 224 11 253 36 q 157 -14 194 -14 q 92 10 124 -14 q 61 72 61 33 m 211 425 q 156 286 192 286 q 100 425 119 286 q 64 781 64 678 q 92 851 64 828 q 156 875 121 875 q 219 851 190 875 q 247 781 247 828 q 232 597 247 731 q 211 425 217 463 z "},"Ǎ":{"ha":786,"x_min":-21,"x_max":810,"o":"m 361 861 l 231 1086 l 281 1086 l 396 979 l 511 1086 l 561 1086 l 431 861 l 361 861 m 457 0 l 457 29 q 538 46 521 29 l 460 258 l 193 258 l 121 54 q 207 29 135 29 l 207 0 l -21 0 l -21 29 q 67 58 56 29 l 336 813 l 449 813 l 721 58 q 810 29 731 29 l 810 0 l 457 0 m 325 628 l 210 304 l 443 304 l 325 628 z "},"ǎ":{"ha":699,"x_min":35,"x_max":722,"o":"m 289 715 l 158 940 l 208 940 l 324 833 l 439 940 l 489 940 l 358 715 l 289 715 m 181 508 q 213 451 213 508 q 189 415 213 428 q 139 403 165 403 q 90 422 111 403 q 68 472 68 442 q 138 584 68 543 q 321 625 208 625 q 526 559 453 625 q 600 392 600 493 l 600 117 q 615 51 600 72 q 650 31 629 31 q 683 40 668 31 q 697 64 697 50 l 722 64 q 569 -11 722 -11 q 460 39 499 -11 q 267 -14 376 -14 q 35 156 35 -14 q 59 218 35 190 q 133 265 83 246 q 223 296 183 285 q 332 322 263 307 q 426 343 401 336 q 405 524 426 474 q 307 575 383 575 q 224 556 261 575 q 181 508 188 538 m 440 72 q 426 156 426 110 l 426 313 q 271 253 308 276 q 213 153 213 214 q 240 61 213 89 q 301 33 267 33 q 440 72 363 33 z "},"Ǐ":{"ha":451,"x_min":50,"x_max":401,"o":"m 199 861 l 68 1086 l 118 1086 l 233 979 l 349 1086 l 399 1086 l 268 861 l 199 861 m 50 0 l 50 29 q 138 57 125 29 l 138 756 q 50 783 125 783 l 50 813 l 401 813 l 401 783 q 314 756 326 783 l 314 57 q 401 29 326 29 l 401 0 l 50 0 z "},"ǐ":{"ha":401,"x_min":33,"x_max":382,"o":"m 176 715 l 46 940 l 96 940 l 211 833 l 326 940 l 376 940 l 246 715 l 176 715 m 33 0 l 33 29 q 121 57 108 29 l 121 528 q 33 533 49 533 l 33 565 q 161 595 60 565 q 294 625 263 625 l 294 57 q 382 29 307 29 l 382 0 l 33 0 z "},"Ǒ":{"ha":922,"x_min":49,"x_max":874,"o":"m 433 861 l 303 1086 l 353 1086 l 468 979 l 583 1086 l 633 1086 l 503 861 l 433 861 m 236 417 q 256 240 236 322 q 331 96 276 158 q 467 33 385 33 q 574 66 529 33 q 642 154 618 99 q 676 269 665 210 q 686 394 686 328 q 665 571 686 488 q 590 717 644 654 q 456 779 536 779 q 349 746 393 779 q 281 657 304 713 q 247 542 257 601 q 236 417 236 483 m 169 110 q 109 173 169 110 q 49 406 49 235 q 169 701 49 576 q 461 826 290 826 q 753 701 632 826 q 874 406 874 576 q 752 110 874 235 q 461 -14 631 -14 q 169 110 289 -14 z "},"ǒ":{"ha":757,"x_min":43,"x_max":714,"o":"m 347 715 l 217 940 l 267 940 l 382 833 l 497 940 l 547 940 l 417 715 l 347 715 m 225 344 q 269 104 225 181 q 403 28 313 28 q 499 94 465 28 q 532 268 532 160 q 492 510 532 438 q 351 582 453 582 q 258 513 292 582 q 225 344 225 443 m 385 -14 q 135 78 228 -14 q 43 317 43 169 q 127 537 43 449 q 375 625 211 625 q 627 538 540 625 q 714 300 714 450 q 631 76 714 167 q 385 -14 547 -14 z "},"Ǔ":{"ha":839,"x_min":25,"x_max":814,"o":"m 454 861 l 324 1086 l 374 1086 l 489 979 l 604 1086 l 654 1086 l 524 861 l 454 861 m 481 33 q 625 110 571 33 q 679 317 679 186 l 679 756 q 592 783 667 783 l 592 813 l 814 813 l 814 783 q 726 756 739 783 l 726 344 q 647 75 726 164 q 446 -14 567 -14 q 113 344 113 -14 l 113 756 q 25 783 100 783 l 25 813 l 376 813 l 376 783 q 289 756 301 783 l 289 325 q 338 108 289 183 q 481 33 386 33 z "},"ǔ":{"ha":792,"x_min":14,"x_max":772,"o":"m 357 715 l 226 940 l 276 940 l 392 833 l 507 940 l 557 940 l 426 715 l 357 715 m 685 83 q 772 78 760 78 l 772 46 q 644 16 746 46 q 511 -14 543 -14 l 511 26 q 369 -14 440 -14 q 101 183 101 -14 l 101 554 q 14 582 89 582 l 14 611 l 275 611 l 275 174 q 276 128 275 144 q 282 92 276 113 q 298 60 288 71 q 328 41 308 49 q 378 33 349 33 q 511 71 446 33 l 511 554 q 424 582 499 582 l 424 611 l 685 611 l 685 83 z "},"Ǖ":{"ha":839,"x_min":25,"x_max":814,"o":"m 304 1150 l 671 1150 l 671 1075 l 304 1075 l 304 1150 m 563 885 q 551 898 563 885 q 539 943 539 910 q 563 1001 539 976 q 619 1025 586 1025 q 677 1001 653 1025 q 701 943 701 976 q 677 885 701 910 q 619 861 653 861 q 563 885 586 861 m 298 885 q 286 898 298 885 q 274 943 274 910 q 298 1001 274 976 q 356 1025 322 1025 q 413 1001 389 1025 q 436 943 436 976 q 413 885 436 910 q 356 861 389 861 q 298 885 322 861 m 481 33 q 625 110 571 33 q 679 317 679 186 l 679 756 q 592 783 667 783 l 592 813 l 814 813 l 814 783 q 726 756 739 783 l 726 344 q 647 75 726 164 q 446 -14 567 -14 q 113 344 113 -14 l 113 756 q 25 783 100 783 l 25 813 l 376 813 l 376 783 q 289 756 301 783 l 289 325 q 338 108 289 183 q 481 33 386 33 z "},"ǖ":{"ha":792,"x_min":14,"x_max":772,"o":"m 207 1038 l 574 1038 l 574 963 l 207 963 l 207 1038 m 465 740 q 453 752 465 740 q 442 797 442 764 q 465 855 442 831 q 522 879 489 879 q 580 855 556 879 q 604 797 604 831 q 580 740 604 764 q 522 715 556 715 q 465 740 489 715 m 201 740 q 189 752 201 740 q 176 797 176 764 q 201 855 176 831 q 258 879 225 879 q 315 855 292 879 q 339 797 339 831 q 315 740 339 764 q 258 715 292 715 q 201 740 225 715 m 685 83 q 772 78 760 78 l 772 46 q 644 16 746 46 q 511 -14 543 -14 l 511 26 q 369 -14 440 -14 q 101 183 101 -14 l 101 554 q 14 582 89 582 l 14 611 l 275 611 l 275 174 q 276 128 275 144 q 282 92 276 113 q 298 60 288 71 q 328 41 308 49 q 378 33 349 33 q 511 71 446 33 l 511 554 q 424 582 499 582 l 424 611 l 685 611 l 685 83 z "},"Ǘ":{"ha":839,"x_min":25,"x_max":814,"o":"m 531 1261 l 706 1261 l 519 1036 l 456 1036 l 531 1261 m 563 885 q 551 898 563 885 q 539 943 539 910 q 563 1001 539 976 q 619 1025 586 1025 q 677 1001 653 1025 q 701 943 701 976 q 677 885 701 910 q 619 861 653 861 q 563 885 586 861 m 298 885 q 286 898 298 885 q 274 943 274 910 q 298 1001 274 976 q 356 1025 322 1025 q 413 1001 389 1025 q 436 943 436 976 q 413 885 436 910 q 356 861 389 861 q 298 885 322 861 m 481 33 q 625 110 571 33 q 679 317 679 186 l 679 756 q 592 783 667 783 l 592 813 l 814 813 l 814 783 q 726 756 739 783 l 726 344 q 647 75 726 164 q 446 -14 567 -14 q 113 344 113 -14 l 113 756 q 25 783 100 783 l 25 813 l 376 813 l 376 783 q 289 756 301 783 l 289 325 q 338 108 289 183 q 481 33 386 33 z "},"ǘ":{"ha":792,"x_min":14,"x_max":772,"o":"m 433 1111 l 608 1111 l 422 886 l 358 886 l 433 1111 m 465 740 q 453 752 465 740 q 442 797 442 764 q 465 855 442 831 q 522 879 489 879 q 580 855 556 879 q 604 797 604 831 q 580 740 604 764 q 522 715 556 715 q 465 740 489 715 m 201 740 q 189 752 201 740 q 176 797 176 764 q 201 855 176 831 q 258 879 225 879 q 315 855 292 879 q 339 797 339 831 q 315 740 339 764 q 258 715 292 715 q 201 740 225 715 m 685 83 q 772 78 760 78 l 772 46 q 644 16 746 46 q 511 -14 543 -14 l 511 26 q 369 -14 440 -14 q 101 183 101 -14 l 101 554 q 14 582 89 582 l 14 611 l 275 611 l 275 174 q 276 128 275 144 q 282 92 276 113 q 298 60 288 71 q 328 41 308 49 q 378 33 349 33 q 511 71 446 33 l 511 554 q 424 582 499 582 l 424 611 l 685 611 l 685 83 z "},"Ǚ":{"ha":839,"x_min":25,"x_max":814,"o":"m 453 1028 l 322 1253 l 372 1253 l 488 1146 l 603 1253 l 653 1253 l 522 1028 l 453 1028 m 563 885 q 551 898 563 885 q 539 943 539 910 q 563 1001 539 976 q 619 1025 586 1025 q 677 1001 653 1025 q 701 943 701 976 q 677 885 701 910 q 619 861 653 861 q 563 885 586 861 m 298 885 q 286 898 298 885 q 274 943 274 910 q 298 1001 274 976 q 356 1025 322 1025 q 413 1001 389 1025 q 436 943 436 976 q 413 885 436 910 q 356 861 389 861 q 298 885 322 861 m 481 33 q 625 110 571 33 q 679 317 679 186 l 679 756 q 592 783 667 783 l 592 813 l 814 813 l 814 783 q 726 756 739 783 l 726 344 q 647 75 726 164 q 446 -14 567 -14 q 113 344 113 -14 l 113 756 q 25 783 100 783 l 25 813 l 376 813 l 376 783 q 289 756 301 783 l 289 325 q 338 108 289 183 q 481 33 386 33 z "},"ǚ":{"ha":792,"x_min":14,"x_max":772,"o":"m 356 886 l 225 1111 l 275 1111 l 390 1004 l 506 1111 l 556 1111 l 425 886 l 356 886 m 465 740 q 453 752 465 740 q 442 797 442 764 q 465 855 442 831 q 522 879 489 879 q 580 855 556 879 q 604 797 604 831 q 580 740 604 764 q 522 715 556 715 q 465 740 489 715 m 201 740 q 189 752 201 740 q 176 797 176 764 q 201 855 176 831 q 258 879 225 879 q 315 855 292 879 q 339 797 339 831 q 315 740 339 764 q 258 715 292 715 q 201 740 225 715 m 685 83 q 772 78 760 78 l 772 46 q 644 16 746 46 q 511 -14 543 -14 l 511 26 q 369 -14 440 -14 q 101 183 101 -14 l 101 554 q 14 582 89 582 l 14 611 l 275 611 l 275 174 q 276 128 275 144 q 282 92 276 113 q 298 60 288 71 q 328 41 308 49 q 378 33 349 33 q 511 71 446 33 l 511 554 q 424 582 499 582 l 424 611 l 685 611 l 685 83 z "},"Ǜ":{"ha":839,"x_min":25,"x_max":814,"o":"m 444 1261 l 519 1036 l 456 1036 l 269 1261 l 444 1261 m 563 885 q 551 898 563 885 q 539 943 539 910 q 563 1001 539 976 q 619 1025 586 1025 q 677 1001 653 1025 q 701 943 701 976 q 677 885 701 910 q 619 861 653 861 q 563 885 586 861 m 298 885 q 286 898 298 885 q 274 943 274 910 q 298 1001 274 976 q 356 1025 322 1025 q 413 1001 389 1025 q 436 943 436 976 q 413 885 436 910 q 356 861 389 861 q 298 885 322 861 m 481 33 q 625 110 571 33 q 679 317 679 186 l 679 756 q 592 783 667 783 l 592 813 l 814 813 l 814 783 q 726 756 739 783 l 726 344 q 647 75 726 164 q 446 -14 567 -14 q 113 344 113 -14 l 113 756 q 25 783 100 783 l 25 813 l 376 813 l 376 783 q 289 756 301 783 l 289 325 q 338 108 289 183 q 481 33 386 33 z "},"ǜ":{"ha":792,"x_min":14,"x_max":772,"o":"m 347 1111 l 422 886 l 358 886 l 172 1111 l 347 1111 m 465 740 q 453 752 465 740 q 442 797 442 764 q 465 855 442 831 q 522 879 489 879 q 580 855 556 879 q 604 797 604 831 q 580 740 604 764 q 522 715 556 715 q 465 740 489 715 m 201 740 q 189 752 201 740 q 176 797 176 764 q 201 855 176 831 q 258 879 225 879 q 315 855 292 879 q 339 797 339 831 q 315 740 339 764 q 258 715 292 715 q 201 740 225 715 m 685 83 q 772 78 760 78 l 772 46 q 644 16 746 46 q 511 -14 543 -14 l 511 26 q 369 -14 440 -14 q 101 183 101 -14 l 101 554 q 14 582 89 582 l 14 611 l 275 611 l 275 174 q 276 128 275 144 q 282 92 276 113 q 298 60 288 71 q 328 41 308 49 q 378 33 349 33 q 511 71 446 33 l 511 554 q 424 582 499 582 l 424 611 l 685 611 l 685 83 z "},"ǝ":{"ha":696,"x_min":33,"x_max":653,"o":"m 472 276 q 417 485 469 397 q 285 572 365 572 q 90 481 164 572 l 57 497 q 162 594 97 564 q 332 625 226 625 q 438 609 386 625 q 540 556 489 593 q 622 447 590 519 q 653 275 653 375 q 567 70 653 154 q 346 -14 482 -14 q 115 70 197 -14 q 33 276 33 154 l 472 276 m 471 233 l 218 233 q 252 81 226 135 q 335 28 278 28 q 424 78 385 28 q 471 233 464 129 z "},"Ǟ":{"ha":786,"x_min":-21,"x_max":810,"o":"m 211 1150 l 578 1150 l 578 1075 l 211 1075 l 211 1150 m 469 885 q 458 898 469 885 q 446 943 446 910 q 469 1001 446 976 q 526 1025 493 1025 q 584 1001 560 1025 q 608 943 608 976 q 584 885 608 910 q 526 861 560 861 q 469 885 493 861 m 205 885 q 193 898 205 885 q 181 943 181 910 q 205 1001 181 976 q 263 1025 229 1025 q 319 1001 296 1025 q 343 943 343 976 q 319 885 343 910 q 263 861 296 861 q 205 885 229 861 m 457 0 l 457 29 q 538 46 521 29 l 460 258 l 193 258 l 121 54 q 207 29 135 29 l 207 0 l -21 0 l -21 29 q 67 58 56 29 l 336 813 l 449 813 l 721 58 q 810 29 731 29 l 810 0 l 457 0 m 325 628 l 210 304 l 443 304 l 325 628 z "},"ǟ":{"ha":699,"x_min":35,"x_max":722,"o":"m 139 1038 l 506 1038 l 506 963 l 139 963 l 139 1038 m 397 740 q 385 752 397 740 q 374 797 374 764 q 397 855 374 831 q 454 879 421 879 q 512 855 488 879 q 536 797 536 831 q 512 740 536 764 q 454 715 488 715 q 397 740 421 715 m 133 740 q 120 752 133 740 q 108 797 108 764 q 133 855 108 831 q 190 879 157 879 q 247 855 224 879 q 271 797 271 831 q 247 740 271 764 q 190 715 224 715 q 133 740 157 715 m 181 508 q 213 451 213 508 q 189 415 213 428 q 139 403 165 403 q 90 422 111 403 q 68 472 68 442 q 138 584 68 543 q 321 625 208 625 q 526 559 453 625 q 600 392 600 493 l 600 117 q 615 51 600 72 q 650 31 629 31 q 683 40 668 31 q 697 64 697 50 l 722 64 q 569 -11 722 -11 q 460 39 499 -11 q 267 -14 376 -14 q 35 156 35 -14 q 59 218 35 190 q 133 265 83 246 q 223 296 183 285 q 332 322 263 307 q 426 343 401 336 q 405 524 426 474 q 307 575 383 575 q 224 556 261 575 q 181 508 188 538 m 440 72 q 426 156 426 110 l 426 313 q 271 253 308 276 q 213 153 213 214 q 240 61 213 89 q 301 33 267 33 q 440 72 363 33 z "},"Ǧ":{"ha":865,"x_min":46,"x_max":853,"o":"m 467 861 l 336 1086 l 386 1086 l 501 979 l 617 1086 l 667 1086 l 536 861 l 467 861 m 503 779 q 313 669 386 779 q 239 397 239 558 q 310 122 239 210 q 483 33 382 33 q 589 46 542 33 l 589 344 q 501 372 576 372 l 501 401 l 853 401 l 853 372 q 765 344 778 372 l 765 111 q 667 27 742 68 q 481 -14 592 -14 q 169 108 293 -14 q 46 394 46 231 q 115 624 46 524 q 288 776 185 725 q 501 826 390 826 q 606 806 542 826 q 676 785 669 785 q 693 813 693 785 l 725 813 l 739 611 l 708 611 q 631 724 700 668 q 503 779 561 779 z "},"ǧ":{"ha":746,"x_min":44,"x_max":667,"o":"m 353 715 l 222 940 l 272 940 l 388 833 l 503 940 l 553 940 l 422 715 l 353 715 m 667 625 l 667 40 q 585 -188 667 -99 q 369 -278 504 -278 q 167 -244 242 -278 q 92 -156 92 -211 q 167 -67 92 -67 q 213 -86 194 -67 q 231 -132 231 -106 q 196 -190 231 -176 q 356 -228 233 -228 q 453 -173 419 -228 q 492 17 486 -118 q 349 -14 433 -14 q 255 1 303 -14 q 157 49 207 15 q 76 148 107 82 q 44 303 44 214 q 140 541 44 457 q 379 625 236 625 q 529 583 468 625 q 667 625 633 625 m 493 61 l 493 90 l 493 558 q 388 578 450 578 q 225 303 225 578 q 240 165 225 222 q 277 81 254 107 q 321 44 300 54 q 363 33 342 33 q 493 61 438 33 z "},"Ǫ":{"ha":925,"x_min":50,"x_max":875,"o":"m 50 406 l 50 407 q 171 703 50 578 q 463 828 292 828 q 754 703 633 828 q 875 407 875 578 q 774 134 875 253 q 525 -8 674 15 q 496 -94 496 -49 q 528 -194 496 -158 q 611 -231 560 -231 q 633 -225 622 -231 q 650 -214 644 -219 l 654 -208 l 669 -233 q 660 -246 667 -239 q 624 -265 653 -253 q 560 -278 596 -278 q 452 -242 490 -278 q 414 -143 414 -206 q 467 -14 414 -72 l 463 -14 q 170 110 290 -14 q 50 406 50 235 m 238 418 q 258 242 238 324 q 332 97 278 160 q 468 35 386 35 q 575 67 531 35 q 643 156 619 100 q 677 270 667 211 q 688 396 688 329 q 667 572 688 489 q 592 718 646 656 q 457 781 538 781 q 350 747 394 781 q 282 658 306 714 q 248 544 258 603 q 238 418 238 485 z "},"ǫ":{"ha":758,"x_min":43,"x_max":714,"o":"m 224 344 q 267 104 224 181 q 401 28 311 28 q 497 94 464 28 q 531 268 531 160 q 491 510 531 438 q 350 582 451 582 q 257 513 290 582 q 224 344 224 443 m 400 -14 l 401 -15 q 375 -96 375 -57 q 407 -196 375 -160 q 490 -232 439 -232 q 512 -226 501 -232 q 528 -215 522 -221 l 533 -210 l 549 -235 q 539 -247 546 -240 q 503 -267 532 -254 q 439 -279 475 -279 q 331 -243 369 -279 q 293 -144 293 -207 q 347 -12 293 -69 q 124 88 206 -1 q 43 317 43 178 q 127 537 43 449 q 375 625 211 625 q 627 538 540 625 q 714 300 714 450 q 634 81 714 171 q 400 -14 554 -8 z "},"Ǹ":{"ha":865,"x_min":50,"x_max":831,"o":"m 394 1086 l 469 861 l 406 861 l 219 1086 l 394 1086 m 50 0 l 50 29 q 138 57 125 29 l 138 756 q 50 783 125 783 l 50 813 l 285 813 l 696 250 l 696 756 q 608 783 683 783 l 608 813 l 831 813 l 831 783 q 743 756 756 783 l 743 0 l 682 0 l 185 688 l 185 57 q 272 29 197 29 l 272 0 l 50 0 z "},"ǹ":{"ha":829,"x_min":33,"x_max":815,"o":"m 394 942 l 469 717 l 406 717 l 219 942 l 394 942 m 33 0 l 33 29 q 121 57 108 29 l 121 528 q 33 533 46 533 l 33 565 q 161 595 60 565 q 294 625 263 625 l 294 567 q 447 625 364 625 q 654 576 581 625 q 728 428 728 526 l 728 57 q 815 29 740 29 l 815 0 l 467 0 l 467 29 q 554 57 542 29 l 554 438 q 526 539 554 500 q 439 578 497 578 q 294 522 353 578 l 294 57 q 382 29 307 29 l 382 0 l 33 0 z "},"Ǿ":{"ha":922,"x_min":49,"x_max":874,"o":"m 481 1086 l 656 1086 l 469 861 l 406 861 l 481 1086 m 224 -39 l 183 -14 l 229 58 q 97 208 146 117 q 49 406 49 300 q 169 701 49 576 q 461 826 290 826 q 671 767 574 826 l 724 850 l 764 825 l 711 739 q 831 592 788 681 q 874 406 874 504 q 752 110 874 235 q 461 -14 631 -14 q 269 35 360 -14 l 224 -39 m 643 632 l 317 110 q 467 33 375 33 q 574 66 529 33 q 642 154 618 99 q 676 269 665 210 q 686 394 686 328 q 643 632 686 531 m 618 682 q 456 779 558 779 q 349 746 393 779 q 281 657 304 713 q 247 542 257 601 q 236 417 236 483 q 289 156 236 261 l 618 682 z "},"ǿ":{"ha":757,"x_min":43,"x_max":714,"o":"m 394 940 l 569 940 l 383 715 l 319 715 l 394 940 m 167 -49 l 129 -21 l 175 44 q 43 317 43 135 q 127 537 43 449 q 375 625 211 625 q 556 588 478 625 l 606 660 l 643 632 l 596 564 q 714 300 714 479 q 631 76 714 167 q 385 -14 547 -14 q 215 21 289 -14 l 167 -49 m 515 450 l 271 100 q 403 28 313 28 q 499 94 465 28 q 532 268 532 160 q 515 450 532 379 m 496 503 q 351 582 456 582 q 258 513 292 582 q 225 344 225 443 q 249 150 225 225 l 496 503 z "},"Ș":{"ha":653,"x_min":64,"x_max":613,"o":"m 342 -181 q 285 -162 307 -181 q 264 -112 264 -144 q 281 -67 264 -83 q 311 -48 299 -50 q 335 -46 324 -46 q 431 -81 392 -46 q 469 -174 469 -117 q 283 -354 469 -297 l 283 -300 q 356 -263 321 -296 q 392 -190 392 -231 q 385 -162 392 -162 l 378 -167 q 363 -176 372 -172 q 342 -181 353 -181 m 339 -14 q 200 7 271 -14 q 126 28 129 28 q 107 19 118 28 q 96 0 96 11 l 64 0 l 64 219 l 94 219 q 186 85 110 138 q 331 33 263 33 q 442 70 400 33 q 485 167 485 107 q 472 208 485 188 q 430 249 458 228 q 379 285 401 271 q 315 325 357 300 q 254 361 272 350 q 65 611 65 478 q 140 760 65 693 q 308 826 215 826 q 410 806 350 826 q 476 785 469 785 q 493 813 493 785 l 525 813 l 539 603 l 508 603 q 433 719 500 660 q 310 779 367 779 q 215 740 247 779 q 183 656 183 700 q 196 620 183 638 q 236 582 208 603 q 285 548 264 561 q 349 510 306 535 q 408 475 392 485 q 558 354 504 417 q 613 206 613 292 q 529 44 613 103 q 339 -14 446 -14 z "},"ș":{"ha":551,"x_min":53,"x_max":508,"o":"m 249 -181 q 192 -162 214 -181 q 171 -112 171 -144 q 188 -67 171 -83 q 218 -48 206 -50 q 242 -46 231 -46 q 338 -81 299 -46 q 376 -174 376 -117 q 190 -354 376 -297 l 190 -300 q 263 -263 228 -296 q 299 -190 299 -231 q 292 -162 299 -162 l 286 -167 q 269 -176 279 -172 q 249 -181 260 -181 m 286 42 q 381 128 381 42 q 347 174 381 151 q 267 220 314 197 q 172 272 219 243 q 92 349 125 301 q 58 457 58 397 q 117 580 58 535 q 258 625 176 625 q 356 604 306 625 q 413 583 406 583 q 429 611 429 583 l 461 611 l 475 408 l 444 408 q 373 522 431 467 q 263 578 315 578 q 164 506 164 578 q 218 448 164 481 q 336 385 272 415 q 454 297 400 354 q 508 172 508 240 q 443 36 508 86 q 275 -14 378 -14 q 174 7 225 -14 q 117 28 122 28 q 100 0 100 28 l 67 0 l 53 213 l 83 213 q 167 99 97 157 q 286 42 238 42 z "},"Ț":{"ha":751,"x_min":17,"x_max":735,"o":"m 385 -181 q 328 -162 350 -181 q 307 -112 307 -144 q 324 -67 307 -83 q 354 -48 342 -50 q 378 -46 367 -46 q 474 -81 435 -46 q 513 -174 513 -117 q 326 -354 513 -297 l 326 -300 q 399 -263 364 -296 q 435 -190 435 -231 q 428 -162 435 -162 l 422 -167 q 406 -176 415 -172 q 385 -181 396 -181 m 17 813 l 735 813 l 735 678 l 706 678 q 657 765 706 744 l 464 765 l 464 57 q 551 29 476 29 l 551 0 l 200 0 l 200 29 q 288 57 275 29 l 288 765 l 94 765 q 46 678 46 744 l 17 678 l 17 813 z "},"ț":{"ha":492,"x_min":10,"x_max":481,"o":"m 300 -181 q 244 -162 265 -181 q 222 -112 222 -144 q 240 -67 222 -83 q 269 -48 257 -50 q 293 -46 282 -46 q 389 -81 350 -46 q 428 -174 428 -117 q 242 -354 428 -297 l 242 -300 q 315 -263 279 -296 q 350 -190 350 -231 q 343 -162 350 -162 l 336 -167 q 321 -176 331 -172 q 300 -181 311 -181 m 289 813 l 289 611 l 408 611 l 408 569 l 289 569 l 289 128 q 304 62 289 85 q 361 39 319 39 q 412 63 386 39 q 447 131 438 88 l 481 114 q 314 -14 451 -14 q 156 35 206 -14 q 107 197 107 85 l 107 569 l 10 569 l 10 611 q 153 673 92 611 q 214 813 214 735 l 289 813 z "},"Ȩ":{"ha":699,"x_min":50,"x_max":686,"o":"m 50 0 l 50 29 q 138 57 125 29 l 138 756 q 50 783 125 783 l 50 813 l 624 813 l 624 678 l 594 678 q 567 765 594 753 l 314 765 l 314 446 l 474 446 q 501 533 501 458 l 531 533 l 531 311 l 501 311 q 474 399 501 386 l 314 399 l 314 47 l 596 47 q 658 135 631 63 l 686 135 l 653 0 l 421 0 l 400 -76 q 457 -84 426 -76 q 517 -115 488 -92 q 546 -169 546 -137 q 506 -244 546 -211 q 379 -276 465 -276 q 276 -267 333 -276 l 276 -243 q 311 -246 301 -246 q 404 -181 404 -246 q 319 -119 404 -119 l 354 0 l 50 0 z "},"ȩ":{"ha":699,"x_min":44,"x_max":664,"o":"m 226 378 l 479 378 q 445 530 471 476 q 363 583 419 583 q 273 533 313 583 q 226 378 233 482 m 225 335 q 280 126 228 214 q 413 39 332 39 q 607 131 533 39 l 640 114 q 547 24 603 54 q 403 -12 492 -7 l 386 -76 q 443 -84 413 -76 q 503 -115 474 -92 q 532 -169 532 -137 q 492 -244 532 -211 q 365 -276 451 -276 q 263 -267 319 -276 l 263 -243 q 297 -246 288 -246 q 390 -181 390 -246 q 306 -119 390 -119 l 336 -12 q 236 10 283 -8 q 144 67 189 29 q 72 174 99 106 q 44 336 44 243 q 130 541 44 457 q 351 625 215 625 q 582 541 500 625 q 664 335 664 457 l 225 335 z "},"Ȫ":{"ha":922,"x_min":49,"x_max":874,"o":"m 283 1150 l 650 1150 l 650 1075 l 283 1075 l 283 1150 m 542 885 q 530 898 542 885 q 518 943 518 910 q 542 1001 518 976 q 599 1025 565 1025 q 656 1001 632 1025 q 681 943 681 976 q 656 885 681 910 q 599 861 632 861 q 542 885 565 861 m 277 885 q 265 898 277 885 q 253 943 253 910 q 277 1001 253 976 q 335 1025 301 1025 q 392 1001 368 1025 q 415 943 415 976 q 392 885 415 910 q 335 861 368 861 q 277 885 301 861 m 236 417 q 256 240 236 322 q 331 96 276 158 q 467 33 385 33 q 574 66 529 33 q 642 154 618 99 q 676 269 665 210 q 686 394 686 328 q 665 571 686 488 q 590 717 644 654 q 456 779 536 779 q 349 746 393 779 q 281 657 304 713 q 247 542 257 601 q 236 417 236 483 m 169 110 q 109 173 169 110 q 49 406 49 235 q 169 701 49 576 q 461 826 290 826 q 753 701 632 826 q 874 406 874 576 q 752 110 874 235 q 461 -14 631 -14 q 169 110 289 -14 z "},"ȫ":{"ha":757,"x_min":43,"x_max":714,"o":"m 197 1038 l 564 1038 l 564 963 l 197 963 l 197 1038 m 456 740 q 444 752 456 740 q 432 797 432 764 q 456 855 432 831 q 513 879 479 879 q 570 855 546 879 q 594 797 594 831 q 570 740 594 764 q 513 715 546 715 q 456 740 479 715 m 191 740 q 179 752 191 740 q 167 797 167 764 q 191 855 167 831 q 249 879 215 879 q 306 855 282 879 q 329 797 329 831 q 306 740 329 764 q 249 715 282 715 q 191 740 215 715 m 225 344 q 269 104 225 181 q 403 28 313 28 q 499 94 465 28 q 532 268 532 160 q 492 510 532 438 q 351 582 453 582 q 258 513 292 582 q 225 344 225 443 m 385 -14 q 135 78 228 -14 q 43 317 43 169 q 127 537 43 449 q 375 625 211 625 q 627 538 540 625 q 714 300 714 450 q 631 76 714 167 q 385 -14 547 -14 z "},"ȷ":{"ha":358,"x_min":-122,"x_max":279,"o":"m 106 529 q 18 535 33 535 l 18 567 q 146 597 44 567 q 279 626 247 626 l 279 -60 q 211 -224 279 -171 q 58 -276 143 -276 q -122 -156 -122 -276 q -105 -105 -122 -126 q -56 -83 -87 -83 q -10 -105 -26 -83 q 6 -154 6 -126 q -8 -187 6 -174 q 44 -235 -8 -235 q 88 -194 71 -235 q 106 -79 106 -154 l 106 529 z "},"Ɂ":{"ha":622,"x_min":38,"x_max":576,"o":"m 429 586 q 384 725 429 665 q 276 785 339 785 q 111 665 142 785 q 153 648 138 665 q 169 599 169 631 q 106 543 169 543 q 38 629 38 543 q 101 769 38 711 q 290 826 164 826 q 503 759 431 826 q 576 611 576 692 q 557 508 576 553 q 509 435 538 463 q 453 381 481 407 q 406 319 425 356 q 386 233 386 282 l 386 57 q 474 29 399 29 l 474 0 l 122 0 l 122 29 q 210 57 197 29 l 210 164 q 233 269 210 224 q 288 347 256 315 q 351 408 319 378 q 406 483 383 438 q 429 586 429 528 z "},"ɂ":{"ha":553,"x_min":33,"x_max":514,"o":"m 364 385 q 334 533 364 489 q 233 578 304 578 q 151 544 182 578 q 107 464 119 511 q 141 450 126 464 q 156 407 156 436 q 137 371 156 383 q 93 358 118 358 q 50 377 67 358 q 33 428 33 396 q 95 566 33 507 q 264 625 157 625 q 453 565 392 625 q 514 410 514 506 q 489 322 514 363 q 435 259 464 282 q 381 199 406 236 q 356 121 356 163 l 356 57 q 443 29 368 29 l 443 0 l 101 0 l 101 29 q 189 57 176 29 q 208 159 190 115 q 252 228 226 203 q 303 276 278 254 q 346 324 328 297 q 364 385 364 351 z "},"Ƀ":{"ha":832,"x_min":47,"x_max":793,"o":"m 314 765 l 314 443 l 378 443 q 511 486 478 443 q 544 619 544 529 q 333 765 544 765 l 314 765 m 50 0 l 50 29 q 138 57 125 29 l 138 196 l 47 196 l 47 243 l 138 243 l 138 756 q 50 783 125 783 l 50 813 l 382 813 q 644 756 556 813 q 732 621 732 699 q 574 425 732 474 q 735 347 676 400 q 793 238 793 294 q 709 66 793 132 q 460 0 625 0 l 50 0 m 314 196 l 314 47 l 411 47 q 606 236 606 47 q 557 352 606 301 q 394 403 508 403 l 314 403 l 314 243 l 442 243 l 442 196 l 314 196 z "},"Ʉ":{"ha":839,"x_min":25,"x_max":814,"o":"m 71 447 l 71 494 l 113 494 l 113 756 q 25 783 100 783 l 25 813 l 376 813 l 376 783 q 289 756 301 783 l 289 494 l 679 494 l 679 756 q 592 783 667 783 l 592 813 l 814 813 l 814 783 q 726 756 739 783 l 726 494 l 776 494 l 776 447 l 726 447 l 726 344 q 647 75 726 164 q 446 -14 567 -14 q 113 344 113 -14 l 113 447 l 71 447 m 481 33 q 625 110 571 33 q 679 317 679 186 l 679 447 l 289 447 l 289 325 q 338 108 289 183 q 481 33 386 33 z "},"Ʌ":{"ha":786,"x_min":-21,"x_max":810,"o":"m 325 628 l 121 54 q 207 29 135 29 l 207 0 l -21 0 l -21 29 q 67 58 56 29 l 336 813 l 449 813 l 721 58 q 810 29 731 29 l 810 0 l 457 0 l 457 29 q 538 46 521 29 l 325 628 z "},"Ɋ":{"ha":857,"x_min":50,"x_max":1008,"o":"m 778 -81 q 795 -196 778 -156 q 839 -236 813 -236 q 866 -228 858 -236 q 886 -194 874 -219 q 950 -133 918 -133 q 990 -149 972 -133 q 1008 -183 1008 -164 q 950 -253 1008 -228 q 825 -278 892 -278 q 672 -225 740 -278 q 604 -61 604 -172 l 604 18 q 424 -14 518 -14 q 342 -6 385 -14 q 246 30 300 3 q 150 101 192 57 q 79 223 108 144 q 50 403 50 301 q 78 580 50 503 q 148 702 106 657 q 247 776 190 747 q 353 816 303 806 q 454 826 404 826 q 644 788 536 826 q 778 826 744 826 l 778 -81 m 604 63 l 604 757 q 463 779 531 779 q 419 775 440 779 q 370 759 399 771 q 319 721 342 747 q 275 655 296 694 q 242 551 254 615 q 231 403 231 486 q 252 217 231 294 q 308 102 274 139 q 375 49 343 65 q 438 33 407 33 q 604 63 526 33 z "},"ɋ":{"ha":763,"x_min":42,"x_max":913,"o":"m 685 -36 q 743 -236 685 -236 q 770 -228 763 -236 q 790 -194 778 -219 q 854 -133 822 -133 q 894 -149 876 -133 q 913 -183 913 -164 q 854 -253 913 -228 q 729 -278 796 -278 q 639 -267 675 -278 q 572 -225 603 -256 q 525 -134 540 -194 q 508 19 510 -74 q 360 -14 449 -14 q 264 1 314 -14 q 161 49 214 15 q 75 148 108 82 q 42 303 42 214 q 144 540 42 456 q 390 625 246 625 q 542 583 481 625 q 682 625 646 625 l 685 -36 m 508 64 l 508 557 q 399 578 458 578 q 273 506 324 578 q 222 303 222 435 q 262 106 222 178 q 374 33 301 33 q 508 64 453 33 z "},"Ɍ":{"ha":819,"x_min":8,"x_max":838,"o":"m 51 0 l 51 29 q 139 57 126 29 l 139 369 l 8 369 l 8 417 l 139 417 l 139 756 q 51 783 126 783 l 51 813 l 393 813 q 654 750 565 813 q 743 607 743 688 q 697 473 743 531 q 561 389 651 415 l 746 58 q 838 29 761 29 l 838 0 l 778 0 q 616 13 668 0 q 538 72 564 25 l 369 369 l 315 369 l 315 57 q 403 29 328 29 l 403 0 l 51 0 m 361 417 q 506 459 456 417 q 556 606 556 501 q 499 726 556 686 q 344 765 443 765 l 315 765 l 315 417 l 361 417 z "},"ɍ":{"ha":611,"x_min":25,"x_max":610,"o":"m 39 0 l 39 29 q 126 57 114 29 l 126 289 l 25 289 l 25 336 l 126 336 l 126 528 q 39 533 51 533 l 39 565 q 167 595 65 565 q 300 625 268 625 l 300 567 q 438 625 372 625 q 610 542 610 625 q 590 489 610 508 q 540 469 569 469 q 492 486 508 469 q 471 524 475 503 q 455 561 467 544 q 421 578 443 578 q 300 519 368 578 l 300 336 l 419 336 l 419 289 l 300 289 l 300 57 q 388 29 313 29 l 388 0 l 39 0 z "},"ɑ":{"ha":800,"x_min":43,"x_max":781,"o":"m 539 578 q 693 625 660 625 l 693 83 q 781 78 768 78 l 781 46 q 653 16 754 46 q 519 -14 551 -14 l 519 32 q 350 -14 453 -14 q 256 1 304 -14 q 157 49 207 15 q 75 148 107 82 q 43 303 43 214 q 140 540 43 456 q 381 625 238 625 q 539 578 474 625 m 519 546 q 389 578 469 578 q 269 507 315 578 q 224 303 224 436 q 364 33 224 33 q 519 76 460 33 l 519 546 z "},"ɓ":{"ha":768,"x_min":79,"x_max":726,"o":"m 224 31 q 79 -14 113 -14 l 79 658 q 148 819 79 764 q 300 875 217 875 q 425 850 367 875 q 483 781 483 825 q 465 746 483 761 q 425 731 447 731 q 361 792 393 731 q 348 816 351 810 q 336 828 344 822 q 314 833 328 833 q 270 793 288 833 q 253 678 253 753 l 253 592 q 408 631 317 631 q 483 622 444 631 q 567 590 522 613 q 646 531 611 567 q 703 438 681 496 q 726 308 726 381 q 624 71 726 156 q 378 -14 522 -14 q 224 31 285 -14 m 253 547 l 253 58 q 369 33 300 33 q 495 105 444 33 q 546 308 546 176 q 506 508 546 433 q 394 583 467 583 q 253 547 310 583 z "},"ɔ":{"ha":668,"x_min":36,"x_max":625,"o":"m 288 28 q 399 94 353 28 q 444 269 444 160 q 394 483 444 393 q 264 572 344 572 q 88 472 147 572 l 36 497 q 141 594 76 564 q 311 625 206 625 q 393 616 353 625 q 476 582 433 607 q 551 519 519 557 q 604 419 583 482 q 625 275 625 356 q 533 71 625 156 q 301 -14 442 -14 q 120 24 189 -14 q 51 133 51 63 q 69 190 51 168 q 121 213 86 213 q 174 197 154 213 q 194 154 194 181 q 180 111 194 125 q 146 97 165 97 q 288 28 164 28 z "},"ɖ":{"ha":774,"x_min":43,"x_max":925,"o":"m 694 25 q 756 -175 694 -175 q 783 -167 775 -175 q 803 -133 790 -158 q 867 -72 835 -72 q 907 -87 889 -72 q 925 -122 925 -103 q 867 -192 925 -167 q 742 -217 808 -217 q 585 -166 639 -217 q 522 33 531 -115 q 354 -14 457 -14 q 280 -5 318 -14 q 198 27 242 4 q 121 85 154 50 q 65 178 88 121 q 43 308 43 236 q 142 546 43 461 q 385 631 240 631 q 521 597 464 631 l 521 778 q 433 783 446 783 l 433 815 q 561 845 460 815 q 694 875 663 875 l 694 25 m 521 553 q 393 583 468 583 q 278 508 332 583 q 224 308 224 433 q 269 113 224 193 q 368 33 315 33 q 521 78 464 33 l 521 92 l 521 553 z "},"ɗ":{"ha":801,"x_min":43,"x_max":925,"o":"m 521 597 l 521 658 q 590 819 521 764 q 742 875 658 875 q 867 850 808 875 q 925 781 925 825 q 907 746 925 761 q 867 731 889 731 q 803 792 835 731 q 790 816 793 810 q 778 828 786 822 q 756 833 769 833 q 712 793 729 833 q 694 678 694 753 l 694 83 q 782 78 769 78 l 782 46 q 654 16 756 46 q 521 -14 553 -14 l 521 32 q 354 -14 454 -14 q 280 -5 318 -14 q 198 27 242 4 q 121 85 154 50 q 65 178 88 121 q 43 308 43 236 q 142 546 43 461 q 385 631 240 631 q 521 597 464 631 m 521 553 q 393 583 468 583 q 278 508 332 583 q 224 308 224 433 q 269 113 224 193 q 368 33 315 33 q 521 78 464 33 l 521 553 z "},"ə":{"ha":696,"x_min":33,"x_max":653,"o":"m 472 276 q 417 485 469 397 q 285 572 365 572 q 90 481 164 572 l 57 497 q 162 594 97 564 q 332 625 226 625 q 438 609 386 625 q 540 556 489 593 q 622 447 590 519 q 653 275 653 375 q 567 70 653 154 q 346 -14 482 -14 q 115 70 197 -14 q 33 276 33 154 l 472 276 m 471 233 l 218 233 q 252 81 226 135 q 335 28 278 28 q 424 78 385 28 q 471 233 464 129 z "},"ɛ":{"ha":607,"x_min":46,"x_max":583,"o":"m 492 431 q 455 447 469 431 q 440 488 440 463 q 471 531 440 519 q 424 570 450 557 q 350 583 399 583 q 274 549 304 583 q 243 456 243 514 q 281 376 243 408 q 371 344 319 344 l 371 292 q 269 260 313 292 q 226 153 226 229 q 269 67 226 96 q 383 39 311 39 q 550 131 476 39 l 583 114 q 490 15 540 43 q 336 -14 440 -14 q 46 158 46 -14 q 181 319 46 275 q 63 450 63 364 q 131 577 63 529 q 336 625 199 625 q 499 588 439 625 q 558 492 558 550 q 540 448 558 465 q 492 431 521 431 z "},"ɠ":{"ha":746,"x_min":44,"x_max":897,"o":"m 667 40 q 585 -188 667 -99 q 369 -278 504 -278 q 167 -244 242 -278 q 92 -156 92 -211 q 167 -67 92 -67 q 213 -86 194 -67 q 231 -132 231 -106 q 196 -190 231 -176 q 356 -228 233 -228 q 453 -173 419 -228 q 492 17 486 -118 q 349 -14 433 -14 q 255 1 303 -14 q 157 49 207 15 q 76 148 107 82 q 44 303 44 214 q 140 541 44 457 q 379 625 236 625 q 493 603 442 625 q 566 753 497 701 q 714 806 635 806 q 839 781 781 806 q 897 711 897 756 q 879 676 897 692 q 839 661 861 661 q 775 722 807 661 q 762 747 765 740 q 750 758 758 753 q 728 764 742 764 q 684 724 701 764 q 667 608 667 683 l 667 40 m 493 61 l 493 90 l 493 558 q 388 578 450 578 q 225 303 225 578 q 240 165 225 222 q 277 81 254 107 q 321 44 300 54 q 363 33 342 33 q 493 61 438 33 z "},"ɣ":{"ha":733,"x_min":-18,"x_max":751,"o":"m 329 611 l 329 582 q 253 568 271 582 l 419 219 l 615 565 q 535 582 599 582 l 535 611 l 751 611 l 751 582 q 664 554 678 582 l 461 194 q 443 167 460 192 q 518 -142 518 -10 q 482 -240 518 -201 q 374 -278 446 -278 q 225 -139 225 -278 q 308 53 225 -75 q 233 226 276 143 l 69 554 q -18 582 53 582 l -18 611 l 329 611 m 328 -3 q 282 -115 282 -81 q 317 -212 282 -212 q 342 -185 332 -212 q 353 -135 353 -158 q 328 -3 353 -85 z "},"ɦ":{"ha":828,"x_min":19,"x_max":813,"o":"m 19 0 l 19 29 q 107 57 94 29 l 107 658 q 176 819 107 764 q 328 875 244 875 q 453 850 394 875 q 511 781 511 825 q 493 746 511 761 q 453 731 475 731 q 389 792 421 731 q 376 816 379 810 q 364 828 372 822 q 342 833 356 833 q 298 793 315 833 q 281 678 281 753 l 281 571 q 446 625 364 625 q 654 581 583 625 q 725 433 725 536 l 725 57 q 813 29 738 29 l 813 0 l 464 0 l 464 29 q 551 57 539 29 l 551 400 q 523 537 551 496 q 438 578 494 578 q 281 528 354 578 l 281 57 q 368 29 293 29 l 368 0 l 19 0 z "},"ɨ":{"ha":471,"x_min":32,"x_max":446,"o":"m 32 338 l 32 385 l 154 385 l 154 528 q 67 533 82 533 l 67 565 q 194 595 93 565 q 328 625 296 625 l 328 385 l 446 385 l 446 338 l 328 338 l 328 57 q 415 29 340 29 l 415 0 l 67 0 l 67 29 q 154 57 142 29 l 154 338 l 32 338 m 238 714 q 170 738 204 714 q 136 796 136 763 q 167 850 136 825 q 233 875 199 875 q 301 851 267 875 q 335 792 335 826 q 303 738 335 763 q 238 714 272 714 z "},"ɩ":{"ha":403,"x_min":18,"x_max":404,"o":"m 279 117 q 295 51 279 72 q 332 31 311 31 q 365 40 350 31 q 379 64 379 50 l 404 64 q 368 6 404 24 q 251 -11 332 -11 q 142 25 179 -11 q 106 156 106 61 l 106 526 q 18 533 19 533 l 18 565 q 146 595 44 565 q 279 625 247 625 l 279 117 z "},"ɪ":{"ha":413,"x_min":31,"x_max":382,"o":"m 31 0 l 31 29 q 118 57 106 29 l 118 554 q 31 582 106 582 l 31 611 l 382 611 l 382 582 q 294 554 307 582 l 294 57 q 382 29 307 29 l 382 0 l 31 0 z "},"ɲ":{"ha":814,"x_min":-125,"x_max":800,"o":"m 451 0 l 451 29 q 539 57 526 29 l 539 438 q 510 539 539 500 q 424 578 482 578 q 279 522 338 578 l 279 -61 q 222 -226 279 -174 q 82 -278 164 -278 q -125 -183 -125 -278 q -107 -149 -125 -164 q -67 -133 -89 -133 q -3 -194 -35 -133 q 56 -236 18 -236 q 106 -81 106 -236 l 106 528 q 18 533 31 533 l 18 565 q 146 595 44 565 q 279 625 247 625 l 279 567 q 432 625 349 625 q 639 576 565 625 q 713 428 713 526 l 713 57 q 800 29 725 29 l 800 0 l 451 0 z "},"ɵ":{"ha":757,"x_min":43,"x_max":714,"o":"m 385 -14 q 135 78 228 -14 q 43 317 43 169 q 127 537 43 449 q 375 625 211 625 q 627 538 540 625 q 714 300 714 450 q 631 76 714 167 q 385 -14 547 -14 m 531 329 q 483 523 524 464 q 351 582 443 582 q 258 513 292 582 q 225 344 225 443 l 225 329 l 531 329 m 532 282 l 226 282 q 278 89 235 150 q 403 28 322 28 q 499 94 465 28 q 532 268 532 160 l 532 282 z "},"ɽ":{"ha":579,"x_min":13,"x_max":583,"o":"m 583 542 q 564 489 583 508 q 514 469 544 469 q 465 486 482 469 q 444 524 449 503 q 428 561 440 544 q 394 578 417 578 q 274 519 342 578 l 274 25 q 335 -175 274 -175 q 362 -167 354 -175 q 382 -133 369 -158 q 446 -72 414 -72 q 486 -87 468 -72 q 504 -122 504 -103 q 446 -192 504 -167 q 321 -217 388 -217 q 230 -205 267 -217 q 162 -162 193 -193 q 115 -67 131 -131 q 100 92 100 -4 l 100 528 q 13 533 25 533 l 13 565 q 140 595 39 565 q 274 625 242 625 l 274 567 q 411 625 346 625 q 583 542 583 625 z "},"ɾ":{"ha":575,"x_min":11,"x_max":572,"o":"m 11 0 l 11 29 q 99 57 86 29 l 99 408 q 142 536 99 485 q 240 606 185 588 q 354 625 294 625 q 506 600 439 625 q 572 531 572 575 q 508 461 572 461 q 481 468 492 461 q 467 483 471 475 q 459 508 464 490 q 451 533 454 525 q 368 583 432 583 q 299 544 325 583 q 272 428 272 504 l 272 57 q 360 29 285 29 l 360 0 l 11 0 z "},"ʃ":{"ha":332,"x_min":-119,"x_max":451,"o":"m 253 64 q 185 -100 253 -47 q 32 -153 117 -153 q -79 -133 -39 -153 q -119 -83 -119 -114 q -106 -47 -119 -64 q -69 -31 -92 -31 q -15 -78 -28 -31 q 18 -111 -8 -111 q 62 -71 44 -111 q 79 44 79 -31 l 79 658 q 147 822 79 769 q 300 875 215 875 q 411 856 371 875 q 451 806 451 836 q 438 769 451 786 q 401 753 424 753 q 347 800 360 753 q 314 833 340 833 q 270 793 288 833 q 253 678 253 753 l 253 64 z "}}}
